<?xml version="1.0" standalone="no"?>
<!DOCTYPE svg PUBLIC "-//W3C//DTD SVG 1.1//EN" "http://www.w3.org/Graphics/SVG/1.1/DTD/svg11.dtd" >
<svg xmlns="http://www.w3.org/2000/svg" xmlns:xlink="http://www.w3.org/1999/xlink" version="1.1">
<metadata>
Created by FontForge 20141024 at Mon Jan 11 16:12:24 2016
 By Jimmy Warting
Copyright (c) Mark Simonson, 2005. All rights reserved.
</metadata>
<defs>
<font id="ProximaNovaCond-Light" horiz-adv-x="469" >
  <font-face 
    font-family="Proxima Nova Cn Lt"
    font-weight="300"
    font-stretch="normal"
    units-per-em="1000"
    panose-1="2 0 5 6 3 0 0 2 0 4"
    ascent="790"
    descent="-210"
    x-height="483"
    cap-height="667"
    bbox="-136 -264 915 890"
    underline-thickness="20"
    underline-position="-113"
    stemh="45"
    stemv="56"
    unicode-range="U+000D-FB04"
  />
<missing-glyph horiz-adv-x="501" 
d="M426 -90h-351v842h351v-842zM394 -60v782h-288v-782h288z" />
    <glyph glyph-name="f_b" unicode="fb" horiz-adv-x="708" 
d="M137 0h-51v438h-64v45h64v69c0 78 43 125 108 125c21 0 39 -4 54 -14l-16 -40c-8 6 -18 10 -32 10c-41 0 -63 -30 -63 -81v-69h83v-45h-83v-438zM360 122c20 -47 69 -89 120 -89c87 0 126 95 126 208s-39 209 -126 209c-51 0 -100 -44 -120 -91v-237zM360 0h-50v667h50
v-258c30 56 79 86 129 86c109 0 171 -106 171 -254c0 -150 -62 -253 -171 -253c-52 0 -101 35 -129 84v-72z" />
    <glyph glyph-name="f_f" unicode="ff" horiz-adv-x="478" 
d="M137 0h-51v438h-64v45h64v69c0 77 42 125 111 125c28 0 54 -8 77 -30l-23 -38c-14 16 -30 24 -49 24c-44 0 -65 -30 -65 -81v-69h83v-45h-83v-438zM376 0h-51v438h-64v45h64v69c0 77 42 125 111 125c28 0 54 -8 77 -30l-23 -38c-14 16 -30 24 -49 24
c-44 0 -65 -30 -65 -81v-69h83v-45h-83v-438z" />
    <glyph glyph-name="f_h" unicode="fh" horiz-adv-x="689" 
d="M137 0h-51v438h-64v45h64v69c0 78 43 125 108 125c21 0 39 -4 54 -14l-16 -40c-8 6 -18 10 -32 10c-41 0 -63 -30 -63 -81v-69h83v-45h-83v-438zM618 0h-50v356c0 70 -32 94 -84 94c-50 0 -100 -41 -124 -85v-365h-50v667h50v-255c29 43 84 83 140 83
c79 0 118 -38 118 -129v-366z" />
    <glyph glyph-name="fi" unicode="fi" horiz-adv-x="431" 
d="M137 0h-51v438h-64v45h64v69c0 78 43 125 108 125c21 0 39 -4 54 -14l-16 -40c-8 6 -18 10 -32 10c-41 0 -63 -30 -63 -81v-69h83v-45h-83v-438zM335 559c-21 0 -39 18 -39 39c0 22 18 39 39 39s39 -17 39 -39c0 -21 -18 -39 -39 -39zM360 0h-50v483h50v-483z" />
    <glyph glyph-name="f_j" unicode="fj" horiz-adv-x="431" 
d="M137 0h-51v438h-64v45h64v69c0 78 43 125 108 125c21 0 39 -4 54 -14l-16 -40c-8 6 -18 10 -32 10c-41 0 -63 -30 -63 -81v-69h83v-45h-83v-438zM335 559c-21 0 -39 18 -39 39c0 22 18 39 39 39s39 -17 39 -39c0 -21 -18 -39 -39 -39zM254 -196c-35 0 -58 12 -78 36
l25 36c11 -15 27 -28 50 -28c34 0 59 21 59 79v556h50v-556c0 -87 -39 -123 -106 -123z" />
    <glyph glyph-name="f_k" unicode="fk" horiz-adv-x="663" 
d="M137 0h-51v438h-64v45h64v69c0 78 43 125 108 125c21 0 39 -4 54 -14l-16 -40c-8 6 -18 10 -32 10c-41 0 -63 -30 -63 -81v-69h83v-45h-83v-438zM643 0h-61l-146 230l-76 -94v-136h-50v667h50v-465l224 281h61l-175 -218z" />
    <glyph glyph-name="fl" unicode="fl" horiz-adv-x="431" 
d="M137 0h-51v438h-64v45h64v69c0 78 43 125 108 125c21 0 39 -4 54 -14l-16 -40c-8 6 -18 10 -32 10c-41 0 -63 -30 -63 -81v-69h83v-45h-83v-438zM360 0h-50v667h50v-667z" />
    <glyph glyph-name="f_f_i" unicode="ffi" horiz-adv-x="670" 
d="M376 0h-51v438h-64v45h64v69c0 78 43 125 108 125c21 0 39 -4 54 -14l-16 -40c-8 6 -18 10 -32 10c-41 0 -63 -30 -63 -81v-69h83v-45h-83v-438zM574 559c-21 0 -39 18 -39 39c0 22 18 39 39 39s39 -17 39 -39c0 -21 -18 -39 -39 -39zM599 0h-50v483h50v-483zM137 0h-51
v438h-64v45h64v69c0 77 42 125 111 125c28 0 54 -8 77 -30l-23 -38c-14 16 -30 24 -49 24c-44 0 -65 -30 -65 -81v-69h83v-45h-83v-438z" />
    <glyph glyph-name="f_f_j" unicode="ffj" horiz-adv-x="670" 
d="M376 0h-51v438h-64v45h64v69c0 78 43 125 108 125c21 0 39 -4 54 -14l-16 -40c-8 6 -18 10 -32 10c-41 0 -63 -30 -63 -81v-69h83v-45h-83v-438zM574 559c-21 0 -39 18 -39 39c0 22 18 39 39 39s39 -17 39 -39c0 -21 -18 -39 -39 -39zM493 -196c-35 0 -58 12 -78 36
l25 36c11 -15 27 -28 50 -28c34 0 59 21 59 79v556h50v-556c0 -87 -39 -123 -106 -123zM137 0h-51v438h-64v45h64v69c0 77 42 125 111 125c28 0 54 -8 77 -30l-23 -38c-14 16 -30 24 -49 24c-44 0 -65 -30 -65 -81v-69h83v-45h-83v-438z" />
    <glyph glyph-name="f_f_l" unicode="ffl" horiz-adv-x="670" 
d="M376 0h-51v438h-64v45h64v69c0 78 43 125 108 125c21 0 39 -4 54 -14l-16 -40c-8 6 -18 10 -32 10c-41 0 -63 -30 -63 -81v-69h83v-45h-83v-438zM599 0h-50v667h50v-667zM137 0h-51v438h-64v45h64v69c0 77 42 125 111 125c28 0 54 -8 77 -30l-23 -38
c-14 16 -30 24 -49 24c-44 0 -65 -30 -65 -81v-69h83v-45h-83v-438z" />
    <glyph glyph-name=".notdef" horiz-adv-x="501" 
d="M426 -90h-351v842h351v-842zM394 -60v782h-288v-782h288z" />
    <glyph glyph-name=".null" horiz-adv-x="0" 
 />
    <glyph glyph-name=".null" horiz-adv-x="0" 
 />
    <glyph glyph-name="CR" unicode="&#xd;" horiz-adv-x="0" 
 />
    <glyph glyph-name="space" unicode=" " horiz-adv-x="218" 
 />
    <glyph glyph-name="nbspace" unicode="&#xa0;" horiz-adv-x="218" 
 />
    <glyph glyph-name="thinspace" unicode="&#x2009;" horiz-adv-x="43" 
 />
    <glyph glyph-name="zero" unicode="0" horiz-adv-x="502" 
d="M251 -12c-152 0 -198 190 -198 345c0 156 46 344 198 344c151 0 198 -188 198 -344c0 -155 -46 -345 -198 -345zM251 39c113 0 139 162 139 294c0 133 -26 293 -139 293s-140 -160 -140 -293c0 -132 26 -294 140 -294z" />
    <glyph glyph-name="zero.pzero" horiz-adv-x="502" 
d="M251 -12c-52 0 -91 22 -121 57l-22 -45h-47l42 85c-37 69 -50 163 -50 248c0 156 46 344 198 344c51 0 90 -22 119 -56l23 46h47l-43 -86c38 -68 52 -163 52 -248c0 -155 -46 -345 -198 -345zM251 39c113 0 139 162 139 294c0 62 -6 131 -24 186l-210 -422
c22 -36 52 -58 95 -58zM111 333c0 -62 5 -131 23 -186l210 422c-21 35 -51 57 -93 57c-113 0 -140 -160 -140 -293z" />
    <glyph glyph-name="one" unicode="1" horiz-adv-x="288" 
d="M212 0h-55v592l-104 -113l-35 36l144 152h50v-667z" />
    <glyph glyph-name="two" unicode="2" horiz-adv-x="476" 
d="M409 0h-353v46c207 257 294 350 294 458c0 79 -56 122 -116 122c-64 0 -111 -32 -140 -87l-41 32c40 67 99 106 181 106c91 0 173 -61 173 -173c0 -117 -92 -223 -274 -454h276v-50z" />
    <glyph glyph-name="three" unicode="3" horiz-adv-x="456" 
d="M217 -12c-89 0 -153 52 -185 112l41 31c29 -53 76 -92 143 -92c86 0 130 55 130 143c0 103 -67 136 -137 136c-19 0 -40 0 -49 -1v53c10 -1 31 -1 49 -1c69 0 128 40 128 126c0 88 -52 131 -122 131c-62 0 -101 -33 -135 -84l-39 31c36 62 99 104 177 104
c98 0 176 -58 176 -176c0 -85 -59 -141 -116 -156c55 -9 124 -68 124 -166c0 -109 -63 -191 -185 -191z" />
    <glyph glyph-name="four" unicode="4" horiz-adv-x="439" 
d="M340 0h-56v183h-260v51l244 433h72v-434h75v-50h-75v-183zM284 233v369l-207 -369h207z" />
    <glyph glyph-name="five" unicode="5" horiz-adv-x="476" 
d="M242 -12c-96 0 -147 44 -184 111l41 32c31 -60 73 -92 142 -92c77 0 127 75 127 162c0 107 -50 164 -123 164c-48 0 -86 -17 -125 -65l-43 18v349h314v-50h-259v-261c26 33 71 59 124 59c94 0 169 -74 169 -213c0 -122 -78 -214 -183 -214z" />
    <glyph glyph-name="six" unicode="6" horiz-adv-x="478" 
d="M249 -12c-151 0 -196 171 -196 345c0 170 51 344 208 344c70 0 118 -35 149 -88l-35 -37c-25 45 -56 74 -114 74c-116 0 -151 -160 -151 -295v-23c23 48 78 104 150 104c95 0 170 -69 170 -211c0 -107 -61 -213 -181 -213zM247 39c89 0 125 84 125 160
c0 118 -53 163 -123 163c-61 0 -110 -55 -137 -115c5 -81 33 -208 135 -208z" />
    <glyph glyph-name="seven" unicode="7" horiz-adv-x="403" 
d="M160 0h-60l213 617h-285v50h347v-38z" />
    <glyph glyph-name="eight" unicode="8" horiz-adv-x="470" 
d="M235 -12c-110 0 -184 68 -184 174c0 91 71 157 135 182c-59 22 -126 78 -126 165c0 113 85 168 175 168s176 -55 176 -168c0 -87 -67 -143 -126 -165c64 -25 134 -91 134 -182c0 -106 -74 -174 -184 -174zM235 367c27 6 119 44 119 137c0 76 -49 122 -119 122
s-118 -46 -118 -122c0 -93 92 -131 118 -137zM235 39c69 0 127 46 127 128c0 99 -99 150 -127 154c-28 -4 -127 -55 -127 -155c0 -81 58 -127 127 -127z" />
    <glyph glyph-name="nine" unicode="9" horiz-adv-x="478" 
d="M217 -11c-70 0 -119 35 -149 88l35 37c25 -45 56 -74 114 -74c117 0 151 160 151 294c0 11 0 15 -1 25c-22 -49 -78 -105 -149 -105c-95 0 -170 70 -170 212c0 105 60 212 180 212c152 0 197 -171 197 -345c0 -170 -52 -344 -208 -344zM228 304c62 0 111 55 137 115
c-4 81 -32 208 -135 208c-88 0 -125 -84 -125 -160c0 -118 54 -163 123 -163z" />
    <glyph glyph-name="zero.tnum" unicode="&#xf639;" horiz-adv-x="478" 
d="M239 -12c-152 0 -198 190 -198 345c0 156 46 344 198 344c151 0 198 -188 198 -344c0 -155 -46 -345 -198 -345zM239 39c113 0 139 162 139 294c0 133 -26 293 -139 293s-140 -160 -140 -293c0 -132 26 -294 140 -294z" />
    <glyph glyph-name="zero.tzero" unicode="&#xf638;" horiz-adv-x="478" 
d="M239 -12c-52 0 -91 22 -121 57l-22 -45h-47l42 85c-37 69 -50 163 -50 248c0 156 46 344 198 344c51 0 90 -22 119 -56l23 46h47l-43 -86c38 -68 52 -163 52 -248c0 -155 -46 -345 -198 -345zM239 39c113 0 139 162 139 294c0 62 -6 131 -24 186l-210 -422
c22 -36 52 -58 95 -58zM99 333c0 -62 5 -131 23 -186l210 422c-21 35 -51 57 -93 57c-113 0 -140 -160 -140 -293z" />
    <glyph glyph-name="one.tnum" unicode="&#xf6dc;" horiz-adv-x="478" 
d="M318 0h-55v592l-104 -113l-35 36l144 152h50v-667z" />
    <glyph glyph-name="two.tnum" unicode="&#xf63a;" horiz-adv-x="478" 
d="M415 0h-353v46c207 257 294 350 294 458c0 79 -56 122 -116 122c-64 0 -111 -32 -140 -87l-41 32c40 67 99 106 181 106c91 0 173 -61 173 -173c0 -117 -92 -223 -274 -454h276v-50z" />
    <glyph glyph-name="three.tnum" unicode="&#xf63b;" horiz-adv-x="478" 
d="M235 -12c-89 0 -153 52 -185 112l41 31c29 -53 76 -92 143 -92c86 0 130 55 130 143c0 103 -67 136 -137 136c-19 0 -40 0 -49 -1v53c10 -1 31 -1 49 -1c69 0 128 40 128 126c0 88 -52 131 -122 131c-62 0 -101 -33 -135 -84l-39 31c36 62 99 104 177 104
c98 0 176 -58 176 -176c0 -85 -59 -141 -116 -156c55 -9 124 -68 124 -166c0 -109 -63 -191 -185 -191z" />
    <glyph glyph-name="four.tnum" unicode="&#xf63c;" horiz-adv-x="478" 
d="M359 0h-56v183h-260v51l244 433h72v-434h75v-50h-75v-183zM303 233v369l-207 -369h207z" />
    <glyph glyph-name="five.tnum" unicode="&#xf63d;" horiz-adv-x="478" 
d="M243 -12c-96 0 -147 44 -184 111l41 32c31 -60 73 -92 142 -92c77 0 127 75 127 162c0 107 -50 164 -123 164c-48 0 -86 -17 -125 -65l-43 18v349h314v-50h-259v-261c26 33 71 59 124 59c94 0 169 -74 169 -213c0 -122 -78 -214 -183 -214z" />
    <glyph glyph-name="six.tnum" unicode="&#xf63e;" horiz-adv-x="478" 
d="M251 -12c-151 0 -196 171 -196 345c0 170 51 344 208 344c70 0 118 -35 149 -88l-35 -37c-25 45 -56 74 -114 74c-116 0 -151 -160 -151 -295v-23c23 48 78 104 150 104c95 0 170 -69 170 -211c0 -107 -61 -213 -181 -213zM249 39c89 0 125 84 125 160
c0 118 -53 163 -123 163c-61 0 -110 -55 -137 -115c5 -81 33 -208 135 -208z" />
    <glyph glyph-name="seven.tnum" unicode="&#xf63f;" horiz-adv-x="478" 
d="M198 0h-60l213 617h-285v50h347v-38z" />
    <glyph glyph-name="eight.tnum" unicode="&#xf640;" horiz-adv-x="478" 
d="M239 -12c-110 0 -184 68 -184 174c0 91 71 157 135 182c-59 22 -126 78 -126 165c0 113 85 168 175 168s176 -55 176 -168c0 -87 -67 -143 -126 -165c64 -25 134 -91 134 -182c0 -106 -74 -174 -184 -174zM239 367c27 6 119 44 119 137c0 76 -49 122 -119 122
s-118 -46 -118 -122c0 -93 92 -131 118 -137zM239 39c69 0 127 46 127 128c0 99 -99 150 -127 154c-28 -4 -127 -55 -127 -155c0 -81 58 -127 127 -127z" />
    <glyph glyph-name="nine.tnum" unicode="&#xf641;" horiz-adv-x="478" 
d="M216 -11c-70 0 -119 35 -149 88l35 37c25 -45 56 -74 114 -74c117 0 151 160 151 294c0 11 0 15 -1 25c-22 -49 -78 -105 -149 -105c-95 0 -170 70 -170 212c0 105 60 212 180 212c152 0 197 -171 197 -345c0 -170 -52 -344 -208 -344zM227 304c62 0 111 55 137 115
c-4 81 -32 208 -135 208c-88 0 -125 -84 -125 -160c0 -118 54 -163 123 -163z" />
    <glyph glyph-name="zero.tonum" unicode="&#xf643;" horiz-adv-x="478" 
d="M437 275c0 -129 -49 -287 -198 -287s-198 158 -198 287c0 130 49 287 198 287s198 -157 198 -287zM378 275c0 103 -29 236 -139 236s-140 -133 -140 -236s30 -236 140 -236s139 133 139 236z" />
    <glyph glyph-name="zero.tonumzero" horiz-adv-x="478" 
d="M437 275c0 -129 -49 -287 -198 -287c-50 0 -89 18 -119 46l-19 -34h-46l38 67c-38 58 -52 137 -52 208c0 130 49 287 198 287c48 0 85 -16 114 -43l18 31h45l-36 -62c41 -57 57 -140 57 -213zM378 275c0 52 -8 112 -29 158l-201 -349c21 -28 51 -45 91 -45
c110 0 139 133 139 236zM99 275c0 -50 7 -107 26 -152l200 348c-20 24 -49 40 -86 40c-110 0 -140 -133 -140 -236z" />
    <glyph glyph-name="one.tonum" unicode="&#xf644;" horiz-adv-x="478" 
d="M318 0h-55v475l-104 -113l-35 36l144 152h50v-550z" />
    <glyph glyph-name="two.tonum" unicode="&#xf645;" horiz-adv-x="478" 
d="M402 0h-334v47c211 148 287 251 287 340c0 73 -51 124 -115 124c-63 0 -113 -31 -143 -86l-41 31c39 68 104 106 185 106c98 0 171 -69 171 -169c0 -99 -80 -213 -254 -343h244v-50z" />
    <glyph glyph-name="three.tonum" unicode="&#xf646;" horiz-adv-x="478" 
d="M235 -131c-89 0 -153 52 -185 112l41 31c29 -53 76 -92 143 -92c86 0 130 55 130 143c0 103 -67 136 -137 136c-19 0 -40 0 -49 -1v53c10 -1 31 -1 49 -1c69 0 128 40 128 126c0 88 -52 131 -122 131c-62 0 -101 -33 -135 -84l-39 31c36 62 99 104 177 104
c98 0 176 -58 176 -176c0 -85 -59 -141 -116 -156c55 -9 124 -68 124 -166c0 -109 -63 -191 -185 -191z" />
    <glyph glyph-name="four.tonum" unicode="&#xf647;" horiz-adv-x="478" 
d="M434 67h-75v-184h-56v184h-260v52l244 431h72v-433h75v-50zM303 117v368l-207 -368h207z" />
    <glyph glyph-name="five.tonum" unicode="&#xf648;" horiz-adv-x="478" 
d="M243 -129c-96 0 -147 44 -184 111l41 32c31 -60 73 -92 142 -92c77 0 127 75 127 162c0 107 -50 164 -123 164c-48 0 -86 -17 -125 -65l-43 18v349h314v-50h-259v-261c26 33 71 59 124 59c94 0 169 -74 169 -213c0 -122 -78 -214 -183 -214z" />
    <glyph glyph-name="six.tonum" unicode="&#xf649;" horiz-adv-x="478" 
d="M251 -12c-151 0 -196 171 -196 345c0 170 51 344 208 344c70 0 118 -35 149 -88l-35 -37c-25 45 -56 74 -114 74c-116 0 -151 -160 -151 -295v-23c23 48 78 104 150 104c95 0 170 -69 170 -211c0 -107 -61 -213 -181 -213zM249 39c89 0 125 84 125 160
c0 118 -53 163 -123 163c-61 0 -110 -55 -137 -115c5 -81 33 -208 135 -208z" />
    <glyph glyph-name="seven.tonum" unicode="&#xf64a;" horiz-adv-x="478" 
d="M198 -117h-60l213 617h-285v50h347v-38z" />
    <glyph glyph-name="eight.tonum" unicode="&#xf64b;" horiz-adv-x="478" 
d="M239 -12c-110 0 -184 68 -184 174c0 91 71 157 135 182c-59 22 -126 78 -126 165c0 113 85 168 175 168s176 -55 176 -168c0 -87 -67 -143 -126 -165c64 -25 134 -91 134 -182c0 -106 -74 -174 -184 -174zM239 367c27 6 119 44 119 137c0 76 -49 122 -119 122
s-118 -46 -118 -122c0 -93 92 -131 118 -137zM239 39c69 0 127 46 127 128c0 99 -99 150 -127 154c-28 -4 -127 -55 -127 -155c0 -81 58 -127 127 -127z" />
    <glyph glyph-name="nine.tonum" unicode="&#xf64c;" horiz-adv-x="478" 
d="M216 -127c-70 0 -119 35 -149 88l35 37c25 -45 56 -74 114 -74c117 0 151 160 151 294c0 11 0 15 -1 25c-22 -49 -78 -105 -149 -105c-95 0 -170 70 -170 212c0 105 60 212 180 212c152 0 197 -171 197 -345c0 -170 -52 -344 -208 -344zM227 188c62 0 111 55 137 115
c-4 81 -32 208 -135 208c-88 0 -125 -84 -125 -160c0 -118 54 -163 123 -163z" />
    <glyph glyph-name="zero.onum" unicode="&#xf730;" horiz-adv-x="502" 
d="M449 275c0 -129 -49 -287 -198 -287s-198 158 -198 287c0 130 49 287 198 287s198 -157 198 -287zM390 275c0 103 -29 236 -139 236s-140 -133 -140 -236s30 -236 140 -236s139 133 139 236z" />
    <glyph glyph-name="zero.onumzero" horiz-adv-x="502" 
d="M449 275c0 -129 -49 -287 -198 -287c-50 0 -89 18 -119 46l-19 -34h-46l38 67c-38 58 -52 137 -52 208c0 130 49 287 198 287c48 0 85 -16 114 -43l18 31h45l-36 -62c41 -57 57 -140 57 -213zM390 275c0 52 -8 112 -29 158l-201 -349c21 -28 51 -45 91 -45
c110 0 139 133 139 236zM111 275c0 -50 7 -107 26 -152l200 348c-20 24 -49 40 -86 40c-110 0 -140 -133 -140 -236z" />
    <glyph glyph-name="one.onum" unicode="&#xf731;" horiz-adv-x="288" 
d="M212 0h-55v475l-104 -113l-35 36l144 152h50v-550z" />
    <glyph glyph-name="two.onum" unicode="&#xf732;" horiz-adv-x="471" 
d="M394 0h-334v47c211 148 287 251 287 340c0 73 -51 124 -115 124c-63 0 -113 -31 -143 -86l-41 31c39 68 104 106 185 106c98 0 171 -69 171 -169c0 -99 -80 -213 -254 -343h244v-50z" />
    <glyph glyph-name="three.onum" unicode="&#xf733;" horiz-adv-x="455" 
d="M216 -128c-89 0 -153 52 -185 112l41 31c29 -53 76 -92 143 -92c86 0 130 55 130 143c0 103 -67 136 -137 136c-19 0 -40 0 -49 -1v53c10 -1 31 -1 49 -1c69 0 128 40 128 126c0 88 -52 131 -122 131c-62 0 -101 -33 -135 -84l-39 31c36 62 99 104 177 104
c98 0 176 -58 176 -176c0 -85 -59 -141 -116 -156c55 -9 124 -68 124 -166c0 -109 -63 -191 -185 -191z" />
    <glyph glyph-name="four.onum" unicode="&#xf734;" horiz-adv-x="439" 
d="M415 67h-75v-184h-56v184h-260v52l244 431h72v-433h75v-50zM284 117v368l-207 -368h207z" />
    <glyph glyph-name="five.onum" unicode="&#xf735;" horiz-adv-x="476" 
d="M242 -129c-96 0 -147 44 -184 111l41 32c31 -60 73 -92 142 -92c77 0 127 75 127 162c0 107 -50 164 -123 164c-48 0 -86 -17 -125 -65l-43 18v349h314v-50h-259v-261c26 33 71 59 124 59c94 0 169 -74 169 -213c0 -122 -78 -214 -183 -214z" />
    <glyph glyph-name="six.onum" unicode="&#xf736;" horiz-adv-x="478" 
d="M249 -12c-151 0 -196 171 -196 345c0 170 51 344 208 344c70 0 118 -35 149 -88l-35 -37c-25 45 -56 74 -114 74c-116 0 -151 -160 -151 -295v-23c23 48 78 104 150 104c95 0 170 -69 170 -211c0 -107 -61 -213 -181 -213zM247 39c89 0 125 84 125 160
c0 118 -53 163 -123 163c-61 0 -110 -55 -137 -115c5 -81 33 -208 135 -208z" />
    <glyph glyph-name="seven.onum" unicode="&#xf737;" horiz-adv-x="403" 
d="M160 -117h-60l213 617h-285v50h347v-38z" />
    <glyph glyph-name="eight.onum" unicode="&#xf738;" horiz-adv-x="470" 
d="M235 -12c-110 0 -184 68 -184 174c0 91 71 157 135 182c-59 22 -126 78 -126 165c0 113 85 168 175 168s176 -55 176 -168c0 -87 -67 -143 -126 -165c64 -25 134 -91 134 -182c0 -106 -74 -174 -184 -174zM235 367c27 6 119 44 119 137c0 76 -49 122 -119 122
s-118 -46 -118 -122c0 -93 92 -131 118 -137zM235 39c69 0 127 46 127 128c0 99 -99 150 -127 154c-28 -4 -127 -55 -127 -155c0 -81 58 -127 127 -127z" />
    <glyph glyph-name="nine.onum" unicode="&#xf739;" horiz-adv-x="478" 
d="M217 -128c-70 0 -119 35 -149 88l35 37c25 -45 56 -74 114 -74c117 0 151 160 151 294c0 11 0 15 -1 25c-22 -49 -78 -105 -149 -105c-95 0 -170 70 -170 212c0 105 60 212 180 212c152 0 197 -171 197 -345c0 -170 -52 -344 -208 -344zM228 187c62 0 111 55 137 115
c-4 81 -32 208 -135 208c-88 0 -125 -84 -125 -160c0 -118 54 -163 123 -163z" />
    <glyph glyph-name="A" unicode="A" horiz-adv-x="492" 
d="M480 0h-60l-48 165h-251l-48 -165h-61l201 667h66zM359 215l-113 387l-113 -387h226z" />
    <glyph glyph-name="B" unicode="B" horiz-adv-x="498" 
d="M277 0h-202v667h197c99 0 161 -64 161 -170c0 -84 -44 -137 -100 -153c63 -10 111 -86 111 -164c0 -111 -59 -180 -167 -180zM265 367c77 0 109 55 109 124s-32 126 -109 126h-134v-250h134zM269 50c78 0 116 52 116 134c0 69 -36 133 -116 133h-138v-267h138z" />
    <glyph glyph-name="C" unicode="C" horiz-adv-x="523" 
d="M302 -12c-153 0 -249 147 -249 345c0 199 96 345 249 345c90 0 146 -52 184 -117l-47 -24c-30 55 -76 90 -137 90c-116 0 -191 -124 -191 -294c0 -169 75 -294 191 -294c64 0 110 42 138 100l48 -24c-38 -72 -94 -127 -186 -127z" />
    <glyph glyph-name="D" unicode="D" horiz-adv-x="549" 
d="M237 0h-162v667h162c168 0 259 -146 259 -334c0 -190 -91 -333 -259 -333zM237 50c134 0 200 124 200 283s-66 284 -200 284h-106v-567h106z" />
    <glyph glyph-name="E" unicode="E" horiz-adv-x="452" 
d="M401 0h-326v667h326v-50h-270v-250h263v-50h-263v-267h270v-50z" />
    <glyph glyph-name="F" unicode="F" horiz-adv-x="441" 
d="M131 0h-56v667h326v-50h-270v-250h263v-50h-263v-317z" />
    <glyph glyph-name="G" unicode="G" horiz-adv-x="552" 
d="M302 -13c-150 0 -249 141 -249 346c0 206 99 345 249 345c90 0 148 -49 188 -115l-45 -24c-31 53 -79 88 -143 88c-116 0 -191 -123 -191 -294c0 -170 75 -295 191 -295c62 0 110 31 136 64v178h-174v51h228v-250c-45 -59 -112 -94 -190 -94z" />
    <glyph glyph-name="G.alt1" horiz-adv-x="556" 
d="M300 -13c-148 0 -247 141 -247 346c0 206 99 345 249 345c90 0 148 -49 188 -115l-45 -24c-31 53 -79 88 -143 88c-116 0 -191 -123 -191 -294c0 -170 75 -295 191 -295c112 0 162 115 169 242h-207v51h265c0 -209 -73 -344 -229 -344z" />
    <glyph glyph-name="H" unicode="H" horiz-adv-x="559" 
d="M484 0h-55v318h-298v-318h-56v667h56v-299h298v299h55v-667z" />
    <glyph glyph-name="I" unicode="I" horiz-adv-x="206" 
d="M131 0h-56v667h56v-667z" />
    <glyph glyph-name="J" unicode="J" horiz-adv-x="390" 
d="M148 -12c-56 0 -101 19 -138 66l31 42c26 -35 59 -57 104 -57c71 0 114 45 114 124v504h56v-505c0 -119 -72 -174 -167 -174z" />
    <glyph glyph-name="K" unicode="K" horiz-adv-x="490" 
d="M471 0h-68l-213 309l-59 -84v-225h-56v667h56v-364l253 364h67l-227 -318z" />
    <glyph glyph-name="L" unicode="L" horiz-adv-x="412" 
d="M380 0h-305v667h56v-617h249v-50z" />
    <glyph glyph-name="M" unicode="M" horiz-adv-x="661" 
d="M586 0h-55v571l-189 -571h-23l-188 571v-571h-56v667h81l175 -526l175 526h80v-667z" />
    <glyph glyph-name="N" unicode="N" horiz-adv-x="557" 
d="M482 0h-54l-297 546v-546h-56v667h56l295 -538v538h56v-667z" />
    <glyph glyph-name="O" unicode="O" horiz-adv-x="590" 
d="M295 -12c-157 0 -242 154 -242 345s85 345 242 345c156 0 242 -154 242 -345s-86 -345 -242 -345zM295 39c118 0 183 132 183 294c0 164 -65 294 -183 294c-119 0 -184 -130 -184 -294c0 -162 65 -294 184 -294z" />
    <glyph glyph-name="P" unicode="P" horiz-adv-x="468" 
d="M131 0h-56v667h184c116 0 175 -90 175 -195c0 -104 -60 -194 -175 -194h-128v-278zM255 328c76 0 120 60 120 144c0 85 -44 145 -120 145h-124v-289h124z" />
    <glyph glyph-name="Q" unicode="Q" horiz-adv-x="590" 
d="M295 -12c-157 0 -242 154 -242 345s85 345 242 345c156 0 242 -154 242 -345c0 -112 -30 -211 -86 -274l42 -63l-41 -27l-38 56c-33 -24 -73 -37 -119 -37zM295 39c34 0 65 11 90 31l-85 129l42 27l77 -118c38 54 59 135 59 225c0 164 -65 294 -183 294
c-119 0 -184 -130 -184 -294c0 -162 65 -294 184 -294z" />
    <glyph glyph-name="R" unicode="R" horiz-adv-x="491" 
d="M441 0h-64l-140 278h-106v-278h-56v667h185c100 0 174 -72 174 -194c0 -121 -69 -179 -140 -188zM255 328c76 0 121 60 121 144c0 85 -45 145 -121 145h-124v-289h124z" />
    <glyph glyph-name="S" unicode="S" horiz-adv-x="459" 
d="M222 -12c-81 0 -145 33 -187 83l34 43c32 -42 87 -75 153 -75c94 0 135 60 135 124c0 181 -303 138 -303 348c0 101 80 167 179 167c71 0 127 -25 167 -69l-31 -42c-36 42 -83 60 -137 60c-67 0 -121 -45 -121 -114c0 -156 303 -124 303 -347c0 -91 -58 -178 -192 -178z
" />
    <glyph glyph-name="T" unicode="T" horiz-adv-x="435" 
d="M245 0h-56v617h-162v50h381v-50h-163v-617z" />
    <glyph glyph-name="U" unicode="U" horiz-adv-x="551" 
d="M276 -12c-128 0 -201 78 -201 222v457h56v-458c0 -114 53 -171 145 -171c91 0 144 57 144 171v458h56v-457c0 -144 -73 -222 -200 -222z" />
    <glyph glyph-name="V" unicode="V" horiz-adv-x="492" 
d="M279 0h-66l-201 667h61l173 -598l174 598h60z" />
    <glyph glyph-name="W" unicode="W" horiz-adv-x="693" 
d="M526 0h-61l-119 562l-118 -562h-61l-147 667h60l119 -578l122 578h51l122 -578l119 578h60z" />
    <glyph glyph-name="X" unicode="X" horiz-adv-x="491" 
d="M479 0h-65l-168 293l-168 -293h-66l201 340l-190 327h67l156 -278l156 278h66l-189 -326z" />
    <glyph glyph-name="Y" unicode="Y" horiz-adv-x="483" 
d="M269 0h-55v286l-206 381h64l169 -325l171 325h63l-206 -381v-286z" />
    <glyph glyph-name="Z" unicode="Z" horiz-adv-x="453" 
d="M410 0h-368v49l296 568h-296v50h361v-48l-297 -569h304v-50z" />
    <glyph glyph-name="a" unicode="a" horiz-adv-x="440" 
d="M369 0h-51v54c-32 -46 -78 -66 -127 -66c-79 0 -145 62 -145 161c0 100 66 160 145 160c49 0 95 -19 127 -64v94c0 72 -37 112 -102 112c-47 0 -85 -18 -123 -62l-26 36c44 48 94 70 154 70c92 0 148 -48 148 -152v-343zM205 27c45 0 88 22 113 68v106
c-25 47 -68 68 -113 68c-67 0 -106 -55 -106 -121s39 -121 106 -121z" />
    <glyph glyph-name="a.alt1" 
d="M398 0h-50v72c-28 -49 -77 -84 -129 -84c-109 0 -171 103 -171 253c0 148 62 254 171 254c50 0 99 -30 128 -86v74h51v-483zM228 33c51 0 100 42 120 89v237c-20 47 -69 90 -120 90c-87 0 -126 -95 -126 -208s39 -208 126 -208z" />
    <glyph glyph-name="b" unicode="b" 
d="M121 122c20 -47 69 -89 120 -89c87 0 126 95 126 208s-39 209 -126 209c-51 0 -100 -44 -120 -91v-237zM121 0h-50v667h50v-258c30 56 79 86 129 86c109 0 171 -106 171 -254c0 -150 -62 -253 -171 -253c-52 0 -101 35 -129 84v-72z" />
    <glyph glyph-name="c" unicode="c" horiz-adv-x="400" 
d="M239 -12c-121 0 -191 113 -191 254s70 253 191 253c63 0 100 -26 131 -64l-30 -34c-28 38 -60 53 -98 53c-94 0 -140 -97 -140 -208s46 -209 140 -209c38 0 70 15 98 53l30 -34c-31 -40 -68 -64 -131 -64z" />
    <glyph glyph-name="d" unicode="d" 
d="M398 0h-50v72c-28 -49 -77 -84 -129 -84c-109 0 -171 103 -171 253c0 148 62 254 171 254c50 0 99 -30 129 -86v258h50v-667zM228 33c51 0 100 42 120 89v238c-20 46 -69 90 -120 90c-87 0 -126 -96 -126 -209s39 -208 126 -208z" />
    <glyph glyph-name="e" unicode="e" horiz-adv-x="463" 
d="M247 -12c-126 0 -199 108 -199 254c0 140 70 253 187 253c125 0 183 -117 183 -254v-16h-316c2 -110 56 -194 148 -194c45 0 88 23 119 65l31 -29c-38 -49 -88 -79 -153 -79zM367 265c-1 83 -37 187 -133 187c-93 0 -131 -107 -133 -187h266z" />
    <glyph glyph-name="f" unicode="f" horiz-adv-x="239" 
d="M137 0h-51v438h-64v45h64v69c0 77 42 125 111 125c28 0 54 -8 77 -30l-23 -38c-14 16 -30 24 -49 24c-44 0 -65 -30 -65 -81v-69h83v-45h-83v-438z" />
    <glyph glyph-name="f.alt1" horiz-adv-x="239" 
d="M137 0h-51v438h-64v45h64v69c0 78 43 125 108 125c21 0 39 -4 54 -14l-16 -40c-8 6 -18 10 -32 10c-41 0 -63 -30 -63 -81v-69h83v-45h-83v-438z" />
    <glyph glyph-name="g" unicode="g" 
d="M222 -196c-63 0 -110 14 -155 60l27 41c32 -38 73 -57 126 -57c72 0 127 41 127 139v89c-27 -49 -76 -86 -128 -86c-109 0 -171 102 -171 252c0 148 62 253 171 253c50 0 99 -30 128 -86v74h51v-494c0 -136 -78 -185 -176 -185zM228 35c51 0 100 44 119 90v235
c-19 46 -68 90 -119 90c-87 0 -126 -95 -126 -208s39 -207 126 -207z" />
    <glyph glyph-name="h" unicode="h" horiz-adv-x="450" 
d="M379 0h-50v356c0 70 -32 94 -84 94c-50 0 -100 -41 -124 -85v-365h-50v667h50v-255c29 43 84 83 140 83c79 0 118 -38 118 -129v-366z" />
    <glyph glyph-name="i" unicode="i" horiz-adv-x="192" 
d="M96 559c-21 0 -39 18 -39 39c0 22 18 39 39 39s39 -17 39 -39c0 -21 -18 -39 -39 -39zM121 0h-50v483h50v-483z" />
    <glyph glyph-name="j" unicode="j" horiz-adv-x="192" 
d="M96 559c-21 0 -39 18 -39 39c0 22 18 39 39 39s39 -17 39 -39c0 -21 -18 -39 -39 -39zM15 -196c-35 0 -58 12 -78 36l25 36c11 -15 27 -28 50 -28c34 0 59 21 59 79v556h50v-556c0 -87 -39 -123 -106 -123z" />
    <glyph glyph-name="k" unicode="k" horiz-adv-x="424" 
d="M404 0h-61l-146 230l-76 -94v-136h-50v667h50v-465l224 281h61l-175 -218z" />
    <glyph glyph-name="l" unicode="l" horiz-adv-x="192" 
d="M121 0h-50v667h50v-667z" />
    <glyph glyph-name="l.alt1" horiz-adv-x="226" 
d="M155 -12c-58 0 -84 35 -84 101v578h50v-572c0 -39 12 -62 42 -62c18 0 34 9 44 22l20 -37c-17 -18 -38 -30 -72 -30z" />
    <glyph glyph-name="m" unicode="m" horiz-adv-x="669" 
d="M599 0h-51v360c0 58 -23 90 -73 90c-46 0 -93 -41 -115 -85v-365h-51v360c0 58 -23 90 -73 90c-46 0 -92 -42 -115 -85v-365h-50v483h50v-71c21 37 74 83 131 83c62 0 98 -37 105 -87c24 45 77 87 134 87c70 0 108 -39 108 -125v-370z" />
    <glyph glyph-name="n" unicode="n" horiz-adv-x="450" 
d="M379 0h-51v355c0 70 -31 95 -83 95c-51 0 -100 -41 -124 -85v-365h-50v483h50v-71c29 43 83 83 140 83c79 0 118 -41 118 -130v-365z" />
    <glyph glyph-name="o" unicode="o" 
d="M234 -12c-122 0 -186 117 -186 254s64 253 186 253c124 0 187 -116 187 -253s-63 -254 -187 -254zM234 33c93 0 133 104 133 209c0 104 -40 208 -133 208c-91 0 -132 -104 -132 -208c0 -105 41 -209 132 -209z" />
    <glyph glyph-name="p" unicode="p" horiz-adv-x="467" 
d="M250 -12c-50 0 -99 30 -129 86v-258h-50v667h50v-72c28 49 77 84 129 84c109 0 171 -103 171 -253c0 -149 -62 -254 -171 -254zM241 33c87 0 126 96 126 209s-39 208 -126 208c-51 0 -100 -42 -120 -89v-238c20 -46 69 -90 120 -90z" />
    <glyph glyph-name="q" unicode="q" horiz-adv-x="467" 
d="M226 33c51 0 100 44 120 90v238c-20 47 -69 89 -120 89c-87 0 -126 -95 -126 -208s39 -209 126 -209zM217 -12c-109 0 -171 105 -171 254c0 150 62 253 171 253c52 0 102 -35 129 -84v72h51v-667h-51v258c-30 -56 -78 -86 -129 -86z" />
    <glyph glyph-name="r" unicode="r" horiz-adv-x="278" 
d="M121 0h-50v483h50v-82c33 54 77 92 139 92v-55c-7 1 -14 1 -22 1c-47 0 -97 -43 -117 -87v-352z" />
    <glyph glyph-name="s" unicode="s" horiz-adv-x="377" 
d="M185 -12c-65 0 -114 21 -153 68l29 36c27 -35 69 -61 123 -61c61 0 102 36 102 89c0 127 -241 89 -241 252c0 69 56 123 144 123c62 0 107 -25 138 -62l-27 -35c-25 35 -64 54 -111 54c-59 0 -95 -35 -95 -79c0 -117 241 -81 241 -252c0 -77 -58 -133 -150 -133z" />
    <glyph glyph-name="t" unicode="t" horiz-adv-x="249" 
d="M167 -12c-57 0 -84 35 -84 101v349h-66v45h66v132h50v-132h83v-45h-83v-343c0 -39 12 -62 42 -62c18 0 34 9 44 22l20 -37c-17 -18 -37 -30 -72 -30z" />
    <glyph glyph-name="u" unicode="u" horiz-adv-x="450" 
d="M379 0h-51v69c-30 -44 -81 -81 -139 -81c-79 0 -118 38 -118 129v366h50v-356c0 -70 32 -94 83 -94s101 39 124 83v367h51v-483z" />
    <glyph glyph-name="v" unicode="v" horiz-adv-x="392" 
d="M224 0h-57l-157 483h56l130 -423l130 423h56z" />
    <glyph glyph-name="w" unicode="w" horiz-adv-x="616" 
d="M469 0h-50l-111 414l-111 -414h-50l-130 483h54l103 -411l109 411h49l110 -411l103 411h54z" />
    <glyph glyph-name="x" unicode="x" horiz-adv-x="393" 
d="M376 0h-58l-122 208l-122 -208h-57l149 246l-141 237h58l113 -198l114 198h58l-141 -237z" />
    <glyph glyph-name="y" unicode="y" horiz-adv-x="392" 
d="M40 -189l9 46c9 -5 24 -8 32 -8c28 0 44 13 59 54l29 87l-159 493h56l130 -421l130 421h56l-195 -593c-21 -62 -55 -86 -104 -86c-14 0 -33 3 -43 7z" />
    <glyph glyph-name="y.alt1" horiz-adv-x="450" 
d="M212 -196c-62 0 -111 20 -148 60l27 41c32 -39 73 -57 120 -57c72 0 117 49 117 139v87c-30 -44 -81 -82 -139 -82c-79 0 -118 39 -118 129v362h50v-351c0 -70 32 -94 83 -94s101 39 124 82v363h51v-495c0 -124 -73 -184 -167 -184z" />
    <glyph glyph-name="z" unicode="z" horiz-adv-x="379" 
d="M332 0h-285v42l220 396h-220v45h281v-41l-221 -397h225v-45z" />
    <glyph glyph-name="A.smcp" unicode="&#xf761;" horiz-adv-x="426" 
d="M182 550h62l172 -550h-57l-41 134h-210l-40 -134h-58zM306 181l-93 304l-93 -304h186z" />
    <glyph glyph-name="B.smcp" unicode="&#xf762;" horiz-adv-x="430" 
d="M242 0h-171v550h167c87 0 141 -54 141 -141c0 -66 -35 -109 -80 -124c51 -15 89 -74 89 -136c0 -91 -51 -149 -146 -149zM236 47c64 0 96 41 96 105c0 55 -29 107 -96 107h-112v-212h112zM233 306c63 0 90 43 90 98c0 54 -27 99 -90 99h-109v-197h109z" />
    <glyph glyph-name="C.smcp" unicode="&#xf763;" horiz-adv-x="459" 
d="M266 -12c-135 0 -218 124 -218 287c0 164 83 287 218 287c76 0 128 -41 163 -101l-43 -21c-27 47 -69 74 -120 74c-100 0 -162 -102 -162 -239c0 -135 62 -239 162 -239c52 0 96 29 120 77l44 -21c-36 -63 -87 -104 -164 -104z" />
    <glyph glyph-name="D.smcp" unicode="&#xf764;" horiz-adv-x="490" 
d="M215 0h-144v550h144c146 0 227 -120 227 -276s-81 -274 -227 -274zM215 47c113 0 171 99 171 227s-58 229 -171 229h-91v-456h91z" />
    <glyph glyph-name="E.smcp" unicode="&#xf765;" horiz-adv-x="404" 
d="M356 0h-285v550h285v-47h-232v-197h226v-47h-226v-212h232v-47z" />
    <glyph glyph-name="F.smcp" unicode="&#xf766;" horiz-adv-x="393" 
d="M124 0h-53v550h285v-47h-232v-197h226v-47h-226v-259z" />
    <glyph glyph-name="G.smcp" unicode="&#xf767;" horiz-adv-x="493" 
d="M266 -12c-133 0 -218 118 -218 287c0 170 85 287 218 287c78 0 129 -41 165 -97l-41 -24c-28 44 -69 73 -124 73c-101 0 -162 -101 -162 -239c0 -137 61 -240 163 -240c52 0 93 25 115 51v144h-131v46h183v-210c-43 -51 -100 -78 -168 -78z" />
    <glyph glyph-name="G.smcp.alt1" horiz-adv-x="501" 
d="M265 -12c-132 0 -217 118 -217 287c0 170 85 287 218 287c78 0 129 -41 165 -97l-41 -24c-28 44 -69 73 -124 73c-101 0 -162 -101 -162 -239c0 -137 61 -240 162 -240c88 0 141 92 148 195h-163v46h217c0 -169 -71 -288 -203 -288z" />
    <glyph glyph-name="H.smcp" unicode="&#xf768;" horiz-adv-x="499" 
d="M428 0h-53v259h-251v-259h-53v550h53v-243h251v243h53v-550z" />
    <glyph glyph-name="I.smcp" unicode="&#xf769;" horiz-adv-x="195" 
d="M124 0h-53v550h53v-550z" />
    <glyph glyph-name="J.smcp" unicode="&#xf76a;" horiz-adv-x="344" 
d="M127 -12c-49 0 -89 19 -120 58l27 38c22 -29 52 -48 90 -48c60 0 96 36 96 100v414h54v-417c0 -100 -63 -145 -147 -145z" />
    <glyph glyph-name="K.smcp" unicode="&#xf76b;" horiz-adv-x="435" 
d="M419 0h-65l-182 251l-48 -66v-185h-53v550h53v-291l213 291h65l-198 -262z" />
    <glyph glyph-name="L.smcp" unicode="&#xf76c;" horiz-adv-x="369" 
d="M338 0h-267v550h53v-503h214v-47z" />
    <glyph glyph-name="M.smcp" unicode="&#xf76d;" horiz-adv-x="586" 
d="M515 0h-53v457l-157 -457h-24l-157 457v-457h-53v550h74l148 -430l148 430h74v-550z" />
    <glyph glyph-name="N.smcp" unicode="&#xf76e;" horiz-adv-x="496" 
d="M426 0h-55l-247 444v-444h-53v550h56l245 -437v437h54v-550z" />
    <glyph glyph-name="O.smcp" unicode="&#xf76f;" horiz-adv-x="521" 
d="M260 -12c-139 0 -212 129 -212 287s73 287 212 287s213 -129 213 -287s-74 -287 -213 -287zM260 36c103 0 157 108 157 239c0 132 -54 239 -157 239c-104 0 -156 -107 -156 -239c0 -131 52 -239 156 -239z" />
    <glyph glyph-name="P.smcp" unicode="&#xf770;" horiz-adv-x="410" 
d="M124 0h-53v550h157c103 0 152 -75 152 -162c0 -88 -49 -163 -152 -163h-104v-225zM224 272c68 0 100 50 100 116s-33 115 -100 115h-100v-231h100z" />
    <glyph glyph-name="Q.smcp" unicode="&#xf771;" horiz-adv-x="521" 
d="M260 -12c-139 0 -212 129 -212 287s73 287 212 287s213 -129 213 -287c0 -94 -26 -177 -76 -229l34 -52l-38 -24l-31 47c-29 -18 -63 -29 -102 -29zM260 36c28 0 54 8 75 23l-67 103l38 24l61 -94c33 44 50 110 50 183c0 132 -54 239 -157 239
c-104 0 -156 -107 -156 -239c0 -131 52 -239 156 -239z" />
    <glyph glyph-name="R.smcp" unicode="&#xf772;" horiz-adv-x="431" 
d="M388 0h-63l-117 225h-84v-225h-53v550h157c98 0 152 -70 152 -162c0 -91 -51 -148 -119 -156zM224 272c68 0 101 49 101 116c0 66 -35 115 -101 115h-100v-231h100z" />
    <glyph glyph-name="S.smcp" unicode="&#xf773;" horiz-adv-x="394" 
d="M194 -12c-71 0 -125 26 -165 71l32 39c30 -36 76 -63 132 -63c73 0 111 44 111 101c0 148 -257 110 -257 286c0 85 69 140 154 140c64 0 110 -21 147 -59l-29 -39c-31 36 -72 51 -117 51c-56 0 -99 -37 -99 -92c0 -127 257 -101 257 -286c0 -83 -57 -149 -166 -149z" />
    <glyph glyph-name="T.smcp" unicode="&#xf774;" horiz-adv-x="360" 
d="M207 0h-54v503h-131v47h317v-47h-132v-503z" />
    <glyph glyph-name="U.smcp" unicode="&#xf775;" horiz-adv-x="491" 
d="M246 -12c-118 0 -175 72 -175 194v368h53v-372c0 -91 41 -142 122 -142c79 0 121 51 121 142v372h54v-368c0 -122 -58 -194 -175 -194z" />
    <glyph glyph-name="V.smcp" unicode="&#xf776;" horiz-adv-x="426" 
d="M244 0h-62l-172 550h58l145 -480l146 480h57z" />
    <glyph glyph-name="W.smcp" unicode="&#xf777;" horiz-adv-x="602" 
d="M460 0h-57l-102 451l-103 -451h-57l-129 550h57l102 -460l106 460h48l105 -461l103 461h57z" />
    <glyph glyph-name="X.smcp" unicode="&#xf778;" horiz-adv-x="429" 
d="M419 0h-62l-143 237l-142 -237h-63l173 281l-164 269h63l133 -225l133 225h63l-163 -268z" />
    <glyph glyph-name="Y.smcp" unicode="&#xf779;" horiz-adv-x="423" 
d="M239 0h-53v235l-180 315h61l145 -262l144 262h60l-177 -315v-235z" />
    <glyph glyph-name="Z.smcp" unicode="&#xf77a;" horiz-adv-x="396" 
d="M361 0h-326v43l256 460h-256v47h320v-43l-257 -460h263v-47z" />
    <glyph glyph-name="Aacute" unicode="&#xc1;" horiz-adv-x="492" 
d="M480 0h-60l-48 165h-251l-48 -165h-61l201 667h66zM359 215l-113 387l-113 -387h226zM377 867l-135 -144h-39l116 144h58z" />
    <glyph glyph-name="Abreve" unicode="&#x102;" horiz-adv-x="492" 
d="M480 0h-60l-48 165h-251l-48 -165h-61l201 667h66zM359 215l-113 387l-113 -387h226zM393 789c-34 -45 -86 -74 -146 -74s-113 29 -147 74l29 24c26 -37 70 -61 118 -61c47 0 91 24 117 61z" />
    <glyph glyph-name="Acircumflex" unicode="&#xc2;" horiz-adv-x="492" 
d="M357 723h-36l-75 112l-72 -112h-36l82 144h52zM480 0h-60l-48 165h-251l-48 -165h-61l201 667h66zM359 215l-113 387l-113 -387h226z" />
    <glyph glyph-name="Adieresis" unicode="&#xc4;" horiz-adv-x="492" 
d="M367 768c0 -20 -16 -37 -36 -37s-37 17 -37 37s17 36 37 36s36 -16 36 -36zM199 768c0 -20 -16 -37 -36 -37s-36 17 -36 37s16 36 36 36s36 -16 36 -36zM480 0h-60l-48 165h-251l-48 -165h-61l201 667h66zM359 215l-113 387l-113 -387h226z" />
    <glyph glyph-name="Agrave" unicode="&#xc0;" horiz-adv-x="492" 
d="M480 0h-60l-48 165h-251l-48 -165h-61l201 667h66zM359 215l-113 387l-113 -387h226zM290 723h-39l-135 144h58z" />
    <glyph glyph-name="Amacron" unicode="&#x100;" horiz-adv-x="492" 
d="M480 0h-60l-48 165h-251l-48 -165h-61l201 667h66zM359 215l-113 387l-113 -387h226zM398 744h-304v37h304v-37z" />
    <glyph glyph-name="Aogonek" unicode="&#x104;" horiz-adv-x="492" 
d="M491 -114l30 -15c-10 -29 -33 -57 -76 -57c-42 0 -75 25 -75 79c0 41 22 79 55 107h-5l-48 165h-251l-48 -165h-61l201 667h66l201 -667c-43 -25 -74 -58 -74 -106c0 -33 16 -47 40 -47s37 14 45 39zM359 215l-113 387l-113 -387h226z" />
    <glyph glyph-name="Aring" unicode="&#xc5;" horiz-adv-x="492" 
d="M480 0h-60l-48 165h-251l-48 -165h-61l201 667h66zM359 215l-113 387l-113 -387h226zM247 692c-48 0 -88 39 -88 88c0 48 40 88 88 88c49 0 87 -40 87 -88c0 -49 -38 -88 -87 -88zM247 722c32 0 57 26 57 58c0 31 -25 57 -57 57c-31 0 -57 -26 -57 -57
c0 -32 26 -58 57 -58z" />
    <glyph glyph-name="Atilde" unicode="&#xc3;" horiz-adv-x="492" 
d="M480 0h-60l-48 165h-251l-48 -165h-61l201 667h66zM359 215l-113 387l-113 -387h226zM297 721c-65 0 -60 103 -103 103c-25 0 -44 -29 -44 -97h-33c0 74 26 134 80 134c66 0 60 -103 103 -103c25 0 44 29 44 97h33c0 -74 -25 -134 -80 -134z" />
    <glyph glyph-name="uni1EA0" unicode="&#x1ea0;" horiz-adv-x="492" 
d="M480 0h-60l-48 165h-251l-48 -165h-61l201 667h66zM359 215l-113 387l-113 -387h226zM246 -178c-19 0 -37 17 -37 37c0 21 18 38 37 38c21 0 38 -17 38 -38c0 -20 -17 -37 -38 -37z" />
    <glyph glyph-name="uni1EA2" unicode="&#x1ea2;" horiz-adv-x="492" 
d="M480 0h-60l-48 165h-251l-48 -165h-61l201 667h66zM359 215l-113 387l-113 -387h226zM212 764l-27 7c8 26 28 49 62 49c33 0 60 -19 60 -64c0 -22 -7 -40 -21 -59h-31c17 20 24 39 24 59c0 26 -14 38 -32 38c-19 0 -30 -11 -35 -30z" />
    <glyph glyph-name="uni1EA4" unicode="&#x1ea4;" horiz-adv-x="492" 
d="M357 682h-36l-75 84l-72 -84h-36l82 108h52zM480 0h-60l-48 165h-251l-48 -165h-61l201 667h66zM359 215l-113 387l-113 -387h226zM503 844l-135 -108h-39l116 108h58z" />
    <glyph glyph-name="uni1EAC" unicode="&#x1eac;" horiz-adv-x="492" 
d="M480 0h-60l-48 165h-251l-48 -165h-61l201 667h66zM359 215l-113 387l-113 -387h226zM356 723h-36l-75 112l-72 -112h-36l82 144h52zM246 -178c-19 0 -37 17 -37 37c0 21 18 38 37 38c21 0 38 -17 38 -38c0 -20 -17 -37 -38 -37z" />
    <glyph glyph-name="uni1EA6" unicode="&#x1ea6;" horiz-adv-x="492" 
d="M357 682h-36l-75 84l-72 -84h-36l82 108h52zM480 0h-60l-48 165h-251l-48 -165h-61l201 667h66zM359 215l-113 387l-113 -387h226zM164 736h-39l-135 108h58z" />
    <glyph glyph-name="uni1EA8" unicode="&#x1ea8;" horiz-adv-x="492" 
d="M357 682h-36l-75 84l-72 -84h-36l82 108h52zM480 0h-60l-48 165h-251l-48 -165h-61l201 667h66zM359 215l-113 387l-113 -387h226zM323 793l-27 6c8 19 28 36 62 36c33 0 60 -14 60 -48c0 -16 -7 -30 -21 -44h-31c17 15 24 29 24 44c0 20 -14 29 -32 29
c-19 0 -30 -8 -35 -23z" />
    <glyph glyph-name="uni1EAE" unicode="&#x1eae;" horiz-adv-x="492" 
d="M480 0h-60l-48 165h-251l-48 -165h-61l201 667h66zM359 215l-113 387l-113 -387h226zM375 841l-135 -103h-39l116 103h58zM393 756c-34 -42 -86 -69 -146 -69s-113 27 -147 69l29 22c26 -34 70 -57 118 -57c47 0 91 23 117 57z" />
    <glyph glyph-name="uni1EAA" unicode="&#x1eaa;" horiz-adv-x="492" 
d="M357 678h-36l-75 56l-72 -56h-36l82 72h52zM480 0h-60l-48 165h-251l-48 -165h-61l201 667h66zM359 215l-113 387l-113 -387h226zM296 757c-65 0 -60 51 -103 51c-25 0 -44 -14 -44 -48h-33c0 37 26 67 80 67c66 0 60 -52 103 -52c25 0 44 15 44 49h33
c0 -37 -25 -67 -80 -67z" />
    <glyph glyph-name="uni1EB0" unicode="&#x1eb0;" horiz-adv-x="492" 
d="M480 0h-60l-48 165h-251l-48 -165h-61l201 667h66zM359 215l-113 387l-113 -387h226zM293 738h-39l-135 103h58zM393 754c-34 -42 -86 -69 -146 -69s-113 27 -147 69l29 22c26 -34 70 -57 118 -57c47 0 91 23 117 57z" />
    <glyph glyph-name="uni1EB2" unicode="&#x1eb2;" horiz-adv-x="492" 
d="M480 0h-60l-48 165h-251l-48 -165h-61l201 667h66zM359 215l-113 387l-113 -387h226zM212 790l-27 5c8 19 28 35 62 35c33 0 60 -13 60 -46c0 -15 -7 -28 -21 -42h-31c17 14 24 28 24 42c0 19 -14 27 -32 27c-19 0 -30 -7 -35 -21zM393 755c-34 -42 -86 -69 -146 -69
s-113 27 -147 69l29 22c26 -34 70 -57 118 -57c47 0 91 23 117 57z" />
    <glyph glyph-name="uni1EB4" unicode="&#x1eb4;" horiz-adv-x="492" 
d="M480 0h-60l-48 165h-251l-48 -165h-61l201 667h66zM359 215l-113 387l-113 -387h226zM393 733c-34 -30 -86 -50 -146 -50s-113 20 -147 50l29 16c26 -25 70 -41 118 -41c47 0 91 16 117 41zM296 757c-65 0 -60 51 -103 51c-25 0 -44 -14 -44 -48h-33c0 37 26 67 80 67
c66 0 60 -52 103 -52c25 0 44 15 44 49h33c0 -37 -25 -67 -80 -67z" />
    <glyph glyph-name="uni1EB6" unicode="&#x1eb6;" horiz-adv-x="492" 
d="M480 0h-60l-48 165h-251l-48 -165h-61l201 667h66zM359 215l-113 387l-113 -387h226zM246 -178c-19 0 -37 17 -37 37c0 21 18 38 37 38c21 0 38 -17 38 -38c0 -20 -17 -37 -38 -37zM393 789c-34 -45 -86 -74 -146 -74s-113 29 -147 74l29 24c26 -37 70 -61 118 -61
c47 0 91 24 117 61z" />
    <glyph glyph-name="AE" unicode="&#xc6;" horiz-adv-x="735" 
d="M681 0h-325v165h-203l-77 -165h-60l317 667h348v-50h-270v-250h263v-50h-263v-267h270v-50zM356 215v387l-182 -387h182z" />
    <glyph glyph-name="AEacute" unicode="&#x1fc;" horiz-adv-x="735" 
d="M514 867l-135 -144h-39l116 144h58zM681 0h-325v165h-203l-77 -165h-60l317 667h348v-50h-270v-250h263v-50h-263v-267h270v-50zM356 215v387l-182 -387h182z" />
    <glyph glyph-name="uni1E02" unicode="&#x1e02;" horiz-adv-x="498" 
d="M277 0h-202v667h197c99 0 161 -64 161 -170c0 -84 -44 -137 -100 -153c63 -10 111 -86 111 -164c0 -111 -59 -180 -167 -180zM265 367c77 0 109 55 109 124s-32 126 -109 126h-134v-250h134zM269 50c78 0 116 52 116 134c0 69 -36 133 -116 133h-138v-267h138zM248 728
c-19 0 -37 17 -37 37c0 21 18 38 37 38c21 0 38 -17 38 -38c0 -20 -17 -37 -38 -37z" />
    <glyph glyph-name="Cacute" unicode="&#x106;" horiz-adv-x="523" 
d="M432 867l-135 -144h-39l116 144h58zM302 -12c-153 0 -249 147 -249 345c0 199 96 345 249 345c90 0 146 -52 184 -117l-47 -24c-30 55 -76 90 -137 90c-116 0 -191 -124 -191 -294c0 -169 75 -294 191 -294c64 0 110 42 138 100l48 -24c-38 -72 -94 -127 -186 -127z" />
    <glyph glyph-name="Ccedilla" unicode="&#xc7;" horiz-adv-x="523" 
d="M296 -185c-35 0 -66 13 -85 29l16 32c22 -20 44 -28 69 -28c30 0 57 17 57 45c0 24 -13 38 -36 38c-14 0 -26 -6 -35 -16l-27 16l21 59c-138 15 -223 156 -223 343c0 199 96 345 249 345c90 0 146 -52 184 -117l-47 -24c-30 55 -76 90 -137 90
c-116 0 -191 -124 -191 -294c0 -169 75 -294 191 -294c64 0 110 42 138 100l48 -24c-37 -69 -90 -122 -175 -126l-16 -42c9 7 20 11 33 11c33 0 59 -26 59 -65c0 -46 -41 -78 -93 -78z" />
    <glyph glyph-name="Ccircumflex" unicode="&#x108;" horiz-adv-x="523" 
d="M412 723h-36l-75 112l-72 -112h-36l82 144h52zM302 -12c-153 0 -249 147 -249 345c0 199 96 345 249 345c90 0 146 -52 184 -117l-47 -24c-30 55 -76 90 -137 90c-116 0 -191 -124 -191 -294c0 -169 75 -294 191 -294c64 0 110 42 138 100l48 -24
c-38 -72 -94 -127 -186 -127z" />
    <glyph glyph-name="Cdotaccent" unicode="&#x10a;" horiz-adv-x="523" 
d="M302 -12c-153 0 -249 147 -249 345c0 199 96 345 249 345c90 0 146 -52 184 -117l-47 -24c-30 55 -76 90 -137 90c-116 0 -191 -124 -191 -294c0 -169 75 -294 191 -294c64 0 110 42 138 100l48 -24c-38 -72 -94 -127 -186 -127zM302 728c-19 0 -37 17 -37 37
c0 21 18 38 37 38c21 0 38 -17 38 -38c0 -20 -17 -37 -38 -37z" />
    <glyph glyph-name="Ccaron" unicode="&#x10c;" horiz-adv-x="523" 
d="M330 723h-52l-85 144h36l75 -112l72 112h36zM302 -12c-153 0 -249 147 -249 345c0 199 96 345 249 345c90 0 146 -52 184 -117l-47 -24c-30 55 -76 90 -137 90c-116 0 -191 -124 -191 -294c0 -169 75 -294 191 -294c64 0 110 42 138 100l48 -24
c-38 -72 -94 -127 -186 -127z" />
    <glyph glyph-name="Dcaron" unicode="&#x10e;" horiz-adv-x="549" 
d="M300 723h-52l-85 144h36l75 -112l72 112h36zM237 0h-162v667h162c168 0 259 -146 259 -334c0 -190 -91 -333 -259 -333zM237 50c134 0 200 124 200 283s-66 284 -200 284h-106v-567h106z" />
    <glyph glyph-name="Dcroat" unicode="&#x110;" horiz-adv-x="573" 
d="M261 0h-162v309h-82v44h82v314h162c168 0 259 -146 259 -334c0 -190 -91 -333 -259 -333zM261 50c134 0 200 124 200 283s-66 284 -200 284h-106v-264h131v-44h-131v-259h106z" />
    <glyph glyph-name="uni1E0A" unicode="&#x1e0a;" horiz-adv-x="549" 
d="M237 0h-162v667h162c168 0 259 -146 259 -334c0 -190 -91 -333 -259 -333zM237 50c134 0 200 124 200 283s-66 284 -200 284h-106v-567h106zM274 728c-19 0 -37 17 -37 37c0 21 18 38 37 38c21 0 38 -17 38 -38c0 -20 -17 -37 -38 -37z" />
    <glyph glyph-name="Eacute" unicode="&#xc9;" horiz-adv-x="452" 
d="M368 867l-135 -144h-39l116 144h58zM401 0h-326v667h326v-50h-270v-250h263v-50h-263v-267h270v-50z" />
    <glyph glyph-name="Ebreve" unicode="&#x114;" horiz-adv-x="452" 
d="M401 0h-326v667h326v-50h-270v-250h263v-50h-263v-267h270v-50zM386 789c-34 -45 -86 -74 -146 -74s-113 29 -147 74l29 24c26 -37 70 -61 118 -61c47 0 91 24 117 61z" />
    <glyph glyph-name="Ecircumflex" unicode="&#xca;" horiz-adv-x="452" 
d="M349 723h-36l-75 112l-72 -112h-36l82 144h52zM401 0h-326v667h326v-50h-270v-250h263v-50h-263v-267h270v-50z" />
    <glyph glyph-name="Edieresis" unicode="&#xcb;" horiz-adv-x="452" 
d="M358 768c0 -20 -16 -37 -36 -37s-37 17 -37 37s17 36 37 36s36 -16 36 -36zM190 768c0 -20 -16 -37 -36 -37s-36 17 -36 37s16 36 36 36s36 -16 36 -36zM401 0h-326v667h326v-50h-270v-250h263v-50h-263v-267h270v-50z" />
    <glyph glyph-name="Edotaccent" unicode="&#x116;" horiz-adv-x="452" 
d="M401 0h-326v667h326v-50h-270v-250h263v-50h-263v-267h270v-50zM244 728c-19 0 -37 17 -37 37c0 21 18 38 37 38c21 0 38 -17 38 -38c0 -20 -17 -37 -38 -37z" />
    <glyph glyph-name="Egrave" unicode="&#xc8;" horiz-adv-x="452" 
d="M401 0h-326v667h326v-50h-270v-250h263v-50h-263v-267h270v-50zM282 723h-39l-135 144h58z" />
    <glyph glyph-name="Emacron" unicode="&#x112;" horiz-adv-x="452" 
d="M401 0h-326v667h326v-50h-270v-250h263v-50h-263v-267h270v-50zM390 744h-304v37h304v-37z" />
    <glyph glyph-name="Eogonek" unicode="&#x118;" horiz-adv-x="452" 
d="M401 0c-43 -25 -74 -58 -74 -106c0 -33 16 -47 40 -47s37 14 45 39l30 -15c-10 -29 -33 -57 -76 -57c-42 0 -75 25 -75 79c0 41 22 79 55 107h-271v667h326v-50h-270v-250h263v-50h-263v-267h270v-50z" />
    <glyph glyph-name="Ecaron" unicode="&#x11a;" horiz-adv-x="452" 
d="M265 723h-52l-85 144h36l75 -112l72 112h36zM401 0h-326v667h326v-50h-270v-250h263v-50h-263v-267h270v-50z" />
    <glyph glyph-name="uni1EB8" unicode="&#x1eb8;" horiz-adv-x="452" 
d="M401 0h-326v667h326v-50h-270v-250h263v-50h-263v-267h270v-50zM244 -178c-19 0 -37 17 -37 37c0 21 18 38 37 38c21 0 38 -17 38 -38c0 -20 -17 -37 -38 -37z" />
    <glyph glyph-name="uni1EBA" unicode="&#x1eba;" horiz-adv-x="452" 
d="M401 0h-326v667h326v-50h-270v-250h263v-50h-263v-267h270v-50zM193 764l-27 7c8 26 28 49 62 49c33 0 60 -19 60 -64c0 -22 -7 -40 -21 -59h-31c17 20 24 39 24 59c0 26 -14 38 -32 38c-19 0 -30 -11 -35 -30z" />
    <glyph glyph-name="uni1EBC" unicode="&#x1ebc;" horiz-adv-x="452" 
d="M401 0h-326v667h326v-50h-270v-250h263v-50h-263v-267h270v-50zM287 721c-65 0 -60 103 -103 103c-25 0 -44 -29 -44 -97h-33c0 74 26 134 80 134c66 0 60 -103 103 -103c25 0 44 29 44 97h33c0 -74 -25 -134 -80 -134z" />
    <glyph glyph-name="uni1EBE" unicode="&#x1ebe;" horiz-adv-x="452" 
d="M351 682h-36l-75 84l-72 -84h-36l82 108h52zM497 844l-135 -108h-39l116 108h58zM401 0h-326v667h326v-50h-270v-250h263v-50h-263v-267h270v-50z" />
    <glyph glyph-name="uni1EC0" unicode="&#x1ec0;" horiz-adv-x="452" 
d="M349 682h-36l-75 84l-72 -84h-36l82 108h52zM401 0h-326v667h326v-50h-270v-250h263v-50h-263v-267h270v-50zM156 736h-39l-135 108h58z" />
    <glyph glyph-name="uni1EC2" unicode="&#x1ec2;" horiz-adv-x="452" 
d="M350 682h-36l-75 84l-72 -84h-36l82 108h52zM401 0h-326v667h326v-50h-270v-250h263v-50h-263v-267h270v-50zM316 793l-27 6c8 19 28 36 62 36c33 0 60 -14 60 -48c0 -16 -7 -30 -21 -44h-31c17 15 24 29 24 44c0 20 -14 29 -32 29c-19 0 -30 -8 -35 -23z" />
    <glyph glyph-name="uni1EC4" unicode="&#x1ec4;" horiz-adv-x="452" 
d="M349 678h-36l-75 56l-72 -56h-36l82 72h52zM401 0h-326v667h326v-50h-270v-250h263v-50h-263v-267h270v-50zM288 757c-65 0 -60 51 -103 51c-25 0 -44 -14 -44 -48h-33c0 37 26 67 80 67c66 0 60 -52 103 -52c25 0 44 15 44 49h33c0 -37 -25 -67 -80 -67z" />
    <glyph glyph-name="uni1EC6" unicode="&#x1ec6;" horiz-adv-x="452" 
d="M349 723h-36l-75 112l-72 -112h-36l82 144h52zM401 0h-326v667h326v-50h-270v-250h263v-50h-263v-267h270v-50zM244 -178c-19 0 -37 17 -37 37c0 21 18 38 37 38c21 0 38 -17 38 -38c0 -20 -17 -37 -38 -37z" />
    <glyph glyph-name="uni1E1E" unicode="&#x1e1e;" horiz-adv-x="441" 
d="M240 728c-19 0 -37 17 -37 37c0 21 18 38 37 38c21 0 38 -17 38 -38c0 -20 -17 -37 -38 -37zM131 0h-56v667h326v-50h-270v-250h263v-50h-263v-317z" />
    <glyph glyph-name="Gcircumflex" unicode="&#x11c;" horiz-adv-x="552" 
d="M414 723h-36l-75 112l-72 -112h-36l82 144h52zM302 -13c-150 0 -249 141 -249 346c0 206 99 345 249 345c90 0 148 -49 188 -115l-45 -24c-31 53 -79 88 -143 88c-116 0 -191 -123 -191 -294c0 -170 75 -295 191 -295c62 0 110 31 136 64v178h-174v51h228v-250
c-45 -59 -112 -94 -190 -94z" />
    <glyph glyph-name="Gbreve" unicode="&#x11e;" horiz-adv-x="552" 
d="M302 -13c-150 0 -249 141 -249 346c0 206 99 345 249 345c90 0 148 -49 188 -115l-45 -24c-31 53 -79 88 -143 88c-116 0 -191 -123 -191 -294c0 -170 75 -295 191 -295c62 0 110 31 136 64v178h-174v51h228v-250c-45 -59 -112 -94 -190 -94zM451 789
c-34 -45 -86 -74 -146 -74s-113 29 -147 74l29 24c26 -37 70 -61 118 -61c47 0 91 24 117 61z" />
    <glyph glyph-name="Gdotaccent" unicode="&#x120;" horiz-adv-x="552" 
d="M302 -13c-150 0 -249 141 -249 346c0 206 99 345 249 345c90 0 148 -49 188 -115l-45 -24c-31 53 -79 88 -143 88c-116 0 -191 -123 -191 -294c0 -170 75 -295 191 -295c62 0 110 31 136 64v178h-174v51h228v-250c-45 -59 -112 -94 -190 -94zM303 728
c-19 0 -37 17 -37 37c0 21 18 38 37 38c21 0 38 -17 38 -38c0 -20 -17 -37 -38 -37z" />
    <glyph glyph-name="Gcommaaccent" unicode="&#x122;" horiz-adv-x="552" 
d="M347 -137c0 -53 -31 -102 -66 -127l-27 21c31 22 54 60 55 89c0 0 -6 -1 -9 -1c-21 0 -36 17 -36 38s16 39 38 39c24 0 45 -21 45 -59zM302 -13c-150 0 -249 141 -249 346c0 206 99 345 249 345c90 0 148 -49 188 -115l-45 -24c-31 53 -79 88 -143 88
c-116 0 -191 -123 -191 -294c0 -170 75 -295 191 -295c62 0 110 31 136 64v178h-174v51h228v-250c-45 -59 -112 -94 -190 -94z" />
    <glyph glyph-name="Gbreve.alt1" horiz-adv-x="569" 
d="M451 789c-34 -45 -86 -74 -146 -74s-113 29 -147 74l29 24c26 -37 70 -61 118 -61c47 0 91 24 117 61zM300 -13c-148 0 -247 141 -247 346c0 206 99 345 249 345c90 0 148 -49 188 -115l-45 -24c-31 53 -79 88 -143 88c-116 0 -191 -123 -191 -294
c0 -170 75 -295 191 -295c112 0 162 115 169 242h-207v51h265c0 -209 -73 -344 -229 -344z" />
    <glyph glyph-name="Gcommaaccent.alt1" horiz-adv-x="569" 
d="M348 -137c0 -53 -31 -102 -66 -127l-27 21c31 22 54 60 55 89c0 0 -6 -1 -9 -1c-21 0 -36 17 -36 38s16 39 38 39c24 0 45 -21 45 -59zM300 -13c-148 0 -247 141 -247 346c0 206 99 345 249 345c90 0 148 -49 188 -115l-45 -24c-31 53 -79 88 -143 88
c-116 0 -191 -123 -191 -294c0 -170 75 -295 191 -295c112 0 162 115 169 242h-207v51h265c0 -209 -73 -344 -229 -344z" />
    <glyph glyph-name="Gcircumflex.alt1" horiz-adv-x="569" 
d="M409 723h-36l-75 112l-72 -112h-36l82 144h52zM300 -13c-148 0 -247 141 -247 346c0 206 99 345 249 345c90 0 148 -49 188 -115l-45 -24c-31 53 -79 88 -143 88c-116 0 -191 -123 -191 -294c0 -170 75 -295 191 -295c112 0 162 115 169 242h-207v51h265
c0 -209 -73 -344 -229 -344z" />
    <glyph glyph-name="Gdotaccent.alt1" horiz-adv-x="569" 
d="M300 728c-19 0 -37 17 -37 37c0 21 18 38 37 38c21 0 38 -17 38 -38c0 -20 -17 -37 -38 -37zM300 -13c-148 0 -247 141 -247 346c0 206 99 345 249 345c90 0 148 -49 188 -115l-45 -24c-31 53 -79 88 -143 88c-116 0 -191 -123 -191 -294c0 -170 75 -295 191 -295
c112 0 162 115 169 242h-207v51h265c0 -209 -73 -344 -229 -344z" />
    <glyph glyph-name="Hbar" unicode="&#x126;" horiz-adv-x="593" 
d="M501 0h-55v318h-298v-318h-56v500h-75v37h75v130h56v-130h298v130h55v-130h67v-37h-67v-500zM148 368h298v132h-298v-132z" />
    <glyph glyph-name="Hcircumflex" unicode="&#x124;" horiz-adv-x="559" 
d="M388 723h-36l-75 112l-72 -112h-36l82 144h52zM484 0h-55v318h-298v-318h-56v667h56v-299h298v299h55v-667z" />
    <glyph glyph-name="uni1E22" unicode="&#x1e22;" horiz-adv-x="559" 
d="M484 0h-55v318h-298v-318h-56v667h56v-299h298v299h55v-667zM279 728c-19 0 -37 17 -37 37c0 21 18 38 37 38c21 0 38 -17 38 -38c0 -20 -17 -37 -38 -37z" />
    <glyph glyph-name="Iacute" unicode="&#xcd;" horiz-adv-x="206" 
d="M131 0h-56v667h56v-667zM234 867l-135 -144h-39l116 144h58z" />
    <glyph glyph-name="Ibreve" unicode="&#x12c;" horiz-adv-x="206" 
d="M131 0h-56v667h56v-667zM250 789c-34 -45 -86 -74 -146 -74s-113 29 -147 74l29 24c26 -37 70 -61 118 -61c47 0 91 24 117 61z" />
    <glyph glyph-name="Icircumflex" unicode="&#xce;" horiz-adv-x="206" 
d="M214 723h-36l-75 112l-72 -112h-36l82 144h52zM131 0h-56v667h56v-667z" />
    <glyph glyph-name="Idieresis" unicode="&#xcf;" horiz-adv-x="206" 
d="M224 768c0 -20 -16 -37 -36 -37s-37 17 -37 37s17 36 37 36s36 -16 36 -36zM56 768c0 -20 -16 -37 -36 -37s-36 17 -36 37s16 36 36 36s36 -16 36 -36zM131 0h-56v667h56v-667z" />
    <glyph glyph-name="Idotaccent" unicode="&#x130;" horiz-adv-x="206" 
d="M131 0h-56v667h56v-667zM103 728c-19 0 -37 17 -37 37c0 21 18 38 37 38c21 0 38 -17 38 -38c0 -20 -17 -37 -38 -37z" />
    <glyph glyph-name="Igrave" unicode="&#xcc;" horiz-adv-x="206" 
d="M131 0h-56v667h56v-667zM147 723h-39l-135 144h58z" />
    <glyph glyph-name="Imacron" unicode="&#x12a;" horiz-adv-x="206" 
d="M131 0h-56v667h56v-667zM255 744h-304v37h304v-37z" />
    <glyph glyph-name="Iogonek" unicode="&#x12e;" horiz-adv-x="206" 
d="M142 -114l30 -15c-10 -29 -33 -57 -76 -57c-42 0 -75 25 -75 79c0 41 22 79 55 107h-1v667h56v-667c-43 -25 -74 -58 -74 -106c0 -33 16 -47 40 -47s37 14 45 39z" />
    <glyph glyph-name="Itilde" unicode="&#x128;" horiz-adv-x="206" 
d="M131 0h-56v667h56v-667zM153 721c-65 0 -60 103 -103 103c-25 0 -44 -29 -44 -97h-33c0 74 26 134 80 134c66 0 60 -103 103 -103c25 0 44 29 44 97h33c0 -74 -25 -134 -80 -134z" />
    <glyph glyph-name="uni1EC8" unicode="&#x1ec8;" horiz-adv-x="206" 
d="M131 0h-56v667h56v-667zM69 764l-27 7c8 26 28 49 62 49c33 0 60 -19 60 -64c0 -22 -7 -40 -21 -59h-31c17 20 24 39 24 59c0 26 -14 38 -32 38c-19 0 -30 -11 -35 -30z" />
    <glyph glyph-name="uni1ECA" unicode="&#x1eca;" horiz-adv-x="206" 
d="M131 0h-56v667h56v-667zM102 -178c-19 0 -37 17 -37 37c0 21 18 38 37 38c21 0 38 -17 38 -38c0 -20 -17 -37 -38 -37z" />
    <glyph glyph-name="IJ" unicode="&#x132;" horiz-adv-x="596" 
d="M131 0h-56v667h56v-667zM354 -12c-56 0 -101 19 -138 66l31 42c26 -35 59 -57 104 -57c71 0 114 45 114 124v504h56v-505c0 -119 -72 -174 -167 -174z" />
    <glyph glyph-name="Jcircumflex" unicode="&#x134;" horiz-adv-x="390" 
d="M396 723h-36l-75 112l-72 -112h-36l82 144h52zM148 -12c-56 0 -101 19 -138 66l31 42c26 -35 59 -57 104 -57c71 0 114 45 114 124v504h56v-505c0 -119 -72 -174 -167 -174z" />
    <glyph glyph-name="Kcommaaccent" unicode="&#x136;" horiz-adv-x="492" 
d="M296 -137c0 -53 -31 -102 -66 -127l-27 21c31 22 54 60 55 89c0 0 -6 -1 -9 -1c-21 0 -36 17 -36 38s16 39 38 39c24 0 45 -21 45 -59zM471 0h-68l-213 309l-59 -84v-225h-56v667h56v-364l253 364h67l-227 -318z" />
    <glyph glyph-name="Lacute" unicode="&#x139;" horiz-adv-x="412" 
d="M358 867l-135 -144h-39l116 144h58zM380 0h-305v667h56v-617h249v-50z" />
    <glyph glyph-name="Lcaron" unicode="&#x13d;" horiz-adv-x="412" 
d="M294 620c0 -53 -31 -102 -66 -127l-27 21c31 22 54 60 55 89c0 0 -6 -1 -9 -1c-21 0 -36 17 -36 38s16 39 38 39c24 0 45 -21 45 -59zM380 0h-305v667h56v-617h249v-50z" />
    <glyph glyph-name="Lcommaaccent" unicode="&#x13b;" horiz-adv-x="412" 
d="M269 -137c0 -53 -31 -102 -66 -127l-27 21c31 22 54 60 55 89c0 0 -6 -1 -9 -1c-21 0 -36 17 -36 38s16 39 38 39c24 0 45 -21 45 -59zM380 0h-305v667h56v-617h249v-50z" />
    <glyph glyph-name="Ldot" unicode="&#x13f;" horiz-adv-x="419" 
d="M380 0h-305v667h56v-617h249v-50zM352 342c0 -24 -19 -43 -43 -43s-43 19 -43 43c0 23 19 42 43 42s43 -19 43 -42z" />
    <glyph glyph-name="Lslash" unicode="&#x141;" horiz-adv-x="430" 
d="M17 247v51l76 44v325h56v-293l83 49v-52l-83 -48v-273h249v-50h-305v291z" />
    <glyph glyph-name="Nacute" unicode="&#x143;" horiz-adv-x="557" 
d="M416 867l-135 -144h-39l116 144h58zM482 0h-54l-297 546v-546h-56v667h56l295 -538v538h56v-667z" />
    <glyph glyph-name="Ncaron" unicode="&#x147;" horiz-adv-x="557" 
d="M306 723h-52l-85 144h36l75 -112l72 112h36zM482 0h-54l-297 546v-546h-56v667h56l295 -538v538h56v-667z" />
    <glyph glyph-name="Ncommaaccent" unicode="&#x145;" horiz-adv-x="557" 
d="M328 -137c0 -53 -31 -102 -66 -127l-27 21c31 22 54 60 55 89c0 0 -6 -1 -9 -1c-21 0 -36 17 -36 38s16 39 38 39c24 0 45 -21 45 -59zM482 0h-54l-297 546v-546h-56v667h56l295 -538v538h56v-667z" />
    <glyph glyph-name="Ntilde" unicode="&#xd1;" horiz-adv-x="557" 
d="M326 721c-65 0 -60 103 -103 103c-25 0 -44 -29 -44 -97h-33c0 74 26 134 80 134c66 0 60 -103 103 -103c25 0 44 29 44 97h33c0 -74 -25 -134 -80 -134zM482 0h-54l-297 546v-546h-56v667h56l295 -538v538h56v-667z" />
    <glyph glyph-name="Eng" unicode="&#x14a;" horiz-adv-x="557" 
d="M315 -196c-56 0 -100 19 -138 66l31 42c26 -35 60 -58 104 -58c72 0 114 44 114 124v25l-295 549v-552h-56v667h56l295 -544v544h56v-690c0 -120 -72 -173 -167 -173z" />
    <glyph glyph-name="Oacute" unicode="&#xd3;" horiz-adv-x="590" 
d="M425 867l-135 -144h-39l116 144h58zM295 -12c-157 0 -242 154 -242 345s85 345 242 345c156 0 242 -154 242 -345s-86 -345 -242 -345zM295 39c118 0 183 132 183 294c0 164 -65 294 -183 294c-119 0 -184 -130 -184 -294c0 -162 65 -294 184 -294z" />
    <glyph glyph-name="Obreve" unicode="&#x14e;" horiz-adv-x="590" 
d="M295 -12c-157 0 -242 154 -242 345s85 345 242 345c156 0 242 -154 242 -345s-86 -345 -242 -345zM295 39c118 0 183 132 183 294c0 164 -65 294 -183 294c-119 0 -184 -130 -184 -294c0 -162 65 -294 184 -294zM441 789c-34 -45 -86 -74 -146 -74s-113 29 -147 74l29 24
c26 -37 70 -61 118 -61c47 0 91 24 117 61z" />
    <glyph glyph-name="Ocircumflex" unicode="&#xd4;" horiz-adv-x="590" 
d="M406 723h-36l-75 112l-72 -112h-36l82 144h52zM295 -12c-157 0 -242 154 -242 345s85 345 242 345c156 0 242 -154 242 -345s-86 -345 -242 -345zM295 39c118 0 183 132 183 294c0 164 -65 294 -183 294c-119 0 -184 -130 -184 -294c0 -162 65 -294 184 -294z" />
    <glyph glyph-name="Odieresis" unicode="&#xd6;" horiz-adv-x="590" 
d="M414 768c0 -20 -16 -37 -36 -37s-37 17 -37 37s17 36 37 36s36 -16 36 -36zM246 768c0 -20 -16 -37 -36 -37s-36 17 -36 37s16 36 36 36s36 -16 36 -36zM295 -12c-157 0 -242 154 -242 345s85 345 242 345c156 0 242 -154 242 -345s-86 -345 -242 -345zM295 39
c118 0 183 132 183 294c0 164 -65 294 -183 294c-119 0 -184 -130 -184 -294c0 -162 65 -294 184 -294z" />
    <glyph glyph-name="Ograve" unicode="&#xd2;" horiz-adv-x="590" 
d="M338 723h-39l-135 144h58zM295 -12c-157 0 -242 154 -242 345s85 345 242 345c156 0 242 -154 242 -345s-86 -345 -242 -345zM295 39c118 0 183 132 183 294c0 164 -65 294 -183 294c-119 0 -184 -130 -184 -294c0 -162 65 -294 184 -294z" />
    <glyph glyph-name="Ohungarumlaut" unicode="&#x150;" horiz-adv-x="590" 
d="M332 867l-96 -144h-33l77 144h52zM457 867l-96 -144h-33l77 144h52zM295 -12c-157 0 -242 154 -242 345s85 345 242 345c156 0 242 -154 242 -345s-86 -345 -242 -345zM295 39c118 0 183 132 183 294c0 164 -65 294 -183 294c-119 0 -184 -130 -184 -294
c0 -162 65 -294 184 -294z" />
    <glyph glyph-name="Omacron" unicode="&#x14c;" horiz-adv-x="590" 
d="M447 744h-304v37h304v-37zM295 -12c-157 0 -242 154 -242 345s85 345 242 345c156 0 242 -154 242 -345s-86 -345 -242 -345zM295 39c118 0 183 132 183 294c0 164 -65 294 -183 294c-119 0 -184 -130 -184 -294c0 -162 65 -294 184 -294z" />
    <glyph glyph-name="Oslash" unicode="&#xd8;" horiz-adv-x="590" 
d="M295 -12c-52 0 -96 16 -131 45l-17 -33h-47l33 65c-53 63 -80 159 -80 268c0 191 85 345 242 345c50 0 93 -17 129 -45l17 34h47l-33 -64c53 -63 82 -161 82 -270c0 -191 -86 -345 -242 -345zM295 39c118 0 183 132 183 294c0 85 -18 161 -51 215l-238 -464
c28 -29 64 -45 106 -45zM111 333c0 -84 17 -159 50 -213l237 464c-27 27 -62 43 -103 43c-119 0 -184 -130 -184 -294z" />
    <glyph glyph-name="Oslashacute" unicode="&#x1fe;" horiz-adv-x="590" 
d="M425 867l-135 -144h-39l116 144h58zM295 -12c-52 0 -96 16 -131 45l-17 -33h-47l33 65c-53 63 -80 159 -80 268c0 191 85 345 242 345c50 0 93 -17 129 -45l17 34h47l-33 -64c53 -63 82 -161 82 -270c0 -191 -86 -345 -242 -345zM295 39c118 0 183 132 183 294
c0 85 -18 161 -51 215l-238 -464c28 -29 64 -45 106 -45zM111 333c0 -84 17 -159 50 -213l237 464c-27 27 -62 43 -103 43c-119 0 -184 -130 -184 -294z" />
    <glyph glyph-name="Otilde" unicode="&#xd5;" horiz-adv-x="590" 
d="M295 -12c-157 0 -242 154 -242 345s85 345 242 345c156 0 242 -154 242 -345s-86 -345 -242 -345zM295 39c118 0 183 132 183 294c0 164 -65 294 -183 294c-119 0 -184 -130 -184 -294c0 -162 65 -294 184 -294zM345 721c-65 0 -60 103 -103 103c-25 0 -44 -29 -44 -97
h-33c0 74 26 134 80 134c66 0 60 -103 103 -103c25 0 44 29 44 97h33c0 -74 -25 -134 -80 -134z" />
    <glyph glyph-name="uni1ECC" unicode="&#x1ecc;" horiz-adv-x="590" 
d="M295 -12c-157 0 -242 154 -242 345s85 345 242 345c156 0 242 -154 242 -345s-86 -345 -242 -345zM295 39c118 0 183 132 183 294c0 164 -65 294 -183 294c-119 0 -184 -130 -184 -294c0 -162 65 -294 184 -294zM296 -178c-19 0 -37 17 -37 37c0 21 18 38 37 38
c21 0 38 -17 38 -38c0 -20 -17 -37 -38 -37z" />
    <glyph glyph-name="uni1ECE" unicode="&#x1ece;" horiz-adv-x="590" 
d="M295 -12c-157 0 -242 154 -242 345s85 345 242 345c156 0 242 -154 242 -345s-86 -345 -242 -345zM295 39c118 0 183 132 183 294c0 164 -65 294 -183 294c-119 0 -184 -130 -184 -294c0 -162 65 -294 184 -294zM261 764l-27 7c8 26 28 49 62 49c33 0 60 -19 60 -64
c0 -22 -7 -40 -21 -59h-31c17 20 24 39 24 59c0 26 -14 38 -32 38c-19 0 -30 -11 -35 -30z" />
    <glyph glyph-name="uni1ED0" unicode="&#x1ed0;" horiz-adv-x="590" 
d="M403 682h-36l-75 84l-72 -84h-36l82 108h52zM549 844l-135 -108h-39l116 108h58zM295 -12c-157 0 -242 154 -242 345s85 345 242 345c156 0 242 -154 242 -345s-86 -345 -242 -345zM295 39c118 0 183 132 183 294c0 164 -65 294 -183 294c-119 0 -184 -130 -184 -294
c0 -162 65 -294 184 -294z" />
    <glyph glyph-name="uni1ED2" unicode="&#x1ed2;" horiz-adv-x="590" 
d="M402 682h-36l-75 84l-72 -84h-36l82 108h52zM295 -12c-157 0 -242 154 -242 345s85 345 242 345c156 0 242 -154 242 -345s-86 -345 -242 -345zM295 39c118 0 183 132 183 294c0 164 -65 294 -183 294c-119 0 -184 -130 -184 -294c0 -162 65 -294 184 -294zM209 736h-39
l-135 108h58z" />
    <glyph glyph-name="uni1ED4" unicode="&#x1ed4;" horiz-adv-x="590" 
d="M402 682h-36l-75 84l-72 -84h-36l82 108h52zM295 -12c-157 0 -242 154 -242 345s85 345 242 345c156 0 242 -154 242 -345s-86 -345 -242 -345zM295 39c118 0 183 132 183 294c0 164 -65 294 -183 294c-119 0 -184 -130 -184 -294c0 -162 65 -294 184 -294zM369 793
l-27 6c8 19 28 36 62 36c33 0 60 -14 60 -48c0 -16 -7 -30 -21 -44h-31c17 15 24 29 24 44c0 20 -14 29 -32 29c-19 0 -30 -8 -35 -23z" />
    <glyph glyph-name="uni1ED6" unicode="&#x1ed6;" horiz-adv-x="590" 
d="M405 678h-36l-75 56l-72 -56h-36l82 72h52zM295 -12c-157 0 -242 154 -242 345s85 345 242 345c156 0 242 -154 242 -345s-86 -345 -242 -345zM295 39c118 0 183 132 183 294c0 164 -65 294 -183 294c-119 0 -184 -130 -184 -294c0 -162 65 -294 184 -294zM344 757
c-65 0 -60 51 -103 51c-25 0 -44 -14 -44 -48h-33c0 37 26 67 80 67c66 0 60 -52 103 -52c25 0 44 15 44 49h33c0 -37 -25 -67 -80 -67z" />
    <glyph glyph-name="uni1ED8" unicode="&#x1ed8;" horiz-adv-x="590" 
d="M406 723h-36l-75 112l-72 -112h-36l82 144h52zM295 -12c-157 0 -242 154 -242 345s85 345 242 345c156 0 242 -154 242 -345s-86 -345 -242 -345zM295 39c118 0 183 132 183 294c0 164 -65 294 -183 294c-119 0 -184 -130 -184 -294c0 -162 65 -294 184 -294zM297 -178
c-19 0 -37 17 -37 37c0 21 18 38 37 38c21 0 38 -17 38 -38c0 -20 -17 -37 -38 -37z" />
    <glyph glyph-name="Ohorn" unicode="&#x1a0;" horiz-adv-x="590" 
d="M295 -12c-157 0 -242 154 -242 345s85 345 242 345c81 0 143 -42 184 -109c24 22 41 54 42 79c0 0 -6 -1 -9 -1c-21 0 -35 16 -35 37c0 20 15 37 37 37c23 0 44 -21 44 -57c0 -50 -30 -98 -63 -124c27 -57 42 -129 42 -207c0 -191 -86 -345 -242 -345zM295 39
c118 0 183 132 183 294c0 164 -65 294 -183 294c-119 0 -184 -130 -184 -294c0 -162 65 -294 184 -294z" />
    <glyph glyph-name="uni1EDA" unicode="&#x1eda;" horiz-adv-x="590" 
d="M425 867l-135 -144h-39l116 144h58zM295 -12c-157 0 -242 154 -242 345s85 345 242 345c81 0 143 -42 184 -109c24 22 41 54 42 79c0 0 -6 -1 -9 -1c-21 0 -35 16 -35 37c0 20 15 37 37 37c23 0 44 -21 44 -57c0 -50 -30 -98 -63 -124c27 -57 42 -129 42 -207
c0 -191 -86 -345 -242 -345zM295 39c118 0 183 132 183 294c0 164 -65 294 -183 294c-119 0 -184 -130 -184 -294c0 -162 65 -294 184 -294z" />
    <glyph glyph-name="uni1EDC" unicode="&#x1edc;" horiz-adv-x="590" 
d="M295 -12c-157 0 -242 154 -242 345s85 345 242 345c81 0 143 -42 184 -109c24 22 41 54 42 79c0 0 -6 -1 -9 -1c-21 0 -35 16 -35 37c0 20 15 37 37 37c23 0 44 -21 44 -57c0 -50 -30 -98 -63 -124c27 -57 42 -129 42 -207c0 -191 -86 -345 -242 -345zM295 39
c118 0 183 132 183 294c0 164 -65 294 -183 294c-119 0 -184 -130 -184 -294c0 -162 65 -294 184 -294zM338 723h-39l-135 144h58z" />
    <glyph glyph-name="uni1EDE" unicode="&#x1ede;" horiz-adv-x="590" 
d="M295 -12c-157 0 -242 154 -242 345s85 345 242 345c81 0 143 -42 184 -109c24 22 41 54 42 79c0 0 -6 -1 -9 -1c-21 0 -35 16 -35 37c0 20 15 37 37 37c23 0 44 -21 44 -57c0 -50 -30 -98 -63 -124c27 -57 42 -129 42 -207c0 -191 -86 -345 -242 -345zM295 39
c118 0 183 132 183 294c0 164 -65 294 -183 294c-119 0 -184 -130 -184 -294c0 -162 65 -294 184 -294zM260 764l-27 7c8 26 28 49 62 49c33 0 60 -19 60 -64c0 -22 -7 -40 -21 -59h-31c17 20 24 39 24 59c0 26 -14 38 -32 38c-19 0 -30 -11 -35 -30z" />
    <glyph glyph-name="uni1EE0" unicode="&#x1ee0;" horiz-adv-x="590" 
d="M295 -12c-157 0 -242 154 -242 345s85 345 242 345c81 0 143 -42 184 -109c24 22 41 54 42 79c0 0 -6 -1 -9 -1c-21 0 -35 16 -35 37c0 20 15 37 37 37c23 0 44 -21 44 -57c0 -50 -30 -98 -63 -124c27 -57 42 -129 42 -207c0 -191 -86 -345 -242 -345zM295 39
c118 0 183 132 183 294c0 164 -65 294 -183 294c-119 0 -184 -130 -184 -294c0 -162 65 -294 184 -294zM345 721c-65 0 -60 103 -103 103c-25 0 -44 -29 -44 -97h-33c0 74 26 134 80 134c66 0 60 -103 103 -103c25 0 44 29 44 97h33c0 -74 -25 -134 -80 -134z" />
    <glyph glyph-name="uni1EE2" unicode="&#x1ee2;" horiz-adv-x="590" 
d="M295 -12c-157 0 -242 154 -242 345s85 345 242 345c81 0 143 -42 184 -109c24 22 41 54 42 79c0 0 -6 -1 -9 -1c-21 0 -35 16 -35 37c0 20 15 37 37 37c23 0 44 -21 44 -57c0 -50 -30 -98 -63 -124c27 -57 42 -129 42 -207c0 -191 -86 -345 -242 -345zM295 39
c118 0 183 132 183 294c0 164 -65 294 -183 294c-119 0 -184 -130 -184 -294c0 -162 65 -294 184 -294zM296 -178c-19 0 -37 17 -37 37c0 21 18 38 37 38c21 0 38 -17 38 -38c0 -20 -17 -37 -38 -37z" />
    <glyph glyph-name="OE" unicode="&#x152;" horiz-adv-x="846" 
d="M792 0h-326v106c-39 -85 -111 -118 -176 -118c-155 0 -237 154 -237 345s82 344 237 344c65 0 137 -32 176 -116v106h326v-50h-270v-250h263v-50h-263v-267h270v-50zM466 197v273c-29 102 -92 156 -171 156c-120 0 -184 -129 -184 -293c0 -163 64 -294 184 -294
c79 0 142 56 171 158z" />
    <glyph glyph-name="uni1E56" unicode="&#x1e56;" horiz-adv-x="468" 
d="M131 0h-56v667h184c116 0 175 -90 175 -195c0 -104 -60 -194 -175 -194h-128v-278zM255 328c76 0 120 60 120 144c0 85 -44 145 -120 145h-124v-289h124zM233 728c-19 0 -37 17 -37 37c0 21 18 38 37 38c21 0 38 -17 38 -38c0 -20 -17 -37 -38 -37z" />
    <glyph glyph-name="Racute" unicode="&#x154;" horiz-adv-x="491" 
d="M382 867l-135 -144h-39l116 144h58zM441 0h-64l-140 278h-106v-278h-56v667h185c100 0 174 -72 174 -194c0 -121 -69 -179 -140 -188zM255 328c76 0 121 60 121 144c0 85 -45 145 -121 145h-124v-289h124z" />
    <glyph glyph-name="Rcaron" unicode="&#x158;" horiz-adv-x="491" 
d="M272 723h-52l-85 144h36l75 -112l72 112h36zM441 0h-64l-140 278h-106v-278h-56v667h185c100 0 174 -72 174 -194c0 -121 -69 -179 -140 -188zM255 328c76 0 121 60 121 144c0 85 -45 145 -121 145h-124v-289h124z" />
    <glyph glyph-name="Rcommaaccent" unicode="&#x156;" horiz-adv-x="491" 
d="M294 -137c0 -53 -31 -102 -66 -127l-27 21c31 22 54 60 55 89c0 0 -6 -1 -9 -1c-21 0 -36 17 -36 38s16 39 38 39c24 0 45 -21 45 -59zM441 0h-64l-140 278h-106v-278h-56v667h185c100 0 174 -72 174 -194c0 -121 -69 -179 -140 -188zM255 328c76 0 121 60 121 144
c0 85 -45 145 -121 145h-124v-289h124z" />
    <glyph glyph-name="Sacute" unicode="&#x15a;" horiz-adv-x="459" 
d="M362 867l-135 -144h-39l116 144h58zM222 -12c-81 0 -145 33 -187 83l34 43c32 -42 87 -75 153 -75c94 0 135 60 135 124c0 181 -303 138 -303 348c0 101 80 167 179 167c71 0 127 -25 167 -69l-31 -42c-36 42 -83 60 -137 60c-67 0 -121 -45 -121 -114
c0 -156 303 -124 303 -347c0 -91 -58 -178 -192 -178z" />
    <glyph glyph-name="Scaron" unicode="&#x160;" horiz-adv-x="459" 
d="M259 723h-52l-85 144h36l75 -112l72 112h36zM222 -12c-81 0 -145 33 -187 83l34 43c32 -42 87 -75 153 -75c94 0 135 60 135 124c0 181 -303 138 -303 348c0 101 80 167 179 167c71 0 127 -25 167 -69l-31 -42c-36 42 -83 60 -137 60c-67 0 -121 -45 -121 -114
c0 -156 303 -124 303 -347c0 -91 -58 -178 -192 -178z" />
    <glyph glyph-name="Scircumflex" unicode="&#x15c;" horiz-adv-x="459" 
d="M341 723h-36l-75 112l-72 -112h-36l82 144h52zM222 -12c-81 0 -145 33 -187 83l34 43c32 -42 87 -75 153 -75c94 0 135 60 135 124c0 181 -303 138 -303 348c0 101 80 167 179 167c71 0 127 -25 167 -69l-31 -42c-36 42 -83 60 -137 60c-67 0 -121 -45 -121 -114
c0 -156 303 -124 303 -347c0 -91 -58 -178 -192 -178z" />
    <glyph glyph-name="Scedilla" unicode="&#x15e;" horiz-adv-x="459" 
d="M217 -189c-35 0 -66 13 -85 29l16 32c22 -20 44 -28 69 -28c30 0 57 17 57 45c0 24 -13 38 -36 38c-14 0 -26 -6 -35 -16l-27 16l23 62c-70 6 -126 37 -164 82l34 43c32 -42 87 -75 153 -75c94 0 135 60 135 124c0 181 -303 138 -303 348c0 101 80 167 179 167
c71 0 127 -25 167 -69l-31 -42c-36 42 -83 60 -137 60c-67 0 -121 -45 -121 -114c0 -156 303 -124 303 -347c0 -88 -54 -172 -179 -178l-17 -45c9 7 20 11 33 11c33 0 59 -26 59 -65c0 -46 -41 -78 -93 -78z" />
    <glyph glyph-name="Scommaaccent" unicode="&#x218;" horiz-adv-x="459" 
d="M273 -137c0 -53 -31 -102 -66 -127l-27 21c31 22 54 60 55 89c0 0 -6 -1 -9 -1c-21 0 -36 17 -36 38s16 39 38 39c24 0 45 -21 45 -59zM222 -12c-81 0 -145 33 -187 83l34 43c32 -42 87 -75 153 -75c94 0 135 60 135 124c0 181 -303 138 -303 348c0 101 80 167 179 167
c71 0 127 -25 167 -69l-31 -42c-36 42 -83 60 -137 60c-67 0 -121 -45 -121 -114c0 -156 303 -124 303 -347c0 -91 -58 -178 -192 -178z" />
    <glyph glyph-name="uni1E60" unicode="&#x1e60;" horiz-adv-x="459" 
d="M222 -12c-81 0 -145 33 -187 83l34 43c32 -42 87 -75 153 -75c94 0 135 60 135 124c0 181 -303 138 -303 348c0 101 80 167 179 167c71 0 127 -25 167 -69l-31 -42c-36 42 -83 60 -137 60c-67 0 -121 -45 -121 -114c0 -156 303 -124 303 -347c0 -91 -58 -178 -192 -178z
M228 728c-19 0 -37 17 -37 37c0 21 18 38 37 38c21 0 38 -17 38 -38c0 -20 -17 -37 -38 -37z" />
    <glyph glyph-name="Tbar" unicode="&#x166;" horiz-adv-x="435" 
d="M245 0h-56v309h-118v37h118v271h-162v50h381v-50h-163v-271h112v-37h-112v-309z" />
    <glyph glyph-name="Tcaron" unicode="&#x164;" horiz-adv-x="435" 
d="M245 723h-52l-85 144h36l75 -112l72 112h36zM245 0h-56v617h-162v50h381v-50h-163v-617z" />
    <glyph glyph-name="Tcommaaccent" unicode="&#x162;" horiz-adv-x="435" 
d="M267 -137c0 -53 -31 -102 -66 -127l-27 21c31 22 54 60 55 89c0 0 -6 -1 -9 -1c-21 0 -36 17 -36 38s16 39 38 39c24 0 45 -21 45 -59zM245 0h-56v617h-162v50h381v-50h-163v-617z" />
    <glyph glyph-name="uni021A" unicode="&#x21a;" horiz-adv-x="435" 
d="M267 -137c0 -53 -31 -102 -66 -127l-27 21c31 22 54 60 55 89c0 0 -6 -1 -9 -1c-21 0 -36 17 -36 38s16 39 38 39c24 0 45 -21 45 -59zM245 0h-56v617h-162v50h381v-50h-163v-617z" />
    <glyph glyph-name="uni1E6A" unicode="&#x1e6a;" horiz-adv-x="435" 
d="M245 0h-56v617h-162v50h381v-50h-163v-617zM216 728c-19 0 -37 17 -37 37c0 21 18 38 37 38c21 0 38 -17 38 -38c0 -20 -17 -37 -38 -37z" />
    <glyph glyph-name="Uacute" unicode="&#xda;" horiz-adv-x="551" 
d="M406 867l-135 -144h-39l116 144h58zM276 -12c-128 0 -201 78 -201 222v457h56v-458c0 -114 53 -171 145 -171c91 0 144 57 144 171v458h56v-457c0 -144 -73 -222 -200 -222z" />
    <glyph glyph-name="Ubreve" unicode="&#x16c;" horiz-adv-x="551" 
d="M276 -12c-128 0 -201 78 -201 222v457h56v-458c0 -114 53 -171 145 -171c91 0 144 57 144 171v458h56v-457c0 -144 -73 -222 -200 -222zM424 789c-34 -45 -86 -74 -146 -74s-113 29 -147 74l29 24c26 -37 70 -61 118 -61c47 0 91 24 117 61z" />
    <glyph glyph-name="Ucircumflex" unicode="&#xdb;" horiz-adv-x="551" 
d="M387 723h-36l-75 112l-72 -112h-36l82 144h52zM276 -12c-128 0 -201 78 -201 222v457h56v-458c0 -114 53 -171 145 -171c91 0 144 57 144 171v458h56v-457c0 -144 -73 -222 -200 -222z" />
    <glyph glyph-name="Udieresis" unicode="&#xdc;" horiz-adv-x="551" 
d="M396 768c0 -20 -16 -37 -36 -37s-37 17 -37 37s17 36 37 36s36 -16 36 -36zM228 768c0 -20 -16 -37 -36 -37s-36 17 -36 37s16 36 36 36s36 -16 36 -36zM276 -12c-128 0 -201 78 -201 222v457h56v-458c0 -114 53 -171 145 -171c91 0 144 57 144 171v458h56v-457
c0 -144 -73 -222 -200 -222z" />
    <glyph glyph-name="Ugrave" unicode="&#xd9;" horiz-adv-x="551" 
d="M276 -12c-128 0 -201 78 -201 222v457h56v-458c0 -114 53 -171 145 -171c91 0 144 57 144 171v458h56v-457c0 -144 -73 -222 -200 -222zM319 723h-39l-135 144h58z" />
    <glyph glyph-name="Uhungarumlaut" unicode="&#x170;" horiz-adv-x="551" 
d="M276 -12c-128 0 -201 78 -201 222v457h56v-458c0 -114 53 -171 145 -171c91 0 144 57 144 171v458h56v-457c0 -144 -73 -222 -200 -222zM313 867l-96 -144h-33l77 144h52zM438 867l-96 -144h-33l77 144h52z" />
    <glyph glyph-name="Umacron" unicode="&#x16a;" horiz-adv-x="551" 
d="M276 -12c-128 0 -201 78 -201 222v457h56v-458c0 -114 53 -171 145 -171c91 0 144 57 144 171v458h56v-457c0 -144 -73 -222 -200 -222zM428 744h-304v37h304v-37z" />
    <glyph glyph-name="Uogonek" unicode="&#x172;" horiz-adv-x="551" 
d="M276 -12c-128 0 -201 78 -201 222v457h56v-458c0 -114 53 -171 145 -171c91 0 144 57 144 171v458h56v-457c0 -112 -44 -184 -123 -210c-43 -25 -73 -58 -73 -106c0 -33 16 -47 40 -47s37 14 45 39l30 -15c-10 -29 -33 -57 -76 -57c-42 0 -75 25 -75 79c0 36 17 69 42 95
h-10z" />
    <glyph glyph-name="Uring" unicode="&#x16e;" horiz-adv-x="551" 
d="M276 714c-48 0 -88 39 -88 88c0 48 40 88 88 88c49 0 87 -40 87 -88c0 -49 -38 -88 -87 -88zM276 744c32 0 57 26 57 58c0 31 -25 57 -57 57c-31 0 -57 -26 -57 -57c0 -32 26 -58 57 -58zM276 -12c-128 0 -201 78 -201 222v457h56v-458c0 -114 53 -171 145 -171
c91 0 144 57 144 171v458h56v-457c0 -144 -73 -222 -200 -222z" />
    <glyph glyph-name="Utilde" unicode="&#x168;" horiz-adv-x="551" 
d="M276 -12c-128 0 -201 78 -201 222v457h56v-458c0 -114 53 -171 145 -171c91 0 144 57 144 171v458h56v-457c0 -144 -73 -222 -200 -222zM327 721c-65 0 -60 103 -103 103c-25 0 -44 -29 -44 -97h-33c0 74 26 134 80 134c66 0 60 -103 103 -103c25 0 44 29 44 97h33
c0 -74 -25 -134 -80 -134z" />
    <glyph glyph-name="uni1EE4" unicode="&#x1ee4;" horiz-adv-x="551" 
d="M276 -12c-128 0 -201 78 -201 222v457h56v-458c0 -114 53 -171 145 -171c91 0 144 57 144 171v458h56v-457c0 -144 -73 -222 -200 -222zM278 -178c-19 0 -37 17 -37 37c0 21 18 38 37 38c21 0 38 -17 38 -38c0 -20 -17 -37 -38 -37z" />
    <glyph glyph-name="Uhorn" unicode="&#x1af;" horiz-adv-x="551" 
d="M581 729c0 -59 -39 -117 -105 -148v-371c0 -144 -73 -222 -200 -222c-128 0 -201 78 -201 222v457h56v-458c0 -114 53 -171 145 -171c91 0 144 57 144 171v458h56v-51c38 22 67 64 69 98c-1 0 -7 -1 -9 -1c-21 0 -36 16 -36 37c0 20 16 37 37 37c24 0 44 -21 44 -58z" />
    <glyph glyph-name="uni1EE6" unicode="&#x1ee6;" horiz-adv-x="551" 
d="M276 -12c-128 0 -201 78 -201 222v457h56v-458c0 -114 53 -171 145 -171c91 0 144 57 144 171v458h56v-457c0 -144 -73 -222 -200 -222zM241 764l-27 7c8 26 28 49 62 49c33 0 60 -19 60 -64c0 -22 -7 -40 -21 -59h-31c17 20 24 39 24 59c0 26 -14 38 -32 38
c-19 0 -30 -11 -35 -30z" />
    <glyph glyph-name="uni1EE8" unicode="&#x1ee8;" horiz-adv-x="551" 
d="M406 867l-135 -144h-39l116 144h58zM581 729c0 -59 -39 -117 -105 -148v-371c0 -144 -73 -222 -200 -222c-128 0 -201 78 -201 222v457h56v-458c0 -114 53 -171 145 -171c91 0 144 57 144 171v458h56v-51c38 22 67 64 69 98c-1 0 -7 -1 -9 -1c-21 0 -36 16 -36 37
c0 20 16 37 37 37c24 0 44 -21 44 -58z" />
    <glyph glyph-name="uni1EEA" unicode="&#x1eea;" horiz-adv-x="551" 
d="M319 723h-39l-135 144h58zM581 729c0 -59 -39 -117 -105 -148v-371c0 -144 -73 -222 -200 -222c-128 0 -201 78 -201 222v457h56v-458c0 -114 53 -171 145 -171c91 0 144 57 144 171v458h56v-51c38 22 67 64 69 98c-1 0 -7 -1 -9 -1c-21 0 -36 16 -36 37
c0 20 16 37 37 37c24 0 44 -21 44 -58z" />
    <glyph glyph-name="uni1EEC" unicode="&#x1eec;" horiz-adv-x="551" 
d="M241 764l-27 7c8 26 28 49 62 49c33 0 60 -19 60 -64c0 -22 -7 -40 -21 -59h-31c17 20 24 39 24 59c0 26 -14 38 -32 38c-19 0 -30 -11 -35 -30zM581 729c0 -59 -39 -117 -105 -148v-371c0 -144 -73 -222 -200 -222c-128 0 -201 78 -201 222v457h56v-458
c0 -114 53 -171 145 -171c91 0 144 57 144 171v458h56v-51c38 22 67 64 69 98c-1 0 -7 -1 -9 -1c-21 0 -36 16 -36 37c0 20 16 37 37 37c24 0 44 -21 44 -58z" />
    <glyph glyph-name="uni1EEE" unicode="&#x1eee;" horiz-adv-x="551" 
d="M581 729c0 -59 -39 -117 -105 -148v-371c0 -144 -73 -222 -200 -222c-128 0 -201 78 -201 222v457h56v-458c0 -114 53 -171 145 -171c91 0 144 57 144 171v458h56v-51c38 22 67 64 69 98c-1 0 -7 -1 -9 -1c-21 0 -36 16 -36 37c0 20 16 37 37 37c24 0 44 -21 44 -58z
M325 721c-65 0 -60 103 -103 103c-25 0 -44 -29 -44 -97h-33c0 74 26 134 80 134c66 0 60 -103 103 -103c25 0 44 29 44 97h33c0 -74 -25 -134 -80 -134z" />
    <glyph glyph-name="uni1EF0" unicode="&#x1ef0;" horiz-adv-x="551" 
d="M278 -178c-19 0 -37 17 -37 37c0 21 18 38 37 38c21 0 38 -17 38 -38c0 -20 -17 -37 -38 -37zM581 729c0 -59 -39 -117 -105 -148v-371c0 -144 -73 -222 -200 -222c-128 0 -201 78 -201 222v457h56v-458c0 -114 53 -171 145 -171c91 0 144 57 144 171v458h56v-51
c38 22 67 64 69 98c-1 0 -7 -1 -9 -1c-21 0 -36 16 -36 37c0 20 16 37 37 37c24 0 44 -21 44 -58z" />
    <glyph glyph-name="Wacute" unicode="&#x1e82;" horiz-adv-x="693" 
d="M481 867l-135 -144h-39l116 144h58zM526 0h-61l-119 562l-118 -562h-61l-147 667h60l119 -578l122 578h51l122 -578l119 578h60z" />
    <glyph glyph-name="Wcircumflex" unicode="&#x174;" horiz-adv-x="693" 
d="M457 723h-36l-75 112l-72 -112h-36l82 144h52zM526 0h-61l-119 562l-118 -562h-61l-147 667h60l119 -578l122 578h51l122 -578l119 578h60z" />
    <glyph glyph-name="Wdieresis" unicode="&#x1e84;" horiz-adv-x="693" 
d="M467 768c0 -20 -16 -37 -36 -37s-37 17 -37 37s17 36 37 36s36 -16 36 -36zM299 768c0 -20 -16 -37 -36 -37s-36 17 -36 37s16 36 36 36s36 -16 36 -36zM526 0h-61l-119 562l-118 -562h-61l-147 667h60l119 -578l122 578h51l122 -578l119 578h60z" />
    <glyph glyph-name="Wgrave" unicode="&#x1e80;" horiz-adv-x="693" 
d="M526 0h-61l-119 562l-118 -562h-61l-147 667h60l119 -578l122 578h51l122 -578l119 578h60zM390 723h-39l-135 144h58z" />
    <glyph glyph-name="Yacute" unicode="&#xdd;" horiz-adv-x="483" 
d="M269 0h-55v286l-206 381h64l169 -325l171 325h63l-206 -381v-286zM372 867l-135 -144h-39l116 144h58z" />
    <glyph glyph-name="Ycircumflex" unicode="&#x176;" horiz-adv-x="483" 
d="M352 723h-36l-75 112l-72 -112h-36l82 144h52zM269 0h-55v286l-206 381h64l169 -325l171 325h63l-206 -381v-286z" />
    <glyph glyph-name="Ydieresis" unicode="&#x178;" horiz-adv-x="483" 
d="M365 768c0 -20 -16 -37 -36 -37s-37 17 -37 37s17 36 37 36s36 -16 36 -36zM197 768c0 -20 -16 -37 -36 -37s-36 17 -36 37s16 36 36 36s36 -16 36 -36zM269 0h-55v286l-206 381h64l169 -325l171 325h63l-206 -381v-286z" />
    <glyph glyph-name="Ygrave" unicode="&#x1ef2;" horiz-adv-x="483" 
d="M269 0h-55v286l-206 381h64l169 -325l171 325h63l-206 -381v-286zM285 723h-39l-135 144h58z" />
    <glyph glyph-name="Zacute" unicode="&#x179;" horiz-adv-x="453" 
d="M357 867l-135 -144h-39l116 144h58zM410 0h-368v49l296 568h-296v50h361v-48l-297 -569h304v-50z" />
    <glyph glyph-name="Zcaron" unicode="&#x17d;" horiz-adv-x="453" 
d="M254 723h-52l-85 144h36l75 -112l72 112h36zM410 0h-368v49l296 568h-296v50h361v-48l-297 -569h304v-50z" />
    <glyph glyph-name="Zdotaccent" unicode="&#x17b;" horiz-adv-x="453" 
d="M410 0h-368v49l296 568h-296v50h361v-48l-297 -569h304v-50zM225 728c-19 0 -37 17 -37 37c0 21 18 38 37 38c21 0 38 -17 38 -38c0 -20 -17 -37 -38 -37z" />
    <glyph glyph-name="Eth" unicode="&#xd0;" horiz-adv-x="573" 
d="M261 0h-162v309h-82v44h82v314h162c168 0 259 -146 259 -334c0 -190 -91 -333 -259 -333zM261 50c134 0 200 124 200 283s-66 284 -200 284h-106v-264h131v-44h-131v-259h106z" />
    <glyph glyph-name="Thorn" unicode="&#xde;" horiz-adv-x="468" 
d="M131 0h-56v667h56v-124h128c116 0 175 -91 175 -196s-60 -193 -175 -193h-128v-154zM255 204c76 0 120 59 120 143s-44 145 -120 145h-124v-288h124z" />
    <glyph glyph-name="aacute" unicode="&#xe1;" horiz-adv-x="440" 
d="M369 0h-51v54c-32 -46 -78 -66 -127 -66c-79 0 -145 62 -145 161c0 100 66 160 145 160c49 0 95 -19 127 -64v94c0 72 -37 112 -102 112c-47 0 -85 -18 -123 -62l-26 36c44 48 94 70 154 70c92 0 148 -48 148 -152v-343zM205 27c45 0 88 22 113 68v106
c-25 47 -68 68 -113 68c-67 0 -106 -55 -106 -121s39 -121 106 -121zM351 700l-135 -144h-39l116 144h58z" />
    <glyph glyph-name="abreve" unicode="&#x103;" horiz-adv-x="440" 
d="M369 0h-51v54c-32 -46 -78 -66 -127 -66c-79 0 -145 62 -145 161c0 100 66 160 145 160c49 0 95 -19 127 -64v94c0 72 -37 112 -102 112c-47 0 -85 -18 -123 -62l-26 36c44 48 94 70 154 70c92 0 148 -48 148 -152v-343zM205 27c45 0 88 22 113 68v106
c-25 47 -68 68 -113 68c-67 0 -106 -55 -106 -121s39 -121 106 -121zM366 622c-34 -45 -86 -74 -146 -74s-113 29 -147 74l29 24c26 -37 70 -61 118 -61c47 0 91 24 117 61z" />
    <glyph glyph-name="acircumflex" unicode="&#xe2;" horiz-adv-x="440" 
d="M369 0h-51v54c-32 -46 -78 -66 -127 -66c-79 0 -145 62 -145 161c0 100 66 160 145 160c49 0 95 -19 127 -64v94c0 72 -37 112 -102 112c-47 0 -85 -18 -123 -62l-26 36c44 48 94 70 154 70c92 0 148 -48 148 -152v-343zM205 27c45 0 88 22 113 68v106
c-25 47 -68 68 -113 68c-67 0 -106 -55 -106 -121s39 -121 106 -121zM333 556h-36l-75 112l-72 -112h-36l82 144h52z" />
    <glyph glyph-name="adieresis" unicode="&#xe4;" horiz-adv-x="440" 
d="M369 0h-51v54c-32 -46 -78 -66 -127 -66c-79 0 -145 62 -145 161c0 100 66 160 145 160c49 0 95 -19 127 -64v94c0 72 -37 112 -102 112c-47 0 -85 -18 -123 -62l-26 36c44 48 94 70 154 70c92 0 148 -48 148 -152v-343zM205 27c45 0 88 22 113 68v106
c-25 47 -68 68 -113 68c-67 0 -106 -55 -106 -121s39 -121 106 -121zM341 601c0 -20 -16 -37 -36 -37s-37 17 -37 37s17 36 37 36s36 -16 36 -36zM173 601c0 -20 -16 -37 -36 -37s-36 17 -36 37s16 36 36 36s36 -16 36 -36z" />
    <glyph glyph-name="agrave" unicode="&#xe0;" horiz-adv-x="440" 
d="M369 0h-51v54c-32 -46 -78 -66 -127 -66c-79 0 -145 62 -145 161c0 100 66 160 145 160c49 0 95 -19 127 -64v94c0 72 -37 112 -102 112c-47 0 -85 -18 -123 -62l-26 36c44 48 94 70 154 70c92 0 148 -48 148 -152v-343zM205 27c45 0 88 22 113 68v106
c-25 47 -68 68 -113 68c-67 0 -106 -55 -106 -121s39 -121 106 -121zM265 556h-39l-135 144h58z" />
    <glyph glyph-name="amacron" unicode="&#x101;" horiz-adv-x="440" 
d="M369 0h-51v54c-32 -46 -78 -66 -127 -66c-79 0 -145 62 -145 161c0 100 66 160 145 160c49 0 95 -19 127 -64v94c0 72 -37 112 -102 112c-47 0 -85 -18 -123 -62l-26 36c44 48 94 70 154 70c92 0 148 -48 148 -152v-343zM205 27c45 0 88 22 113 68v106
c-25 47 -68 68 -113 68c-67 0 -106 -55 -106 -121s39 -121 106 -121zM372 577h-304v37h304v-37z" />
    <glyph glyph-name="aogonek" unicode="&#x105;" horiz-adv-x="440" 
d="M380 -114l30 -15c-10 -29 -33 -57 -76 -57c-42 0 -75 25 -75 79c0 43 24 82 59 110v51c-32 -46 -78 -66 -127 -66c-79 0 -145 62 -145 161c0 100 66 160 145 160c49 0 95 -19 127 -64v94c0 72 -37 112 -102 112c-47 0 -85 -18 -123 -62l-26 36c44 48 94 70 154 70
c92 0 148 -48 148 -152v-343c-43 -25 -74 -58 -74 -106c0 -33 16 -47 40 -47s37 14 45 39zM205 27c45 0 88 22 113 68v106c-25 47 -68 68 -113 68c-67 0 -106 -55 -106 -121s39 -121 106 -121z" />
    <glyph glyph-name="aring" unicode="&#xe5;" horiz-adv-x="440" 
d="M369 0h-51v54c-32 -46 -78 -66 -127 -66c-79 0 -145 62 -145 161c0 100 66 160 145 160c49 0 95 -19 127 -64v94c0 72 -37 112 -102 112c-47 0 -85 -18 -123 -62l-26 36c44 48 94 70 154 70c92 0 148 -48 148 -152v-343zM205 27c45 0 88 22 113 68v106
c-25 47 -68 68 -113 68c-67 0 -106 -55 -106 -121s39 -121 106 -121zM221 549c-48 0 -88 39 -88 88c0 48 40 88 88 88c49 0 87 -40 87 -88c0 -49 -38 -88 -87 -88zM221 579c32 0 57 26 57 58c0 31 -25 57 -57 57c-31 0 -57 -26 -57 -57c0 -32 26 -58 57 -58z" />
    <glyph glyph-name="atilde" unicode="&#xe3;" horiz-adv-x="440" 
d="M369 0h-51v54c-32 -46 -78 -66 -127 -66c-79 0 -145 62 -145 161c0 100 66 160 145 160c49 0 95 -19 127 -64v94c0 72 -37 112 -102 112c-47 0 -85 -18 -123 -62l-26 36c44 48 94 70 154 70c92 0 148 -48 148 -152v-343zM205 27c45 0 88 22 113 68v106
c-25 47 -68 68 -113 68c-67 0 -106 -55 -106 -121s39 -121 106 -121zM272 554c-65 0 -60 103 -103 103c-25 0 -44 -29 -44 -97h-33c0 74 26 134 80 134c66 0 60 -103 103 -103c25 0 44 29 44 97h33c0 -74 -25 -134 -80 -134z" />
    <glyph glyph-name="uni1EA1" unicode="&#x1ea1;" horiz-adv-x="440" 
d="M369 0h-51v54c-32 -46 -78 -66 -127 -66c-79 0 -145 62 -145 161c0 100 66 160 145 160c49 0 95 -19 127 -64v94c0 72 -37 112 -102 112c-47 0 -85 -18 -123 -62l-26 36c44 48 94 70 154 70c92 0 148 -48 148 -152v-343zM205 27c45 0 88 22 113 68v106
c-25 47 -68 68 -113 68c-67 0 -106 -55 -106 -121s39 -121 106 -121zM220 -178c-19 0 -37 17 -37 37c0 21 18 38 37 38c21 0 38 -17 38 -38c0 -20 -17 -37 -38 -37z" />
    <glyph glyph-name="uni1EA3" unicode="&#x1ea3;" horiz-adv-x="440" 
d="M369 0h-51v54c-32 -46 -78 -66 -127 -66c-79 0 -145 62 -145 161c0 100 66 160 145 160c49 0 95 -19 127 -64v94c0 72 -37 112 -102 112c-47 0 -85 -18 -123 -62l-26 36c44 48 94 70 154 70c92 0 148 -48 148 -152v-343zM205 27c45 0 88 22 113 68v106
c-25 47 -68 68 -113 68c-67 0 -106 -55 -106 -121s39 -121 106 -121zM185 594l-27 7c8 26 28 49 62 49c33 0 60 -19 60 -64c0 -22 -7 -40 -21 -59h-31c17 20 24 39 24 59c0 26 -14 38 -32 38c-19 0 -30 -11 -35 -30z" />
    <glyph glyph-name="uni1EA5" unicode="&#x1ea5;" horiz-adv-x="440" 
d="M369 0h-51v54c-32 -46 -78 -66 -127 -66c-79 0 -145 62 -145 161c0 100 66 160 145 160c49 0 95 -19 127 -64v94c0 72 -37 112 -102 112c-47 0 -85 -18 -123 -62l-26 36c44 48 94 70 154 70c92 0 148 -48 148 -152v-343zM205 27c45 0 88 22 113 68v106
c-25 47 -68 68 -113 68c-67 0 -106 -55 -106 -121s39 -121 106 -121zM333 556h-36l-75 112l-72 -112h-36l82 144h52zM474 771l-135 -144h-39l116 144h58z" />
    <glyph glyph-name="uni1EAD" unicode="&#x1ead;" horiz-adv-x="440" 
d="M369 0h-51v54c-32 -46 -78 -66 -127 -66c-79 0 -145 62 -145 161c0 100 66 160 145 160c49 0 95 -19 127 -64v94c0 72 -37 112 -102 112c-47 0 -85 -18 -123 -62l-26 36c44 48 94 70 154 70c92 0 148 -48 148 -152v-343zM205 27c45 0 88 22 113 68v106
c-25 47 -68 68 -113 68c-67 0 -106 -55 -106 -121s39 -121 106 -121zM329 556h-36l-75 112l-72 -112h-36l82 144h52zM220 -178c-19 0 -37 17 -37 37c0 21 18 38 37 38c21 0 38 -17 38 -38c0 -20 -17 -37 -38 -37z" />
    <glyph glyph-name="uni1EA7" unicode="&#x1ea7;" horiz-adv-x="440" 
d="M369 0h-51v54c-32 -46 -78 -66 -127 -66c-79 0 -145 62 -145 161c0 100 66 160 145 160c49 0 95 -19 127 -64v94c0 72 -37 112 -102 112c-47 0 -85 -18 -123 -62l-26 36c44 48 94 70 154 70c92 0 148 -48 148 -152v-343zM205 27c45 0 88 22 113 68v106
c-25 47 -68 68 -113 68c-67 0 -106 -55 -106 -121s39 -121 106 -121zM333 556h-36l-75 112l-72 -112h-36l82 144h52zM143 627h-39l-135 144h58z" />
    <glyph glyph-name="uni1EA9" unicode="&#x1ea9;" horiz-adv-x="440" 
d="M369 0h-51v54c-32 -46 -78 -66 -127 -66c-79 0 -145 62 -145 161c0 100 66 160 145 160c49 0 95 -19 127 -64v94c0 72 -37 112 -102 112c-47 0 -85 -18 -123 -62l-26 36c44 48 94 70 154 70c92 0 148 -48 148 -152v-343zM205 27c45 0 88 22 113 68v106
c-25 47 -68 68 -113 68c-67 0 -106 -55 -106 -121s39 -121 106 -121zM333 556h-36l-75 112l-72 -112h-36l82 144h52zM261 734l-27 7c8 26 28 49 62 49c33 0 60 -19 60 -64c0 -22 -7 -40 -21 -59h-31c17 20 24 39 24 59c0 26 -14 38 -32 38c-19 0 -30 -11 -35 -30z" />
    <glyph glyph-name="uni1EAF" unicode="&#x1eaf;" horiz-adv-x="440" 
d="M369 0h-51v54c-32 -46 -78 -66 -127 -66c-79 0 -145 62 -145 161c0 100 66 160 145 160c49 0 95 -19 127 -64v94c0 72 -37 112 -102 112c-47 0 -85 -18 -123 -62l-26 36c44 48 94 70 154 70c92 0 148 -48 148 -152v-343zM205 27c45 0 88 22 113 68v106
c-25 47 -68 68 -113 68c-67 0 -106 -55 -106 -121s39 -121 106 -121zM351 761l-135 -144h-39l116 144h58zM368 600c-34 -45 -86 -74 -146 -74s-113 29 -147 74l29 24c26 -37 70 -61 118 -61c47 0 91 24 117 61z" />
    <glyph glyph-name="uni1EAB" unicode="&#x1eab;" horiz-adv-x="440" 
d="M369 0h-51v54c-32 -46 -78 -66 -127 -66c-79 0 -145 62 -145 161c0 100 66 160 145 160c49 0 95 -19 127 -64v94c0 72 -37 112 -102 112c-47 0 -85 -18 -123 -62l-26 36c44 48 94 70 154 70c92 0 148 -48 148 -152v-343zM205 27c45 0 88 22 113 68v106
c-25 47 -68 68 -113 68c-67 0 -106 -55 -106 -121s39 -121 106 -121zM333 523h-36l-75 112l-72 -112h-36l82 144h52zM269 682c-65 0 -60 103 -103 103c-25 0 -44 -29 -44 -97h-33c0 74 26 134 80 134c66 0 60 -103 103 -103c25 0 44 29 44 97h33c0 -74 -25 -134 -80 -134z
" />
    <glyph glyph-name="uni1EB1" unicode="&#x1eb1;" horiz-adv-x="440" 
d="M369 0h-51v54c-32 -46 -78 -66 -127 -66c-79 0 -145 62 -145 161c0 100 66 160 145 160c49 0 95 -19 127 -64v94c0 72 -37 112 -102 112c-47 0 -85 -18 -123 -62l-26 36c44 48 94 70 154 70c92 0 148 -48 148 -152v-343zM205 27c45 0 88 22 113 68v106
c-25 47 -68 68 -113 68c-67 0 -106 -55 -106 -121s39 -121 106 -121zM263 617h-39l-135 144h58zM368 602c-34 -45 -86 -74 -146 -74s-113 29 -147 74l29 24c26 -37 70 -61 118 -61c47 0 91 24 117 61z" />
    <glyph glyph-name="uni1EB3" unicode="&#x1eb3;" horiz-adv-x="440" 
d="M369 0h-51v54c-32 -46 -78 -66 -127 -66c-79 0 -145 62 -145 161c0 100 66 160 145 160c49 0 95 -19 127 -64v94c0 72 -37 112 -102 112c-47 0 -85 -18 -123 -62l-26 36c44 48 94 70 154 70c92 0 148 -48 148 -152v-343zM205 27c45 0 88 22 113 68v106
c-25 47 -68 68 -113 68c-67 0 -106 -55 -106 -121s39 -121 106 -121zM187 680l-27 7c8 26 28 49 62 49c33 0 60 -19 60 -64c0 -22 -7 -40 -21 -59h-31c17 20 24 39 24 59c0 26 -14 38 -32 38c-19 0 -30 -11 -35 -30zM368 602c-34 -45 -86 -74 -146 -74s-113 29 -147 74
l29 24c26 -37 70 -61 118 -61c47 0 91 24 117 61z" />
    <glyph glyph-name="uni1EB5" unicode="&#x1eb5;" horiz-adv-x="440" 
d="M369 0h-51v54c-32 -46 -78 -66 -127 -66c-79 0 -145 62 -145 161c0 100 66 160 145 160c49 0 95 -19 127 -64v94c0 72 -37 112 -102 112c-47 0 -85 -18 -123 -62l-26 36c44 48 94 70 154 70c92 0 148 -48 148 -152v-343zM205 27c45 0 88 22 113 68v106
c-25 47 -68 68 -113 68c-67 0 -106 -55 -106 -121s39 -121 106 -121zM368 602c-34 -45 -86 -74 -146 -74s-113 29 -147 74l29 24c26 -37 70 -61 118 -61c47 0 91 24 117 61zM268 648c-65 0 -60 103 -103 103c-25 0 -44 -29 -44 -97h-33c0 74 26 134 80 134
c66 0 60 -103 103 -103c25 0 44 29 44 97h33c0 -74 -25 -134 -80 -134z" />
    <glyph glyph-name="uni1EB7" unicode="&#x1eb7;" horiz-adv-x="440" 
d="M369 0h-51v54c-32 -46 -78 -66 -127 -66c-79 0 -145 62 -145 161c0 100 66 160 145 160c49 0 95 -19 127 -64v94c0 72 -37 112 -102 112c-47 0 -85 -18 -123 -62l-26 36c44 48 94 70 154 70c92 0 148 -48 148 -152v-343zM205 27c45 0 88 22 113 68v106
c-25 47 -68 68 -113 68c-67 0 -106 -55 -106 -121s39 -121 106 -121zM220 -178c-19 0 -37 17 -37 37c0 21 18 38 37 38c21 0 38 -17 38 -38c0 -20 -17 -37 -38 -37zM366 622c-34 -45 -86 -74 -146 -74s-113 29 -147 74l29 24c26 -37 70 -61 118 -61c47 0 91 24 117 61z" />
    <glyph glyph-name="ae" unicode="&#xe6;" horiz-adv-x="730" 
d="M685 225h-301c3 -111 53 -193 140 -193c43 0 83 23 112 65l31 -30c-37 -49 -85 -79 -146 -79c-79 0 -130 45 -159 114c-24 -66 -79 -114 -156 -114c-94 0 -160 61 -160 160s66 161 152 161c52 0 101 -18 136 -63v93c0 72 -39 112 -110 112c-49 0 -91 -18 -131 -62l-26 36
c44 48 99 70 162 70c68 0 127 -31 139 -104c23 56 70 104 141 104c121 0 176 -117 176 -254v-16zM384 265h250c-1 83 -33 187 -125 187c-88 0 -123 -107 -125 -187zM334 180v20c-27 47 -73 69 -122 69c-68 0 -113 -47 -113 -119s45 -119 113 -119c74 0 122 64 122 149z" />
    <glyph glyph-name="aeacute" unicode="&#x1fd;" horiz-adv-x="730" 
d="M475 700l-135 -144h-39l116 144h58zM685 225h-301c3 -111 53 -193 140 -193c43 0 83 23 112 65l31 -30c-37 -49 -85 -79 -146 -79c-79 0 -130 45 -159 114c-24 -66 -79 -114 -156 -114c-94 0 -160 61 -160 160s66 161 152 161c52 0 101 -18 136 -63v93
c0 72 -39 112 -110 112c-49 0 -91 -18 -131 -62l-26 36c44 48 99 70 162 70c68 0 127 -31 139 -104c23 56 70 104 141 104c121 0 176 -117 176 -254v-16zM384 265h250c-1 83 -33 187 -125 187c-88 0 -123 -107 -125 -187zM334 180v20c-27 47 -73 69 -122 69
c-68 0 -113 -47 -113 -119s45 -119 113 -119c74 0 122 64 122 149z" />
    <glyph glyph-name="aacute.alt1" 
d="M358 700l-135 -144h-39l116 144h58zM398 0h-50v72c-28 -49 -77 -84 -129 -84c-109 0 -171 103 -171 253c0 148 62 254 171 254c50 0 99 -30 128 -86v74h51v-483zM228 33c51 0 100 42 120 89v237c-20 47 -69 90 -120 90c-87 0 -126 -95 -126 -208s39 -208 126 -208z" />
    <glyph glyph-name="abreve.alt1" 
d="M398 0h-50v72c-28 -49 -77 -84 -129 -84c-109 0 -171 103 -171 253c0 148 62 254 171 254c50 0 99 -30 128 -86v74h51v-483zM228 33c51 0 100 42 120 89v237c-20 47 -69 90 -120 90c-87 0 -126 -95 -126 -208s39 -208 126 -208zM384 622c-34 -45 -86 -74 -146 -74
s-113 29 -147 74l29 24c26 -37 70 -61 118 -61c47 0 91 24 117 61z" />
    <glyph glyph-name="acircumflex.alt1" 
d="M348 556h-36l-75 112l-72 -112h-36l82 144h52zM398 0h-50v72c-28 -49 -77 -84 -129 -84c-109 0 -171 103 -171 253c0 148 62 254 171 254c50 0 99 -30 128 -86v74h51v-483zM228 33c51 0 100 42 120 89v237c-20 47 -69 90 -120 90c-87 0 -126 -95 -126 -208
s39 -208 126 -208z" />
    <glyph glyph-name="adieresis.alt1" 
d="M357 601c0 -20 -16 -37 -36 -37s-37 17 -37 37s17 36 37 36s36 -16 36 -36zM189 601c0 -20 -16 -37 -36 -37s-36 17 -36 37s16 36 36 36s36 -16 36 -36zM398 0h-50v72c-28 -49 -77 -84 -129 -84c-109 0 -171 103 -171 253c0 148 62 254 171 254c50 0 99 -30 128 -86v74
h51v-483zM228 33c51 0 100 42 120 89v237c-20 47 -69 90 -120 90c-87 0 -126 -95 -126 -208s39 -208 126 -208z" />
    <glyph glyph-name="agrave.alt1" 
d="M398 0h-50v72c-28 -49 -77 -84 -129 -84c-109 0 -171 103 -171 253c0 148 62 254 171 254c50 0 99 -30 128 -86v74h51v-483zM228 33c51 0 100 42 120 89v237c-20 47 -69 90 -120 90c-87 0 -126 -95 -126 -208s39 -208 126 -208zM271 556h-39l-135 144h58z" />
    <glyph glyph-name="amacron.alt1" 
d="M392 577h-304v37h304v-37zM398 0h-50v72c-28 -49 -77 -84 -129 -84c-109 0 -171 103 -171 253c0 148 62 254 171 254c50 0 99 -30 128 -86v74h51v-483zM228 33c51 0 100 42 120 89v237c-20 47 -69 90 -120 90c-87 0 -126 -95 -126 -208s39 -208 126 -208z" />
    <glyph glyph-name="aogonek.alt1" 
d="M398 0c-43 -25 -74 -58 -74 -106c0 -33 16 -47 40 -47s37 14 45 39l30 -15c-10 -29 -33 -57 -76 -57c-42 0 -75 25 -75 79c0 44 25 83 60 111v68c-28 -49 -77 -84 -129 -84c-109 0 -171 103 -171 253c0 148 62 254 171 254c50 0 99 -30 128 -86v74h51v-483zM228 33
c51 0 100 42 120 89v237c-20 47 -69 90 -120 90c-87 0 -126 -95 -126 -208s39 -208 126 -208z" />
    <glyph glyph-name="aring.alt1" 
d="M237 549c-48 0 -88 39 -88 88c0 48 40 88 88 88c49 0 87 -40 87 -88c0 -49 -38 -88 -87 -88zM237 579c32 0 57 26 57 58c0 31 -25 57 -57 57c-31 0 -57 -26 -57 -57c0 -32 26 -58 57 -58zM398 0h-50v72c-28 -49 -77 -84 -129 -84c-109 0 -171 103 -171 253
c0 148 62 254 171 254c50 0 99 -30 128 -86v74h51v-483zM228 33c51 0 100 42 120 89v237c-20 47 -69 90 -120 90c-87 0 -126 -95 -126 -208s39 -208 126 -208z" />
    <glyph glyph-name="atilde.alt1" 
d="M398 0h-50v72c-28 -49 -77 -84 -129 -84c-109 0 -171 103 -171 253c0 148 62 254 171 254c50 0 99 -30 128 -86v74h51v-483zM228 33c51 0 100 42 120 89v237c-20 47 -69 90 -120 90c-87 0 -126 -95 -126 -208s39 -208 126 -208zM287 554c-65 0 -60 103 -103 103
c-25 0 -44 -29 -44 -97h-33c0 74 26 134 80 134c66 0 60 -103 103 -103c25 0 44 29 44 97h33c0 -74 -25 -134 -80 -134z" />
    <glyph glyph-name="uni1EA1.alt1" 
d="M398 0h-50v72c-28 -49 -77 -84 -129 -84c-109 0 -171 103 -171 253c0 148 62 254 171 254c50 0 99 -30 128 -86v74h51v-483zM228 33c51 0 100 42 120 89v237c-20 47 -69 90 -120 90c-87 0 -126 -95 -126 -208s39 -208 126 -208zM236 -178c-19 0 -37 17 -37 37
c0 21 18 38 37 38c21 0 38 -17 38 -38c0 -20 -17 -37 -38 -37z" />
    <glyph glyph-name="uni1EA3.alt1" 
d="M398 0h-50v72c-28 -49 -77 -84 -129 -84c-109 0 -171 103 -171 253c0 148 62 254 171 254c50 0 99 -30 128 -86v74h51v-483zM228 33c51 0 100 42 120 89v237c-20 47 -69 90 -120 90c-87 0 -126 -95 -126 -208s39 -208 126 -208zM205 594l-27 7c8 26 28 49 62 49
c33 0 60 -19 60 -64c0 -22 -7 -40 -21 -59h-31c17 20 24 39 24 59c0 26 -14 38 -32 38c-19 0 -30 -11 -35 -30z" />
    <glyph glyph-name="uni1EA5.alt1" 
d="M349 556h-36l-75 112l-72 -112h-36l82 144h52zM490 771l-135 -144h-39l116 144h58zM398 0h-50v72c-28 -49 -77 -84 -129 -84c-109 0 -171 103 -171 253c0 148 62 254 171 254c50 0 99 -30 128 -86v74h51v-483zM228 33c51 0 100 42 120 89v237c-20 47 -69 90 -120 90
c-87 0 -126 -95 -126 -208s39 -208 126 -208z" />
    <glyph glyph-name="uni1EAD.alt1" 
d="M350 556h-36l-75 112l-72 -112h-36l82 144h52zM398 0h-50v72c-28 -49 -77 -84 -129 -84c-109 0 -171 103 -171 253c0 148 62 254 171 254c50 0 99 -30 128 -86v74h51v-483zM228 33c51 0 100 42 120 89v237c-20 47 -69 90 -120 90c-87 0 -126 -95 -126 -208
s39 -208 126 -208zM239 -178c-19 0 -37 17 -37 37c0 21 18 38 37 38c21 0 38 -17 38 -38c0 -20 -17 -37 -38 -37z" />
    <glyph glyph-name="uni1EA7.alt1" 
d="M349 556h-36l-75 112l-72 -112h-36l82 144h52zM398 0h-50v72c-28 -49 -77 -84 -129 -84c-109 0 -171 103 -171 253c0 148 62 254 171 254c50 0 99 -30 128 -86v74h51v-483zM228 33c51 0 100 42 120 89v237c-20 47 -69 90 -120 90c-87 0 -126 -95 -126 -208
s39 -208 126 -208zM160 627h-39l-135 144h58z" />
    <glyph glyph-name="uni1EA9.alt1" 
d="M349 556h-36l-75 112l-72 -112h-36l82 144h52zM398 0h-50v72c-28 -49 -77 -84 -129 -84c-109 0 -171 103 -171 253c0 148 62 254 171 254c50 0 99 -30 128 -86v74h51v-483zM228 33c51 0 100 42 120 89v237c-20 47 -69 90 -120 90c-87 0 -126 -95 -126 -208
s39 -208 126 -208zM277 734l-27 7c8 26 28 49 62 49c33 0 60 -19 60 -64c0 -22 -7 -40 -21 -59h-31c17 20 24 39 24 59c0 26 -14 38 -32 38c-19 0 -30 -11 -35 -30z" />
    <glyph glyph-name="uni1EAF.alt1" 
d="M366 761l-135 -144h-39l116 144h58zM398 0h-50v72c-28 -49 -77 -84 -129 -84c-109 0 -171 103 -171 253c0 148 62 254 171 254c50 0 99 -30 128 -86v74h51v-483zM228 33c51 0 100 42 120 89v237c-20 47 -69 90 -120 90c-87 0 -126 -95 -126 -208s39 -208 126 -208z
M383 600c-34 -45 -86 -74 -146 -74s-113 29 -147 74l29 24c26 -37 70 -61 118 -61c47 0 91 24 117 61z" />
    <glyph glyph-name="uni1EAB.alt1" 
d="M350 523h-36l-75 112l-72 -112h-36l82 144h52zM398 0h-50v72c-28 -49 -77 -84 -129 -84c-109 0 -171 103 -171 253c0 148 62 254 171 254c50 0 99 -30 128 -86v74h51v-483zM228 33c51 0 100 42 120 89v237c-20 47 -69 90 -120 90c-87 0 -126 -95 -126 -208
s39 -208 126 -208zM286 682c-65 0 -60 103 -103 103c-25 0 -44 -29 -44 -97h-33c0 74 26 134 80 134c66 0 60 -103 103 -103c25 0 44 29 44 97h33c0 -74 -25 -134 -80 -134z" />
    <glyph glyph-name="uni1EB1.alt1" 
d="M398 0h-50v72c-28 -49 -77 -84 -129 -84c-109 0 -171 103 -171 253c0 148 62 254 171 254c50 0 99 -30 128 -86v74h51v-483zM228 33c51 0 100 42 120 89v237c-20 47 -69 90 -120 90c-87 0 -126 -95 -126 -208s39 -208 126 -208zM278 617h-39l-135 144h58zM383 602
c-34 -45 -86 -74 -146 -74s-113 29 -147 74l29 24c26 -37 70 -61 118 -61c47 0 91 24 117 61z" />
    <glyph glyph-name="uni1EB3.alt1" 
d="M398 0h-50v72c-28 -49 -77 -84 -129 -84c-109 0 -171 103 -171 253c0 148 62 254 171 254c50 0 99 -30 128 -86v74h51v-483zM228 33c51 0 100 42 120 89v237c-20 47 -69 90 -120 90c-87 0 -126 -95 -126 -208s39 -208 126 -208zM202 680l-27 7c8 26 28 49 62 49
c33 0 60 -19 60 -64c0 -22 -7 -40 -21 -59h-31c17 20 24 39 24 59c0 26 -14 38 -32 38c-19 0 -30 -11 -35 -30zM383 602c-34 -45 -86 -74 -146 -74s-113 29 -147 74l29 24c26 -37 70 -61 118 -61c47 0 91 24 117 61z" />
    <glyph glyph-name="uni1EB5.alt1" 
d="M383 602c-34 -45 -86 -74 -146 -74s-113 29 -147 74l29 24c26 -37 70 -61 118 -61c47 0 91 24 117 61zM398 0h-50v72c-28 -49 -77 -84 -129 -84c-109 0 -171 103 -171 253c0 148 62 254 171 254c50 0 99 -30 128 -86v74h51v-483zM228 33c51 0 100 42 120 89v237
c-20 47 -69 90 -120 90c-87 0 -126 -95 -126 -208s39 -208 126 -208zM283 648c-65 0 -60 103 -103 103c-25 0 -44 -29 -44 -97h-33c0 74 26 134 80 134c66 0 60 -103 103 -103c25 0 44 29 44 97h33c0 -74 -25 -134 -80 -134z" />
    <glyph glyph-name="uni1EB7.alt1" 
d="M398 0h-50v72c-28 -49 -77 -84 -129 -84c-109 0 -171 103 -171 253c0 148 62 254 171 254c50 0 99 -30 128 -86v74h51v-483zM228 33c51 0 100 42 120 89v237c-20 47 -69 90 -120 90c-87 0 -126 -95 -126 -208s39 -208 126 -208zM240 -178c-19 0 -37 17 -37 37
c0 21 18 38 37 38c21 0 38 -17 38 -38c0 -20 -17 -37 -38 -37zM384 622c-34 -45 -86 -74 -146 -74s-113 29 -147 74l29 24c26 -37 70 -61 118 -61c47 0 91 24 117 61z" />
    <glyph glyph-name="ae.alt1" horiz-adv-x="760" 
d="M228 33c51 0 100 42 120 89v237c-20 47 -69 90 -120 90c-87 0 -126 -95 -126 -208s39 -208 126 -208zM398 96v-96h-50v72c-28 -49 -77 -84 -129 -84c-109 0 -171 103 -171 253c0 148 62 254 171 254c50 0 99 -30 128 -86v74h51v-91c25 59 69 103 141 103
c121 0 176 -117 176 -254v-16h-317c3 -110 56 -193 149 -193c45 0 88 23 119 65l30 -31c-35 -47 -82 -78 -144 -78c-88 0 -132 54 -154 108zM664 265c-1 83 -37 187 -133 187c-93 0 -131 -107 -133 -187h266z" />
    <glyph glyph-name="aeacute.alt1" horiz-adv-x="760" 
d="M228 33c51 0 100 42 120 89v237c-20 47 -69 90 -120 90c-87 0 -126 -95 -126 -208s39 -208 126 -208zM398 96v-96h-50v72c-28 -49 -77 -84 -129 -84c-109 0 -171 103 -171 253c0 148 62 254 171 254c50 0 99 -30 128 -86v74h51v-91c25 59 69 103 141 103
c121 0 176 -117 176 -254v-16h-317c3 -110 56 -193 149 -193c45 0 88 23 119 65l30 -31c-35 -47 -82 -78 -144 -78c-88 0 -132 54 -154 108zM664 265c-1 83 -37 187 -133 187c-93 0 -131 -107 -133 -187h266zM504 700l-135 -144h-39l116 144h58z" />
    <glyph glyph-name="uni1E03" unicode="&#x1e03;" 
d="M121 122c20 -47 69 -89 120 -89c87 0 126 95 126 208s-39 209 -126 209c-51 0 -100 -44 -120 -91v-237zM121 0h-50v667h50v-258c30 56 79 86 129 86c109 0 171 -106 171 -254c0 -150 -62 -253 -171 -253c-52 0 -101 35 -129 84v-72zM242 728c-19 0 -37 17 -37 37
c0 21 18 38 37 38c21 0 38 -17 38 -38c0 -20 -17 -37 -38 -37z" />
    <glyph glyph-name="cacute" unicode="&#x107;" horiz-adv-x="400" 
d="M369 700l-135 -144h-39l116 144h58zM239 -12c-121 0 -191 113 -191 254s70 253 191 253c63 0 100 -26 131 -64l-30 -34c-28 38 -60 53 -98 53c-94 0 -140 -97 -140 -208s46 -209 140 -209c38 0 70 15 98 53l30 -34c-31 -40 -68 -64 -131 -64z" />
    <glyph glyph-name="ccedilla" unicode="&#xe7;" horiz-adv-x="400" 
d="M238 -187c-35 0 -66 13 -85 29l16 32c22 -20 44 -28 69 -28c30 0 57 17 57 45c0 24 -13 38 -36 38c-14 0 -26 -6 -35 -16l-27 16l22 60c-109 11 -171 120 -171 253c0 141 70 253 191 253c63 0 100 -26 131 -64l-30 -34c-28 38 -60 53 -98 53c-94 0 -140 -97 -140 -208
s46 -209 140 -209c38 0 70 15 98 53l30 -34c-28 -37 -62 -59 -115 -63l-16 -44c9 7 20 11 33 11c33 0 59 -26 59 -65c0 -46 -41 -78 -93 -78z" />
    <glyph glyph-name="ccircumflex" unicode="&#x109;" horiz-adv-x="400" 
d="M349 556h-36l-75 112l-72 -112h-36l82 144h52zM239 -12c-121 0 -191 113 -191 254s70 253 191 253c63 0 100 -26 131 -64l-30 -34c-28 38 -60 53 -98 53c-94 0 -140 -97 -140 -208s46 -209 140 -209c38 0 70 15 98 53l30 -34c-31 -40 -68 -64 -131 -64z" />
    <glyph glyph-name="cdotaccent" unicode="&#x10b;" horiz-adv-x="400" 
d="M239 -12c-121 0 -191 113 -191 254s70 253 191 253c63 0 100 -26 131 -64l-30 -34c-28 38 -60 53 -98 53c-94 0 -140 -97 -140 -208s46 -209 140 -209c38 0 70 15 98 53l30 -34c-31 -40 -68 -64 -131 -64zM240 561c-19 0 -37 17 -37 37c0 21 18 38 37 38
c21 0 38 -17 38 -38c0 -20 -17 -37 -38 -37z" />
    <glyph glyph-name="ccaron" unicode="&#x10d;" horiz-adv-x="400" 
d="M267 556h-52l-85 144h36l75 -112l72 112h36zM239 -12c-121 0 -191 113 -191 254s70 253 191 253c63 0 100 -26 131 -64l-30 -34c-28 38 -60 53 -98 53c-94 0 -140 -97 -140 -208s46 -209 140 -209c38 0 70 15 98 53l30 -34c-31 -40 -68 -64 -131 -64z" />
    <glyph glyph-name="dcaron" unicode="&#x10f;" horiz-adv-x="531" 
d="M534 621c0 -53 -31 -102 -66 -127l-27 21c31 22 54 60 55 89c0 0 -6 -1 -9 -1c-21 0 -36 17 -36 38s16 39 38 39c24 0 45 -21 45 -59zM398 0h-50v72c-28 -49 -77 -84 -129 -84c-109 0 -171 103 -171 253c0 148 62 254 171 254c50 0 99 -30 129 -86v258h50v-667zM228 33
c51 0 100 42 120 89v238c-20 46 -69 90 -120 90c-87 0 -126 -96 -126 -209s39 -208 126 -208z" />
    <glyph glyph-name="dcroat" unicode="&#x111;" horiz-adv-x="471" 
d="M398 0h-50v72c-28 -49 -77 -84 -129 -84c-109 0 -171 103 -171 253c0 148 62 254 171 254c50 0 99 -30 129 -86v129h-141v37h141v92h50v-92h65v-37h-65v-538zM228 33c51 0 100 42 120 89v238c-20 46 -69 90 -120 90c-87 0 -126 -96 -126 -209s39 -208 126 -208z" />
    <glyph glyph-name="uni1E0B" unicode="&#x1e0b;" 
d="M398 0h-50v72c-28 -49 -77 -84 -129 -84c-109 0 -171 103 -171 253c0 148 62 254 171 254c50 0 99 -30 129 -86v258h50v-667zM228 33c51 0 100 42 120 89v238c-20 46 -69 90 -120 90c-87 0 -126 -96 -126 -209s39 -208 126 -208zM227 728c-19 0 -37 17 -37 37
c0 21 18 38 37 38c21 0 38 -17 38 -38c0 -20 -17 -37 -38 -37z" />
    <glyph glyph-name="eacute" unicode="&#xe9;" horiz-adv-x="463" 
d="M365 700l-135 -144h-39l116 144h58zM247 -12c-126 0 -199 108 -199 254c0 140 70 253 187 253c125 0 183 -117 183 -254v-16h-316c2 -110 56 -194 148 -194c45 0 88 23 119 65l31 -29c-38 -49 -88 -79 -153 -79zM367 265c-1 83 -37 187 -133 187
c-93 0 -131 -107 -133 -187h266z" />
    <glyph glyph-name="ebreve" unicode="&#x115;" horiz-adv-x="463" 
d="M247 -12c-126 0 -199 108 -199 254c0 140 70 253 187 253c125 0 183 -117 183 -254v-16h-316c2 -110 56 -194 148 -194c45 0 88 23 119 65l31 -29c-38 -49 -88 -79 -153 -79zM367 265c-1 83 -37 187 -133 187c-93 0 -131 -107 -133 -187h266zM383 622
c-34 -45 -86 -74 -146 -74s-113 29 -147 74l29 24c26 -37 70 -61 118 -61c47 0 91 24 117 61z" />
    <glyph glyph-name="ecircumflex" unicode="&#xea;" horiz-adv-x="463" 
d="M346 556h-36l-75 112l-72 -112h-36l82 144h52zM247 -12c-126 0 -199 108 -199 254c0 140 70 253 187 253c125 0 183 -117 183 -254v-16h-316c2 -110 56 -194 148 -194c45 0 88 23 119 65l31 -29c-38 -49 -88 -79 -153 -79zM367 265c-1 83 -37 187 -133 187
c-93 0 -131 -107 -133 -187h266z" />
    <glyph glyph-name="edieresis" unicode="&#xeb;" horiz-adv-x="463" 
d="M355 601c0 -20 -16 -37 -36 -37s-37 17 -37 37s17 36 37 36s36 -16 36 -36zM187 601c0 -20 -16 -37 -36 -37s-36 17 -36 37s16 36 36 36s36 -16 36 -36zM247 -12c-126 0 -199 108 -199 254c0 140 70 253 187 253c125 0 183 -117 183 -254v-16h-316
c2 -110 56 -194 148 -194c45 0 88 23 119 65l31 -29c-38 -49 -88 -79 -153 -79zM367 265c-1 83 -37 187 -133 187c-93 0 -131 -107 -133 -187h266z" />
    <glyph glyph-name="edotaccent" unicode="&#x117;" horiz-adv-x="463" 
d="M247 -12c-126 0 -199 108 -199 254c0 140 70 253 187 253c125 0 183 -117 183 -254v-16h-316c2 -110 56 -194 148 -194c45 0 88 23 119 65l31 -29c-38 -49 -88 -79 -153 -79zM367 265c-1 83 -37 187 -133 187c-93 0 -131 -107 -133 -187h266zM235 561
c-19 0 -37 17 -37 37c0 21 18 38 37 38c21 0 38 -17 38 -38c0 -20 -17 -37 -38 -37z" />
    <glyph glyph-name="egrave" unicode="&#xe8;" horiz-adv-x="463" 
d="M247 -12c-126 0 -199 108 -199 254c0 140 70 253 187 253c125 0 183 -117 183 -254v-16h-316c2 -110 56 -194 148 -194c45 0 88 23 119 65l31 -29c-38 -49 -88 -79 -153 -79zM367 265c-1 83 -37 187 -133 187c-93 0 -131 -107 -133 -187h266zM278 556h-39l-135 144h58z
" />
    <glyph glyph-name="emacron" unicode="&#x113;" horiz-adv-x="463" 
d="M247 -12c-126 0 -199 108 -199 254c0 140 70 253 187 253c125 0 183 -117 183 -254v-16h-316c2 -110 56 -194 148 -194c45 0 88 23 119 65l31 -29c-38 -49 -88 -79 -153 -79zM367 265c-1 83 -37 187 -133 187c-93 0 -131 -107 -133 -187h266zM386 577h-304v37h304v-37z
" />
    <glyph glyph-name="eogonek" unicode="&#x119;" horiz-adv-x="463" 
d="M325 -114l30 -15c-10 -29 -33 -57 -76 -57c-42 0 -75 25 -75 79c0 36 17 69 42 95c-125 1 -198 108 -198 254c0 140 70 253 187 253c125 0 183 -117 183 -254v-16h-316c2 -110 56 -194 148 -194c45 0 88 23 119 65l31 -29c-24 -31 -52 -54 -86 -67
c-43 -25 -74 -58 -74 -106c0 -33 16 -47 40 -47s37 14 45 39zM367 265c-1 83 -37 187 -133 187c-93 0 -131 -107 -133 -187h266z" />
    <glyph glyph-name="ecaron" unicode="&#x11b;" horiz-adv-x="463" 
d="M263 556h-52l-85 144h36l75 -112l72 112h36zM247 -12c-126 0 -199 108 -199 254c0 140 70 253 187 253c125 0 183 -117 183 -254v-16h-316c2 -110 56 -194 148 -194c45 0 88 23 119 65l31 -29c-38 -49 -88 -79 -153 -79zM367 265c-1 83 -37 187 -133 187
c-93 0 -131 -107 -133 -187h266z" />
    <glyph glyph-name="uni1EB9" unicode="&#x1eb9;" horiz-adv-x="463" 
d="M247 -12c-126 0 -199 108 -199 254c0 140 70 253 187 253c125 0 183 -117 183 -254v-16h-316c2 -110 56 -194 148 -194c45 0 88 23 119 65l31 -29c-38 -49 -88 -79 -153 -79zM367 265c-1 83 -37 187 -133 187c-93 0 -131 -107 -133 -187h266zM235 -178
c-19 0 -37 17 -37 37c0 21 18 38 37 38c21 0 38 -17 38 -38c0 -20 -17 -37 -38 -37z" />
    <glyph glyph-name="uni1EBB" unicode="&#x1ebb;" horiz-adv-x="463" 
d="M247 -12c-126 0 -199 108 -199 254c0 140 70 253 187 253c125 0 183 -117 183 -254v-16h-316c2 -110 56 -194 148 -194c45 0 88 23 119 65l31 -29c-38 -49 -88 -79 -153 -79zM367 265c-1 83 -37 187 -133 187c-93 0 -131 -107 -133 -187h266zM199 594l-27 7
c8 26 28 49 62 49c33 0 60 -19 60 -64c0 -22 -7 -40 -21 -59h-31c17 20 24 39 24 59c0 26 -14 38 -32 38c-19 0 -30 -11 -35 -30z" />
    <glyph glyph-name="uni1EBD" unicode="&#x1ebd;" horiz-adv-x="463" 
d="M247 -12c-126 0 -199 108 -199 254c0 140 70 253 187 253c125 0 183 -117 183 -254v-16h-316c2 -110 56 -194 148 -194c45 0 88 23 119 65l31 -29c-38 -49 -88 -79 -153 -79zM367 265c-1 83 -37 187 -133 187c-93 0 -131 -107 -133 -187h266zM285 554
c-65 0 -60 103 -103 103c-25 0 -44 -29 -44 -97h-33c0 74 26 134 80 134c66 0 60 -103 103 -103c25 0 44 29 44 97h33c0 -74 -25 -134 -80 -134z" />
    <glyph glyph-name="uni1EBF" unicode="&#x1ebf;" horiz-adv-x="463" 
d="M344 556h-36l-75 112l-72 -112h-36l82 144h52zM485 771l-135 -144h-39l116 144h58zM247 -12c-126 0 -199 108 -199 254c0 140 70 253 187 253c125 0 183 -117 183 -254v-16h-316c2 -110 56 -194 148 -194c45 0 88 23 119 65l31 -29c-38 -49 -88 -79 -153 -79zM367 265
c-1 83 -37 187 -133 187c-93 0 -131 -107 -133 -187h266z" />
    <glyph glyph-name="uni1EC1" unicode="&#x1ec1;" horiz-adv-x="463" 
d="M343 556h-36l-75 112l-72 -112h-36l82 144h52zM247 -12c-126 0 -199 108 -199 254c0 140 70 253 187 253c125 0 183 -117 183 -254v-16h-316c2 -110 56 -194 148 -194c45 0 88 23 119 65l31 -29c-38 -49 -88 -79 -153 -79zM367 265c-1 83 -37 187 -133 187
c-93 0 -131 -107 -133 -187h266zM153 627h-39l-135 144h58z" />
    <glyph glyph-name="uni1EC3" unicode="&#x1ec3;" horiz-adv-x="463" 
d="M342 556h-36l-75 112l-72 -112h-36l82 144h52zM247 -12c-126 0 -199 108 -199 254c0 140 70 253 187 253c125 0 183 -117 183 -254v-16h-316c2 -110 56 -194 148 -194c45 0 88 23 119 65l31 -29c-38 -49 -88 -79 -153 -79zM367 265c-1 83 -37 187 -133 187
c-93 0 -131 -107 -133 -187h266zM270 734l-27 7c8 26 28 49 62 49c33 0 60 -19 60 -64c0 -22 -7 -40 -21 -59h-31c17 20 24 39 24 59c0 26 -14 38 -32 38c-19 0 -30 -11 -35 -30z" />
    <glyph glyph-name="uni1EC5" unicode="&#x1ec5;" horiz-adv-x="463" 
d="M342 523h-36l-75 112l-72 -112h-36l82 144h52zM247 -12c-126 0 -199 108 -199 254c0 140 70 253 187 253c125 0 183 -117 183 -254v-16h-316c2 -110 56 -194 148 -194c45 0 88 23 119 65l31 -29c-38 -49 -88 -79 -153 -79zM367 265c-1 83 -37 187 -133 187
c-93 0 -131 -107 -133 -187h266zM279 682c-65 0 -60 103 -103 103c-25 0 -44 -29 -44 -97h-33c0 74 26 134 80 134c66 0 60 -103 103 -103c25 0 44 29 44 97h33c0 -74 -25 -134 -80 -134z" />
    <glyph glyph-name="uni1EC7" unicode="&#x1ec7;" horiz-adv-x="463" 
d="M345 556h-36l-75 112l-72 -112h-36l82 144h52zM247 -12c-126 0 -199 108 -199 254c0 140 70 253 187 253c125 0 183 -117 183 -254v-16h-316c2 -110 56 -194 148 -194c45 0 88 23 119 65l31 -29c-38 -49 -88 -79 -153 -79zM367 265c-1 83 -37 187 -133 187
c-93 0 -131 -107 -133 -187h266zM235 -178c-19 0 -37 17 -37 37c0 21 18 38 37 38c21 0 38 -17 38 -38c0 -20 -17 -37 -38 -37z" />
    <glyph glyph-name="fl.alt1" horiz-adv-x="465" 
d="M137 0h-51v438h-64v45h64v69c0 78 43 125 108 125c21 0 39 -4 54 -14l-16 -40c-8 6 -18 10 -32 10c-41 0 -63 -30 -63 -81v-69h83v-45h-83v-438zM394 -12c-58 0 -84 35 -84 101v578h50v-572c0 -39 12 -62 42 -62c18 0 34 9 44 22l20 -37c-17 -18 -38 -30 -72 -30z" />
    <glyph glyph-name="f_f_l.alt1" horiz-adv-x="704" 
d="M376 0h-51v438h-64v45h64v69c0 78 43 125 108 125c21 0 39 -4 54 -14l-16 -40c-8 6 -18 10 -32 10c-41 0 -63 -30 -63 -81v-69h83v-45h-83v-438zM633 -12c-58 0 -84 35 -84 101v578h50v-572c0 -39 12 -62 42 -62c18 0 34 9 44 22l20 -37c-17 -18 -38 -30 -72 -30zM137 0
h-51v438h-64v45h64v69c0 77 42 125 111 125c28 0 54 -8 77 -30l-23 -38c-14 16 -30 24 -49 24c-44 0 -65 -30 -65 -81v-69h83v-45h-83v-438z" />
    <glyph glyph-name="uni1E1F" unicode="&#x1e1f;" horiz-adv-x="239" 
d="M196 728c-19 0 -37 17 -37 37c0 21 18 38 37 38c21 0 38 -17 38 -38c0 -20 -17 -37 -38 -37zM137 0h-51v438h-64v45h64v69c0 77 42 125 111 125c28 0 54 -8 77 -30l-23 -38c-14 16 -30 24 -49 24c-44 0 -65 -30 -65 -81v-69h83v-45h-83v-438z" />
    <glyph glyph-name="gcircumflex" unicode="&#x11d;" 
d="M345 556h-36l-75 112l-72 -112h-36l82 144h52zM222 -196c-63 0 -110 14 -155 60l27 41c32 -38 73 -57 126 -57c72 0 127 41 127 139v89c-27 -49 -76 -86 -128 -86c-109 0 -171 102 -171 252c0 148 62 253 171 253c50 0 99 -30 128 -86v74h51v-494
c0 -136 -78 -185 -176 -185zM228 35c51 0 100 44 119 90v235c-19 46 -68 90 -119 90c-87 0 -126 -95 -126 -208s39 -207 126 -207z" />
    <glyph glyph-name="gbreve" unicode="&#x11f;" 
d="M222 -196c-63 0 -110 14 -155 60l27 41c32 -38 73 -57 126 -57c72 0 127 41 127 139v89c-27 -49 -76 -86 -128 -86c-109 0 -171 102 -171 252c0 148 62 253 171 253c50 0 99 -30 128 -86v74h51v-494c0 -136 -78 -185 -176 -185zM228 35c51 0 100 44 119 90v235
c-19 46 -68 90 -119 90c-87 0 -126 -95 -126 -208s39 -207 126 -207zM381 622c-34 -45 -86 -74 -146 -74s-113 29 -147 74l29 24c26 -37 70 -61 118 -61c47 0 91 24 117 61z" />
    <glyph glyph-name="gdotaccent" unicode="&#x121;" 
d="M222 -196c-63 0 -110 14 -155 60l27 41c32 -38 73 -57 126 -57c72 0 127 41 127 139v89c-27 -49 -76 -86 -128 -86c-109 0 -171 102 -171 252c0 148 62 253 171 253c50 0 99 -30 128 -86v74h51v-494c0 -136 -78 -185 -176 -185zM228 35c51 0 100 44 119 90v235
c-19 46 -68 90 -119 90c-87 0 -126 -95 -126 -208s39 -207 126 -207zM232 561c-19 0 -37 17 -37 37c0 21 18 38 37 38c21 0 38 -17 38 -38c0 -20 -17 -37 -38 -37z" />
    <glyph glyph-name="gcommaaccent" unicode="&#x123;" 
d="M189 610c0 59 32 113 64 135l28 -22c-30 -22 -54 -59 -55 -89c0 0 2 1 5 1c18 0 38 -17 38 -38s-17 -39 -39 -39s-41 19 -41 52zM222 -196c-63 0 -110 14 -155 60l27 41c32 -38 73 -57 126 -57c72 0 127 41 127 139v89c-27 -49 -76 -86 -128 -86
c-109 0 -171 102 -171 252c0 148 62 253 171 253c50 0 99 -30 128 -86v74h51v-494c0 -136 -78 -185 -176 -185zM228 35c51 0 100 44 119 90v235c-19 46 -68 90 -119 90c-87 0 -126 -95 -126 -208s39 -207 126 -207z" />
    <glyph glyph-name="hbar" unicode="&#x127;" horiz-adv-x="458" 
d="M273 538h-144v-126c29 43 84 83 140 83c79 0 118 -38 118 -129v-366h-50v356c0 70 -32 94 -84 94c-50 0 -100 -41 -124 -85v-365h-50v538h-62v37h62v92h50v-92h144v-37z" />
    <glyph glyph-name="hcircumflex" unicode="&#x125;" horiz-adv-x="450" 
d="M336 723h-36l-75 112l-72 -112h-36l82 144h52zM379 0h-50v356c0 70 -32 94 -84 94c-50 0 -100 -41 -124 -85v-365h-50v667h50v-255c29 43 84 83 140 83c79 0 118 -38 118 -129v-366z" />
    <glyph glyph-name="uni1E23" unicode="&#x1e23;" horiz-adv-x="450" 
d="M379 0h-50v356c0 70 -32 94 -84 94c-50 0 -100 -41 -124 -85v-365h-50v667h50v-255c29 43 84 83 140 83c79 0 118 -38 118 -129v-366zM225 728c-19 0 -37 17 -37 37c0 21 18 38 37 38c21 0 38 -17 38 -38c0 -20 -17 -37 -38 -37z" />
    <glyph glyph-name="dotlessi" unicode="&#x131;" horiz-adv-x="192" 
d="M121 0h-50v483h50v-483z" />
    <glyph glyph-name="iacute" unicode="&#xed;" horiz-adv-x="192" 
d="M226 700l-135 -144h-39l116 144h58zM121 0h-50v483h50v-483z" />
    <glyph glyph-name="ibreve" unicode="&#x12d;" horiz-adv-x="192" 
d="M121 0h-50v483h50v-483zM243 622c-34 -45 -86 -74 -146 -74s-113 29 -147 74l29 24c26 -37 70 -61 118 -61c47 0 91 24 117 61z" />
    <glyph glyph-name="icircumflex" unicode="&#xee;" horiz-adv-x="192" 
d="M206 556h-36l-75 112l-72 -112h-36l82 144h52zM121 0h-50v483h50v-483z" />
    <glyph glyph-name="idieresis" unicode="&#xef;" horiz-adv-x="192" 
d="M216 601c0 -20 -16 -37 -36 -37s-37 17 -37 37s17 36 37 36s36 -16 36 -36zM48 601c0 -20 -16 -37 -36 -37s-36 17 -36 37s16 36 36 36s36 -16 36 -36zM121 0h-50v483h50v-483z" />
    <glyph glyph-name="igrave" unicode="&#xec;" horiz-adv-x="192" 
d="M121 0h-50v483h50v-483zM140 556h-39l-135 144h58z" />
    <glyph glyph-name="imacron" unicode="&#x12b;" horiz-adv-x="192" 
d="M121 0h-50v483h50v-483zM248 577h-304v37h304v-37z" />
    <glyph glyph-name="iogonek" unicode="&#x12f;" horiz-adv-x="192" 
d="M132 -114l30 -15c-10 -29 -33 -57 -76 -57c-42 0 -75 25 -75 79c0 44 25 83 60 111v479h50v-483c-43 -25 -74 -58 -74 -106c0 -33 16 -47 40 -47s37 14 45 39zM96 559c-21 0 -39 18 -39 39c0 22 18 39 39 39s39 -17 39 -39c0 -21 -18 -39 -39 -39z" />
    <glyph glyph-name="itilde" unicode="&#x129;" horiz-adv-x="192" 
d="M121 0h-50v483h50v-483zM146 554c-65 0 -60 103 -103 103c-25 0 -44 -29 -44 -97h-33c0 74 26 134 80 134c66 0 60 -103 103 -103c25 0 44 29 44 97h33c0 -74 -25 -134 -80 -134z" />
    <glyph glyph-name="uni1EC9" unicode="&#x1ec9;" horiz-adv-x="192" 
d="M121 0h-50v483h50v-483zM61 594l-27 7c8 26 28 49 62 49c33 0 60 -19 60 -64c0 -22 -7 -40 -21 -59h-31c17 20 24 39 24 59c0 26 -14 38 -32 38c-19 0 -30 -11 -35 -30z" />
    <glyph glyph-name="uni1ECB" unicode="&#x1ecb;" horiz-adv-x="192" 
d="M96 559c-21 0 -39 18 -39 39c0 22 18 39 39 39s39 -17 39 -39c0 -21 -18 -39 -39 -39zM121 0h-50v483h50v-483zM96 -178c-19 0 -37 17 -37 37c0 21 18 38 37 38c21 0 38 -17 38 -38c0 -20 -17 -37 -38 -37z" />
    <glyph glyph-name="ij" unicode="&#x133;" horiz-adv-x="384" 
d="M96 559c-21 0 -39 18 -39 39c0 22 18 39 39 39s39 -17 39 -39c0 -21 -18 -39 -39 -39zM121 0h-50v483h50v-483zM288 559c-21 0 -39 18 -39 39c0 22 18 39 39 39s39 -17 39 -39c0 -21 -18 -39 -39 -39zM207 -196c-35 0 -58 12 -78 36l25 36c11 -15 27 -28 50 -28
c34 0 59 21 59 79v556h50v-556c0 -87 -39 -123 -106 -123z" />
    <glyph glyph-name="uni0237" unicode="&#x237;" horiz-adv-x="192" 
d="M15 -196c-35 0 -58 12 -78 36l25 36c11 -15 27 -28 50 -28c34 0 59 21 59 79v556h50v-556c0 -87 -39 -123 -106 -123z" />
    <glyph glyph-name="jcircumflex" unicode="&#x135;" horiz-adv-x="192" 
d="M207 556h-36l-75 112l-72 -112h-36l82 144h52zM15 -196c-35 0 -58 12 -78 36l25 36c11 -15 27 -28 50 -28c34 0 59 21 59 79v556h50v-556c0 -87 -39 -123 -106 -123z" />
    <glyph glyph-name="kcommaaccent" unicode="&#x137;" horiz-adv-x="424" 
d="M262 -137c0 -53 -31 -102 -66 -127l-27 21c31 22 54 60 55 89c0 0 -6 -1 -9 -1c-21 0 -36 17 -36 38s16 39 38 39c24 0 45 -21 45 -59zM404 0h-61l-146 230l-76 -94v-136h-50v667h50v-465l224 281h61l-175 -218z" />
    <glyph glyph-name="kgreenlandic" unicode="&#x138;" horiz-adv-x="424" 
d="M404 0h-61l-146 230l-76 -94v-136h-50v483h50v-281l224 281h61l-175 -218z" />
    <glyph glyph-name="lacute" unicode="&#x13a;" horiz-adv-x="192" 
d="M226 867l-135 -144h-39l116 144h58zM121 0h-50v667h50v-667z" />
    <glyph glyph-name="lcommaaccent" unicode="&#x13c;" horiz-adv-x="192" 
d="M146 -137c0 -53 -31 -102 -66 -127l-27 21c31 22 54 60 55 89c0 0 -6 -1 -9 -1c-21 0 -36 17 -36 38s16 39 38 39c24 0 45 -21 45 -59zM121 0h-50v667h50v-667z" />
    <glyph glyph-name="lcaron" unicode="&#x13e;" horiz-adv-x="251" 
d="M272 620c0 -53 -31 -102 -66 -127l-27 21c31 22 54 60 55 89c0 0 -6 -1 -9 -1c-21 0 -36 17 -36 38s16 39 38 39c24 0 45 -21 45 -59zM121 0h-50v667h50v-667z" />
    <glyph glyph-name="ldot" unicode="&#x140;" horiz-adv-x="266" 
d="M121 0h-50v667h50v-667zM272 245c0 -24 -19 -43 -43 -43s-43 19 -43 43c0 23 19 42 43 42s43 -19 43 -42z" />
    <glyph glyph-name="lslash" unicode="&#x142;" horiz-adv-x="246" 
d="M17 256v45l81 46v320h50v-292l80 46v-45l-80 -46v-330h-50v302z" />
    <glyph glyph-name="lacute.alt1" horiz-adv-x="226" 
d="M226 867l-135 -144h-39l116 144h58zM155 -12c-58 0 -84 35 -84 101v578h50v-572c0 -39 12 -62 42 -62c18 0 34 9 44 22l20 -37c-17 -18 -38 -30 -72 -30z" />
    <glyph glyph-name="lcommaaccent.alt1" horiz-adv-x="226" 
d="M161 -137c0 -53 -31 -102 -66 -127l-27 21c31 22 54 60 55 89c0 0 -6 -1 -9 -1c-21 0 -36 17 -36 38s16 39 38 39c24 0 45 -21 45 -59zM155 -12c-58 0 -84 35 -84 101v578h50v-572c0 -39 12 -62 42 -62c18 0 34 9 44 22l20 -37c-17 -18 -38 -30 -72 -30z" />
    <glyph glyph-name="lcaron.alt1" horiz-adv-x="253" 
d="M272 620c0 -53 -31 -102 -66 -127l-27 21c31 22 54 60 55 89c0 0 -6 -1 -9 -1c-21 0 -36 17 -36 38s16 39 38 39c24 0 45 -21 45 -59zM155 -12c-58 0 -84 35 -84 101v578h50v-572c0 -39 12 -62 42 -62c18 0 34 9 44 22l20 -37c-17 -18 -38 -30 -72 -30z" />
    <glyph glyph-name="ldot.alt1" horiz-adv-x="266" 
d="M155 -12c-58 0 -84 35 -84 101v578h50v-572c0 -39 12 -62 42 -62c18 0 34 9 44 22l20 -37c-17 -18 -38 -30 -72 -30zM272 245c0 -24 -19 -43 -43 -43s-43 19 -43 43c0 23 19 42 43 42s43 -19 43 -42z" />
    <glyph glyph-name="lslash.alt1" horiz-adv-x="253" 
d="M17 256v45l81 46v320h50v-292l80 46v-45l-80 -46v-235c0 -39 12 -62 42 -62c18 0 34 9 44 22l20 -37c-17 -18 -38 -30 -72 -30c-58 0 -84 35 -84 101v213z" />
    <glyph glyph-name="nacute" unicode="&#x144;" horiz-adv-x="450" 
d="M355 700l-135 -144h-39l116 144h58zM379 0h-51v355c0 70 -31 95 -83 95c-51 0 -100 -41 -124 -85v-365h-50v483h50v-71c29 43 83 83 140 83c79 0 118 -41 118 -130v-365z" />
    <glyph glyph-name="napostrophe" unicode="&#x149;" horiz-adv-x="450" 
d="M144 675c0 -53 -31 -102 -66 -127l-27 21c31 22 54 60 55 89c0 0 -6 -1 -9 -1c-21 0 -36 17 -36 38s16 39 38 39c24 0 45 -21 45 -59zM379 0h-51v355c0 70 -31 95 -83 95c-51 0 -100 -41 -124 -85v-365h-50v483h50v-71c29 43 83 83 140 83c79 0 118 -41 118 -130v-365z
" />
    <glyph glyph-name="ncaron" unicode="&#x148;" horiz-adv-x="450" 
d="M252 556h-52l-85 144h36l75 -112l72 112h36zM379 0h-51v355c0 70 -31 95 -83 95c-51 0 -100 -41 -124 -85v-365h-50v483h50v-71c29 43 83 83 140 83c79 0 118 -41 118 -130v-365z" />
    <glyph glyph-name="ncommaaccent" unicode="&#x146;" horiz-adv-x="450" 
d="M274 -137c0 -53 -31 -102 -66 -127l-27 21c31 22 54 60 55 89c0 0 -6 -1 -9 -1c-21 0 -36 17 -36 38s16 39 38 39c24 0 45 -21 45 -59zM379 0h-51v355c0 70 -31 95 -83 95c-51 0 -100 -41 -124 -85v-365h-50v483h50v-71c29 43 83 83 140 83c79 0 118 -41 118 -130v-365z
" />
    <glyph glyph-name="ntilde" unicode="&#xf1;" horiz-adv-x="450" 
d="M379 0h-51v355c0 70 -31 95 -83 95c-51 0 -100 -41 -124 -85v-365h-50v483h50v-71c29 43 83 83 140 83c79 0 118 -41 118 -130v-365zM276 554c-65 0 -60 103 -103 103c-25 0 -44 -29 -44 -97h-33c0 74 26 134 80 134c66 0 60 -103 103 -103c25 0 44 29 44 97h33
c0 -74 -25 -134 -80 -134z" />
    <glyph glyph-name="eng" unicode="&#x14b;" horiz-adv-x="450" 
d="M379 365v-438c0 -87 -39 -123 -106 -123c-35 0 -57 12 -78 36l25 37c11 -15 28 -28 50 -28c34 0 58 21 58 78v428c0 70 -31 95 -83 95c-51 0 -100 -41 -124 -85v-365h-50v483h50v-71c29 43 83 83 140 83c79 0 118 -41 118 -130z" />
    <glyph glyph-name="oacute" unicode="&#xf3;" 
d="M365 700l-135 -144h-39l116 144h58zM234 -12c-122 0 -186 117 -186 254s64 253 186 253c124 0 187 -116 187 -253s-63 -254 -187 -254zM234 33c93 0 133 104 133 209c0 104 -40 208 -133 208c-91 0 -132 -104 -132 -208c0 -105 41 -209 132 -209z" />
    <glyph glyph-name="obreve" unicode="&#x14f;" 
d="M234 -12c-122 0 -186 117 -186 254s64 253 186 253c124 0 187 -116 187 -253s-63 -254 -187 -254zM234 33c93 0 133 104 133 209c0 104 -40 208 -133 208c-91 0 -132 -104 -132 -208c0 -105 41 -209 132 -209zM382 622c-34 -45 -86 -74 -146 -74s-113 29 -147 74l29 24
c26 -37 70 -61 118 -61c47 0 91 24 117 61z" />
    <glyph glyph-name="ocircumflex" unicode="&#xf4;" 
d="M345 556h-36l-75 112l-72 -112h-36l82 144h52zM234 -12c-122 0 -186 117 -186 254s64 253 186 253c124 0 187 -116 187 -253s-63 -254 -187 -254zM234 33c93 0 133 104 133 209c0 104 -40 208 -133 208c-91 0 -132 -104 -132 -208c0 -105 41 -209 132 -209z" />
    <glyph glyph-name="odieresis" unicode="&#xf6;" 
d="M355 601c0 -20 -16 -37 -36 -37s-37 17 -37 37s17 36 37 36s36 -16 36 -36zM187 601c0 -20 -16 -37 -36 -37s-36 17 -36 37s16 36 36 36s36 -16 36 -36zM234 -12c-122 0 -186 117 -186 254s64 253 186 253c124 0 187 -116 187 -253s-63 -254 -187 -254zM234 33
c93 0 133 104 133 209c0 104 -40 208 -133 208c-91 0 -132 -104 -132 -208c0 -105 41 -209 132 -209z" />
    <glyph glyph-name="ograve" unicode="&#xf2;" 
d="M234 -12c-122 0 -186 117 -186 254s64 253 186 253c124 0 187 -116 187 -253s-63 -254 -187 -254zM234 33c93 0 133 104 133 209c0 104 -40 208 -133 208c-91 0 -132 -104 -132 -208c0 -105 41 -209 132 -209zM279 556h-39l-135 144h58z" />
    <glyph glyph-name="ohungarumlaut" unicode="&#x151;" 
d="M272 700l-96 -144h-33l77 144h52zM397 700l-96 -144h-33l77 144h52zM234 -12c-122 0 -186 117 -186 254s64 253 186 253c124 0 187 -116 187 -253s-63 -254 -187 -254zM234 33c93 0 133 104 133 209c0 104 -40 208 -133 208c-91 0 -132 -104 -132 -208
c0 -105 41 -209 132 -209z" />
    <glyph glyph-name="omacron" unicode="&#x14d;" 
d="M387 577h-304v37h304v-37zM234 -12c-122 0 -186 117 -186 254s64 253 186 253c124 0 187 -116 187 -253s-63 -254 -187 -254zM234 33c93 0 133 104 133 209c0 104 -40 208 -133 208c-91 0 -132 -104 -132 -208c0 -105 41 -209 132 -209z" />
    <glyph glyph-name="oslash" unicode="&#xf8;" 
d="M103 0h-40l36 58c-34 47 -51 113 -51 184c0 137 64 253 186 253c44 0 81 -15 109 -41l18 29h41l-34 -55c35 -47 53 -114 53 -186c0 -137 -63 -254 -187 -254c-46 0 -83 16 -112 43zM234 33c93 0 133 104 133 209c0 50 -9 99 -29 138l-189 -305c21 -26 49 -42 85 -42z
M102 242c0 -49 8 -97 27 -135l188 304c-21 24 -48 39 -83 39c-91 0 -132 -104 -132 -208z" />
    <glyph glyph-name="oslashacute" unicode="&#x1ff;" 
d="M365 700l-135 -144h-39l116 144h58zM103 0h-40l36 58c-34 47 -51 113 -51 184c0 137 64 253 186 253c44 0 81 -15 109 -41l18 29h41l-34 -55c35 -47 53 -114 53 -186c0 -137 -63 -254 -187 -254c-46 0 -83 16 -112 43zM234 33c93 0 133 104 133 209c0 50 -9 99 -29 138
l-189 -305c21 -26 49 -42 85 -42zM102 242c0 -49 8 -97 27 -135l188 304c-21 24 -48 39 -83 39c-91 0 -132 -104 -132 -208z" />
    <glyph glyph-name="otilde" unicode="&#xf5;" 
d="M234 -12c-122 0 -186 117 -186 254s64 253 186 253c124 0 187 -116 187 -253s-63 -254 -187 -254zM234 33c93 0 133 104 133 209c0 104 -40 208 -133 208c-91 0 -132 -104 -132 -208c0 -105 41 -209 132 -209zM285 554c-65 0 -60 103 -103 103c-25 0 -44 -29 -44 -97h-33
c0 74 26 134 80 134c66 0 60 -103 103 -103c25 0 44 29 44 97h33c0 -74 -25 -134 -80 -134z" />
    <glyph glyph-name="uni1ECD" unicode="&#x1ecd;" 
d="M234 -12c-122 0 -186 117 -186 254s64 253 186 253c124 0 187 -116 187 -253s-63 -254 -187 -254zM234 33c93 0 133 104 133 209c0 104 -40 208 -133 208c-91 0 -132 -104 -132 -208c0 -105 41 -209 132 -209zM235 -178c-19 0 -37 17 -37 37c0 21 18 38 37 38
c21 0 38 -17 38 -38c0 -20 -17 -37 -38 -37z" />
    <glyph glyph-name="uni1ECF" unicode="&#x1ecf;" 
d="M234 -12c-122 0 -186 117 -186 254s64 253 186 253c124 0 187 -116 187 -253s-63 -254 -187 -254zM234 33c93 0 133 104 133 209c0 104 -40 208 -133 208c-91 0 -132 -104 -132 -208c0 -105 41 -209 132 -209zM200 594l-27 7c8 26 28 49 62 49c33 0 60 -19 60 -64
c0 -22 -7 -40 -21 -59h-31c17 20 24 39 24 59c0 26 -14 38 -32 38c-19 0 -30 -11 -35 -30z" />
    <glyph glyph-name="uni1ED1" unicode="&#x1ed1;" 
d="M344 556h-36l-75 112l-72 -112h-36l82 144h52zM485 771l-135 -144h-39l116 144h58zM234 -12c-122 0 -186 117 -186 254s64 253 186 253c124 0 187 -116 187 -253s-63 -254 -187 -254zM234 33c93 0 133 104 133 209c0 104 -40 208 -133 208c-91 0 -132 -104 -132 -208
c0 -105 41 -209 132 -209z" />
    <glyph glyph-name="uni1ED3" unicode="&#x1ed3;" 
d="M343 556h-36l-75 112l-72 -112h-36l82 144h52zM234 -12c-122 0 -186 117 -186 254s64 253 186 253c124 0 187 -116 187 -253s-63 -254 -187 -254zM234 33c93 0 133 104 133 209c0 104 -40 208 -133 208c-91 0 -132 -104 -132 -208c0 -105 41 -209 132 -209zM154 627h-39
l-135 144h58z" />
    <glyph glyph-name="uni1ED5" unicode="&#x1ed5;" 
d="M343 556h-36l-75 112l-72 -112h-36l82 144h52zM234 -12c-122 0 -186 117 -186 254s64 253 186 253c124 0 187 -116 187 -253s-63 -254 -187 -254zM234 33c93 0 133 104 133 209c0 104 -40 208 -133 208c-91 0 -132 -104 -132 -208c0 -105 41 -209 132 -209zM271 734
l-27 7c8 26 28 49 62 49c33 0 60 -19 60 -64c0 -22 -7 -40 -21 -59h-31c17 20 24 39 24 59c0 26 -14 38 -32 38c-19 0 -30 -11 -35 -30z" />
    <glyph glyph-name="uni1ED7" unicode="&#x1ed7;" 
d="M344 523h-36l-75 112l-72 -112h-36l82 144h52zM234 -12c-122 0 -186 117 -186 254s64 253 186 253c124 0 187 -116 187 -253s-63 -254 -187 -254zM234 33c93 0 133 104 133 209c0 104 -40 208 -133 208c-91 0 -132 -104 -132 -208c0 -105 41 -209 132 -209zM281 682
c-65 0 -60 103 -103 103c-25 0 -44 -29 -44 -97h-33c0 74 26 134 80 134c66 0 60 -103 103 -103c25 0 44 29 44 97h33c0 -74 -25 -134 -80 -134z" />
    <glyph glyph-name="uni1ED9" unicode="&#x1ed9;" 
d="M344 556h-36l-75 112l-72 -112h-36l82 144h52zM234 -12c-122 0 -186 117 -186 254s64 253 186 253c124 0 187 -116 187 -253s-63 -254 -187 -254zM234 33c93 0 133 104 133 209c0 104 -40 208 -133 208c-91 0 -132 -104 -132 -208c0 -105 41 -209 132 -209zM235 -178
c-19 0 -37 17 -37 37c0 21 18 38 37 38c21 0 38 -17 38 -38c0 -20 -17 -37 -38 -37z" />
    <glyph glyph-name="ohorn" unicode="&#x1a1;" 
d="M433 530c0 -46 -25 -91 -55 -118c28 -45 43 -105 43 -170c0 -137 -63 -254 -187 -254c-122 0 -186 117 -186 254s64 253 186 253c52 0 94 -21 125 -56c22 22 37 51 38 75c0 0 -6 -1 -9 -1c-21 0 -35 16 -35 37c0 20 15 37 37 37c23 0 43 -21 43 -57zM234 33
c93 0 133 104 133 209c0 104 -40 208 -133 208c-91 0 -132 -104 -132 -208c0 -105 41 -209 132 -209z" />
    <glyph glyph-name="uni1EDB" unicode="&#x1edb;" 
d="M365 700l-135 -144h-39l116 144h58zM433 530c0 -46 -25 -91 -55 -118c28 -45 43 -105 43 -170c0 -137 -63 -254 -187 -254c-122 0 -186 117 -186 254s64 253 186 253c52 0 94 -21 125 -56c22 22 37 51 38 75c0 0 -6 -1 -9 -1c-21 0 -35 16 -35 37c0 20 15 37 37 37
c23 0 43 -21 43 -57zM234 33c93 0 133 104 133 209c0 104 -40 208 -133 208c-91 0 -132 -104 -132 -208c0 -105 41 -209 132 -209z" />
    <glyph glyph-name="uni1EDD" unicode="&#x1edd;" 
d="M433 530c0 -46 -25 -91 -55 -118c28 -45 43 -105 43 -170c0 -137 -63 -254 -187 -254c-122 0 -186 117 -186 254s64 253 186 253c52 0 94 -21 125 -56c22 22 37 51 38 75c0 0 -6 -1 -9 -1c-21 0 -35 16 -35 37c0 20 15 37 37 37c23 0 43 -21 43 -57zM234 33
c93 0 133 104 133 209c0 104 -40 208 -133 208c-91 0 -132 -104 -132 -208c0 -105 41 -209 132 -209zM279 556h-39l-135 144h58z" />
    <glyph glyph-name="uni1EDF" unicode="&#x1edf;" 
d="M433 530c0 -46 -25 -91 -55 -118c28 -45 43 -105 43 -170c0 -137 -63 -254 -187 -254c-122 0 -186 117 -186 254s64 253 186 253c52 0 94 -21 125 -56c22 22 37 51 38 75c0 0 -6 -1 -9 -1c-21 0 -35 16 -35 37c0 20 15 37 37 37c23 0 43 -21 43 -57zM234 33
c93 0 133 104 133 209c0 104 -40 208 -133 208c-91 0 -132 -104 -132 -208c0 -105 41 -209 132 -209zM200 594l-27 7c8 26 28 49 62 49c33 0 60 -19 60 -64c0 -22 -7 -40 -21 -59h-31c17 20 24 39 24 59c0 26 -14 38 -32 38c-19 0 -30 -11 -35 -30z" />
    <glyph glyph-name="uni1EE1" unicode="&#x1ee1;" 
d="M433 530c0 -46 -25 -91 -55 -118c28 -45 43 -105 43 -170c0 -137 -63 -254 -187 -254c-122 0 -186 117 -186 254s64 253 186 253c52 0 94 -21 125 -56c22 22 37 51 38 75c0 0 -6 -1 -9 -1c-21 0 -35 16 -35 37c0 20 15 37 37 37c23 0 43 -21 43 -57zM234 33
c93 0 133 104 133 209c0 104 -40 208 -133 208c-91 0 -132 -104 -132 -208c0 -105 41 -209 132 -209zM282 554c-65 0 -60 103 -103 103c-25 0 -44 -29 -44 -97h-33c0 74 26 134 80 134c66 0 60 -103 103 -103c25 0 44 29 44 97h33c0 -74 -25 -134 -80 -134z" />
    <glyph glyph-name="uni1EE3" unicode="&#x1ee3;" 
d="M433 530c0 -46 -25 -91 -55 -118c28 -45 43 -105 43 -170c0 -137 -63 -254 -187 -254c-122 0 -186 117 -186 254s64 253 186 253c52 0 94 -21 125 -56c22 22 37 51 38 75c0 0 -6 -1 -9 -1c-21 0 -35 16 -35 37c0 20 15 37 37 37c23 0 43 -21 43 -57zM234 33
c93 0 133 104 133 209c0 104 -40 208 -133 208c-91 0 -132 -104 -132 -208c0 -105 41 -209 132 -209zM235 -178c-19 0 -37 17 -37 37c0 21 18 38 37 38c21 0 38 -17 38 -38c0 -20 -17 -37 -38 -37z" />
    <glyph glyph-name="oe" unicode="&#x153;" horiz-adv-x="782" 
d="M737 225h-316c2 -110 56 -194 148 -194c46 0 88 23 119 65l31 -29c-38 -49 -88 -79 -153 -79c-102 0 -150 69 -171 135c-20 -64 -66 -135 -161 -135c-122 0 -186 117 -186 254s64 253 186 253c95 0 142 -70 160 -133c20 65 70 133 160 133c125 0 183 -117 183 -254v-16z
M421 265h265c-1 83 -37 187 -133 187c-93 0 -131 -107 -132 -187zM367 242c0 105 -40 208 -133 208c-91 0 -132 -103 -132 -208c0 -106 41 -210 132 -210c93 0 133 104 133 210z" />
    <glyph glyph-name="uni1E57" unicode="&#x1e57;" horiz-adv-x="467" 
d="M250 -12c-50 0 -99 30 -129 86v-258h-50v667h50v-72c28 49 77 84 129 84c109 0 171 -103 171 -253c0 -149 -62 -254 -171 -254zM241 33c87 0 126 96 126 209s-39 208 -126 208c-51 0 -100 -42 -120 -89v-238c20 -46 69 -90 120 -90zM241 561c-19 0 -37 17 -37 37
c0 21 18 38 37 38c21 0 38 -17 38 -38c0 -20 -17 -37 -38 -37z" />
    <glyph glyph-name="racute" unicode="&#x155;" horiz-adv-x="278" 
d="M295 700l-135 -144h-39l116 144h58zM121 0h-50v483h50v-82c33 54 77 92 139 92v-55c-7 1 -14 1 -22 1c-47 0 -97 -43 -117 -87v-352z" />
    <glyph glyph-name="rcaron" unicode="&#x159;" horiz-adv-x="278" 
d="M190 556h-52l-85 144h36l75 -112l72 112h36zM121 0h-50v483h50v-82c33 54 77 92 139 92v-55c-7 1 -14 1 -22 1c-47 0 -97 -43 -117 -87v-352z" />
    <glyph glyph-name="rcommaaccent" unicode="&#x157;" horiz-adv-x="278" 
d="M189 -137c0 -53 -31 -102 -66 -127l-27 21c31 22 54 60 55 89c0 0 -6 -1 -9 -1c-21 0 -36 17 -36 38s16 39 38 39c24 0 45 -21 45 -59zM121 0h-50v483h50v-82c33 54 77 92 139 92v-55c-7 1 -14 1 -22 1c-47 0 -97 -43 -117 -87v-352z" />
    <glyph glyph-name="sacute" unicode="&#x15b;" horiz-adv-x="377" 
d="M317 700l-135 -144h-39l116 144h58zM185 -12c-65 0 -114 21 -153 68l29 36c27 -35 69 -61 123 -61c61 0 102 36 102 89c0 127 -241 89 -241 252c0 69 56 123 144 123c62 0 107 -25 138 -62l-27 -35c-25 35 -64 54 -111 54c-59 0 -95 -35 -95 -79c0 -117 241 -81 241 -252
c0 -77 -58 -133 -150 -133z" />
    <glyph glyph-name="scaron" unicode="&#x161;" horiz-adv-x="377" 
d="M216 556h-52l-85 144h36l75 -112l72 112h36zM185 -12c-65 0 -114 21 -153 68l29 36c27 -35 69 -61 123 -61c61 0 102 36 102 89c0 127 -241 89 -241 252c0 69 56 123 144 123c62 0 107 -25 138 -62l-27 -35c-25 35 -64 54 -111 54c-59 0 -95 -35 -95 -79
c0 -117 241 -81 241 -252c0 -77 -58 -133 -150 -133z" />
    <glyph glyph-name="scircumflex" unicode="&#x15d;" horiz-adv-x="377" 
d="M298 556h-36l-75 112l-72 -112h-36l82 144h52zM185 -12c-65 0 -114 21 -153 68l29 36c27 -35 69 -61 123 -61c61 0 102 36 102 89c0 127 -241 89 -241 252c0 69 56 123 144 123c62 0 107 -25 138 -62l-27 -35c-25 35 -64 54 -111 54c-59 0 -95 -35 -95 -79
c0 -117 241 -81 241 -252c0 -77 -58 -133 -150 -133z" />
    <glyph glyph-name="scedilla" unicode="&#x15f;" horiz-adv-x="377" 
d="M180 -189c-35 0 -66 13 -85 29l16 32c22 -20 44 -28 69 -28c30 0 57 17 57 45c0 24 -13 38 -36 38c-14 0 -26 -6 -35 -16l-27 16l23 62c-54 5 -96 25 -130 67l29 36c27 -35 69 -61 123 -61c61 0 102 36 102 89c0 127 -241 89 -241 252c0 69 56 123 144 123
c62 0 107 -25 138 -62l-27 -35c-25 35 -64 54 -111 54c-59 0 -95 -35 -95 -79c0 -117 241 -81 241 -252c0 -73 -53 -127 -137 -132l-17 -46c9 7 20 11 33 11c33 0 59 -26 59 -65c0 -46 -41 -78 -93 -78z" />
    <glyph glyph-name="scommaaccent" unicode="&#x219;" horiz-adv-x="377" 
d="M238 -137c0 -53 -31 -102 -66 -127l-27 21c31 22 54 60 55 89c0 0 -6 -1 -9 -1c-21 0 -36 17 -36 38s16 39 38 39c24 0 45 -21 45 -59zM185 -12c-65 0 -114 21 -153 68l29 36c27 -35 69 -61 123 -61c61 0 102 36 102 89c0 127 -241 89 -241 252c0 69 56 123 144 123
c62 0 107 -25 138 -62l-27 -35c-25 35 -64 54 -111 54c-59 0 -95 -35 -95 -79c0 -117 241 -81 241 -252c0 -77 -58 -133 -150 -133z" />
    <glyph glyph-name="uni1E61" unicode="&#x1e61;" horiz-adv-x="377" 
d="M185 -12c-65 0 -114 21 -153 68l29 36c27 -35 69 -61 123 -61c61 0 102 36 102 89c0 127 -241 89 -241 252c0 69 56 123 144 123c62 0 107 -25 138 -62l-27 -35c-25 35 -64 54 -111 54c-59 0 -95 -35 -95 -79c0 -117 241 -81 241 -252c0 -77 -58 -133 -150 -133zM188 561
c-19 0 -37 17 -37 37c0 21 18 38 37 38c21 0 38 -17 38 -38c0 -20 -17 -37 -38 -37z" />
    <glyph glyph-name="germandbls" unicode="&#xdf;" horiz-adv-x="501" 
d="M482 121c0 -71 -53 -133 -149 -133c-75 0 -114 29 -149 69l28 37c22 -30 61 -63 119 -63c61 0 100 40 100 89c0 127 -235 89 -235 249c0 99 128 113 128 188c0 44 -45 75 -94 75c-57 0 -103 -39 -103 -112v-520h-51v520c0 90 61 157 154 157c80 0 145 -48 145 -117
c0 -104 -129 -110 -129 -190c0 -117 236 -78 236 -249z" />
    <glyph glyph-name="longs" unicode="&#x17f;" horiz-adv-x="239" 
d="M137 0h-51v438h-64v45h64v69c0 77 42 125 111 125c28 0 54 -8 77 -30l-23 -39c-14 16 -30 24 -49 24c-44 0 -65 -30 -65 -80v-552z" />
    <glyph glyph-name="tbar" unicode="&#x167;" horiz-adv-x="249" 
d="M167 -12c-57 0 -84 35 -84 101v146h-66v37h66v166h-66v45h66v132h50v-132h83v-45h-83v-166h53v-37h-53v-140c0 -39 12 -62 42 -62c18 0 34 9 44 22l20 -37c-17 -18 -37 -30 -72 -30z" />
    <glyph glyph-name="tcaron" unicode="&#x165;" horiz-adv-x="254" 
d="M278 675c0 -53 -31 -102 -66 -127l-27 21c31 22 54 60 55 89c0 0 -6 -1 -9 -1c-21 0 -36 17 -36 38s16 39 38 39c24 0 45 -21 45 -59zM167 -12c-57 0 -84 35 -84 101v349h-66v45h66v132h50v-132h83v-45h-83v-343c0 -39 12 -62 42 -62c18 0 34 9 44 22l20 -37
c-17 -18 -37 -30 -72 -30z" />
    <glyph glyph-name="tcommaaccent" unicode="&#x163;" horiz-adv-x="249" 
d="M174 -137c0 -53 -31 -102 -66 -127l-27 21c31 22 54 60 55 89c0 0 -6 -1 -9 -1c-21 0 -36 17 -36 38s16 39 38 39c24 0 45 -21 45 -59zM167 -12c-57 0 -84 35 -84 101v349h-66v45h66v132h50v-132h83v-45h-83v-343c0 -39 12 -62 42 -62c18 0 34 9 44 22l20 -37
c-17 -18 -37 -30 -72 -30z" />
    <glyph glyph-name="uni021B" unicode="&#x21b;" horiz-adv-x="249" 
d="M174 -137c0 -53 -31 -102 -66 -127l-27 21c31 22 54 60 55 89c0 0 -6 -1 -9 -1c-21 0 -36 17 -36 38s16 39 38 39c24 0 45 -21 45 -59zM167 -12c-57 0 -84 35 -84 101v349h-66v45h66v132h50v-132h83v-45h-83v-343c0 -39 12 -62 42 -62c18 0 34 9 44 22l20 -37
c-17 -18 -37 -30 -72 -30z" />
    <glyph glyph-name="uni1E6B" unicode="&#x1e6b;" horiz-adv-x="249" 
d="M167 -12c-57 0 -84 35 -84 101v349h-66v45h66v132h50v-132h83v-45h-83v-343c0 -39 12 -62 42 -62c18 0 34 9 44 22l20 -37c-17 -18 -37 -30 -72 -30zM112 728c-19 0 -37 17 -37 37c0 21 18 38 37 38c21 0 38 -17 38 -38c0 -20 -17 -37 -38 -37z" />
    <glyph glyph-name="uacute" unicode="&#xfa;" horiz-adv-x="450" 
d="M355 700l-135 -144h-39l116 144h58zM379 0h-51v69c-30 -44 -81 -81 -139 -81c-79 0 -118 38 -118 129v366h50v-356c0 -70 32 -94 83 -94s101 39 124 83v367h51v-483z" />
    <glyph glyph-name="ubreve" unicode="&#x16d;" horiz-adv-x="450" 
d="M379 0h-51v69c-30 -44 -81 -81 -139 -81c-79 0 -118 38 -118 129v366h50v-356c0 -70 32 -94 83 -94s101 39 124 83v367h51v-483zM372 622c-34 -45 -86 -74 -146 -74s-113 29 -147 74l29 24c26 -37 70 -61 118 -61c47 0 91 24 117 61z" />
    <glyph glyph-name="ucircumflex" unicode="&#xfb;" horiz-adv-x="450" 
d="M335 556h-36l-75 112l-72 -112h-36l82 144h52zM379 0h-51v69c-30 -44 -81 -81 -139 -81c-79 0 -118 38 -118 129v366h50v-356c0 -70 32 -94 83 -94s101 39 124 83v367h51v-483z" />
    <glyph glyph-name="udieresis" unicode="&#xfc;" horiz-adv-x="450" 
d="M347 601c0 -20 -16 -37 -36 -37s-37 17 -37 37s17 36 37 36s36 -16 36 -36zM179 601c0 -20 -16 -37 -36 -37s-36 17 -36 37s16 36 36 36s36 -16 36 -36zM379 0h-51v69c-30 -44 -81 -81 -139 -81c-79 0 -118 38 -118 129v366h50v-356c0 -70 32 -94 83 -94s101 39 124 83
v367h51v-483z" />
    <glyph glyph-name="ugrave" unicode="&#xf9;" horiz-adv-x="450" 
d="M379 0h-51v69c-30 -44 -81 -81 -139 -81c-79 0 -118 38 -118 129v366h50v-356c0 -70 32 -94 83 -94s101 39 124 83v367h51v-483zM269 556h-39l-135 144h58z" />
    <glyph glyph-name="uhungarumlaut" unicode="&#x171;" horiz-adv-x="450" 
d="M379 0h-51v69c-30 -44 -81 -81 -139 -81c-79 0 -118 38 -118 129v366h50v-356c0 -70 32 -94 83 -94s101 39 124 83v367h51v-483zM262 700l-96 -144h-33l77 144h52zM387 700l-96 -144h-33l77 144h52z" />
    <glyph glyph-name="umacron" unicode="&#x16b;" horiz-adv-x="450" 
d="M379 0h-51v69c-30 -44 -81 -81 -139 -81c-79 0 -118 38 -118 129v366h50v-356c0 -70 32 -94 83 -94s101 39 124 83v367h51v-483zM377 577h-304v37h304v-37z" />
    <glyph glyph-name="uogonek" unicode="&#x173;" horiz-adv-x="450" 
d="M379 0c-43 -25 -74 -58 -74 -106c0 -33 16 -47 40 -47s37 14 45 39l30 -15c-10 -29 -33 -57 -76 -57c-42 0 -75 25 -75 79c0 43 24 82 59 110v66c-30 -44 -81 -81 -139 -81c-79 0 -118 38 -118 129v366h50v-356c0 -70 32 -94 83 -94s101 39 124 83v367h51v-483z" />
    <glyph glyph-name="uring" unicode="&#x16f;" horiz-adv-x="450" 
d="M225 549c-48 0 -88 39 -88 88c0 48 40 88 88 88c49 0 87 -40 87 -88c0 -49 -38 -88 -87 -88zM225 579c32 0 57 26 57 58c0 31 -25 57 -57 57c-31 0 -57 -26 -57 -57c0 -32 26 -58 57 -58zM379 0h-51v69c-30 -44 -81 -81 -139 -81c-79 0 -118 38 -118 129v366h50v-356
c0 -70 32 -94 83 -94s101 39 124 83v367h51v-483z" />
    <glyph glyph-name="utilde" unicode="&#x169;" horiz-adv-x="450" 
d="M379 0h-51v69c-30 -44 -81 -81 -139 -81c-79 0 -118 38 -118 129v366h50v-356c0 -70 32 -94 83 -94s101 39 124 83v367h51v-483zM274 554c-65 0 -60 103 -103 103c-25 0 -44 -29 -44 -97h-33c0 74 26 134 80 134c66 0 60 -103 103 -103c25 0 44 29 44 97h33
c0 -74 -25 -134 -80 -134z" />
    <glyph glyph-name="uni1EE5" unicode="&#x1ee5;" horiz-adv-x="450" 
d="M379 0h-51v69c-30 -44 -81 -81 -139 -81c-79 0 -118 38 -118 129v366h50v-356c0 -70 32 -94 83 -94s101 39 124 83v367h51v-483zM226 -178c-19 0 -37 17 -37 37c0 21 18 38 37 38c21 0 38 -17 38 -38c0 -20 -17 -37 -38 -37z" />
    <glyph glyph-name="uhorn" unicode="&#x1b0;" horiz-adv-x="450" 
d="M379 0h-51v69c-30 -44 -81 -81 -139 -81c-79 0 -118 38 -118 129v366h50v-356c0 -70 32 -94 83 -94s101 39 124 83v367h51v-52c30 22 51 57 52 86c0 0 -6 -1 -9 -1c-20 0 -35 16 -35 37c0 20 15 37 37 37c24 0 44 -21 44 -58c0 -54 -34 -107 -89 -140v-392z" />
    <glyph glyph-name="uni1EE7" unicode="&#x1ee7;" horiz-adv-x="450" 
d="M379 0h-51v69c-30 -44 -81 -81 -139 -81c-79 0 -118 38 -118 129v366h50v-356c0 -70 32 -94 83 -94s101 39 124 83v367h51v-483zM191 594l-27 7c8 26 28 49 62 49c33 0 60 -19 60 -64c0 -22 -7 -40 -21 -59h-31c17 20 24 39 24 59c0 26 -14 38 -32 38
c-19 0 -30 -11 -35 -30z" />
    <glyph glyph-name="uni1EE9" unicode="&#x1ee9;" horiz-adv-x="450" 
d="M355 700l-135 -144h-39l116 144h58zM379 0h-51v69c-30 -44 -81 -81 -139 -81c-79 0 -118 38 -118 129v366h50v-356c0 -70 32 -94 83 -94s101 39 124 83v367h51v-52c30 22 51 57 52 86c0 0 -6 -1 -9 -1c-20 0 -35 16 -35 37c0 20 15 37 37 37c24 0 44 -21 44 -58
c0 -54 -34 -107 -89 -140v-392z" />
    <glyph glyph-name="uni1EEB" unicode="&#x1eeb;" horiz-adv-x="450" 
d="M269 556h-39l-135 144h58zM379 0h-51v69c-30 -44 -81 -81 -139 -81c-79 0 -118 38 -118 129v366h50v-356c0 -70 32 -94 83 -94s101 39 124 83v367h51v-52c30 22 51 57 52 86c0 0 -6 -1 -9 -1c-20 0 -35 16 -35 37c0 20 15 37 37 37c24 0 44 -21 44 -58
c0 -54 -34 -107 -89 -140v-392z" />
    <glyph glyph-name="uni1EED" unicode="&#x1eed;" horiz-adv-x="450" 
d="M191 594l-27 7c8 26 28 49 62 49c33 0 60 -19 60 -64c0 -22 -7 -40 -21 -59h-31c17 20 24 39 24 59c0 26 -14 38 -32 38c-19 0 -30 -11 -35 -30zM379 0h-51v69c-30 -44 -81 -81 -139 -81c-79 0 -118 38 -118 129v366h50v-356c0 -70 32 -94 83 -94s101 39 124 83v367h51
v-52c30 22 51 57 52 86c0 0 -6 -1 -9 -1c-20 0 -35 16 -35 37c0 20 15 37 37 37c24 0 44 -21 44 -58c0 -54 -34 -107 -89 -140v-392z" />
    <glyph glyph-name="uni1EEF" unicode="&#x1eef;" horiz-adv-x="450" 
d="M379 0h-51v69c-30 -44 -81 -81 -139 -81c-79 0 -118 38 -118 129v366h50v-356c0 -70 32 -94 83 -94s101 39 124 83v367h51v-52c30 22 51 57 52 86c0 0 -6 -1 -9 -1c-20 0 -35 16 -35 37c0 20 15 37 37 37c24 0 44 -21 44 -58c0 -54 -34 -107 -89 -140v-392zM275 554
c-65 0 -60 103 -103 103c-25 0 -44 -29 -44 -97h-33c0 74 26 134 80 134c66 0 60 -103 103 -103c25 0 44 29 44 97h33c0 -74 -25 -134 -80 -134z" />
    <glyph glyph-name="uni1EF1" unicode="&#x1ef1;" horiz-adv-x="450" 
d="M226 -178c-19 0 -37 17 -37 37c0 21 18 38 37 38c21 0 38 -17 38 -38c0 -20 -17 -37 -38 -37zM379 0h-51v69c-30 -44 -81 -81 -139 -81c-79 0 -118 38 -118 129v366h50v-356c0 -70 32 -94 83 -94s101 39 124 83v367h51v-52c30 22 51 57 52 86c0 0 -6 -1 -9 -1
c-20 0 -35 16 -35 37c0 20 15 37 37 37c24 0 44 -21 44 -58c0 -54 -34 -107 -89 -140v-392z" />
    <glyph glyph-name="wacute" unicode="&#x1e83;" horiz-adv-x="616" 
d="M438 700l-135 -144h-39l116 144h58zM469 0h-50l-111 414l-111 -414h-50l-130 483h54l103 -411l109 411h49l110 -411l103 411h54z" />
    <glyph glyph-name="wcircumflex" unicode="&#x175;" horiz-adv-x="616" 
d="M418 556h-36l-75 112l-72 -112h-36l82 144h52zM469 0h-50l-111 414l-111 -414h-50l-130 483h54l103 -411l109 411h49l110 -411l103 411h54z" />
    <glyph glyph-name="wdieresis" unicode="&#x1e85;" horiz-adv-x="616" 
d="M428 601c0 -20 -16 -37 -36 -37s-37 17 -37 37s17 36 37 36s36 -16 36 -36zM260 601c0 -20 -16 -37 -36 -37s-36 17 -36 37s16 36 36 36s36 -16 36 -36zM469 0h-50l-111 414l-111 -414h-50l-130 483h54l103 -411l109 411h49l110 -411l103 411h54z" />
    <glyph glyph-name="wgrave" unicode="&#x1e81;" horiz-adv-x="616" 
d="M469 0h-50l-111 414l-111 -414h-50l-130 483h54l103 -411l109 411h49l110 -411l103 411h54zM352 556h-39l-135 144h58z" />
    <glyph glyph-name="yacute" unicode="&#xfd;" horiz-adv-x="392" 
d="M40 -189l9 46c9 -5 24 -8 32 -8c28 0 44 13 59 54l29 87l-159 493h56l130 -421l130 421h56l-195 -593c-21 -62 -55 -86 -104 -86c-14 0 -33 3 -43 7zM326 700l-135 -144h-39l116 144h58z" />
    <glyph glyph-name="ycircumflex" unicode="&#x177;" horiz-adv-x="392" 
d="M40 -189l9 46c9 -5 24 -8 32 -8c28 0 44 13 59 54l29 87l-159 493h56l130 -421l130 421h56l-195 -593c-21 -62 -55 -86 -104 -86c-14 0 -33 3 -43 7zM306 556h-36l-75 112l-72 -112h-36l82 144h52z" />
    <glyph glyph-name="ydieresis" unicode="&#xff;" horiz-adv-x="392" 
d="M40 -189l9 46c9 -5 24 -8 32 -8c28 0 44 13 59 54l29 87l-159 493h56l130 -421l130 421h56l-195 -593c-21 -62 -55 -86 -104 -86c-14 0 -33 3 -43 7zM316 601c0 -20 -16 -37 -36 -37s-37 17 -37 37s17 36 37 36s36 -16 36 -36zM148 601c0 -20 -16 -37 -36 -37
s-36 17 -36 37s16 36 36 36s36 -16 36 -36z" />
    <glyph glyph-name="ygrave" unicode="&#x1ef3;" horiz-adv-x="392" 
d="M40 -189l9 46c9 -5 24 -8 32 -8c28 0 44 13 59 54l29 87l-159 493h56l130 -421l130 421h56l-195 -593c-21 -62 -55 -86 -104 -86c-14 0 -33 3 -43 7zM239 556h-39l-135 144h58z" />
    <glyph glyph-name="yacute.alt1" horiz-adv-x="450" 
d="M355 700l-135 -144h-39l116 144h58zM212 -196c-62 0 -111 20 -148 60l27 41c32 -39 73 -57 120 -57c72 0 117 49 117 139v87c-30 -44 -81 -82 -139 -82c-79 0 -118 39 -118 129v362h50v-351c0 -70 32 -94 83 -94s101 39 124 82v363h51v-495c0 -124 -73 -184 -167 -184z
" />
    <glyph glyph-name="ycircumflex.alt1" horiz-adv-x="450" 
d="M334 556h-36l-75 112l-72 -112h-36l82 144h52zM212 -196c-62 0 -111 20 -148 60l27 41c32 -39 73 -57 120 -57c72 0 117 49 117 139v87c-30 -44 -81 -82 -139 -82c-79 0 -118 39 -118 129v362h50v-351c0 -70 32 -94 83 -94s101 39 124 82v363h51v-495
c0 -124 -73 -184 -167 -184z" />
    <glyph glyph-name="ydieresis.alt1" horiz-adv-x="450" 
d="M343 601c0 -20 -16 -37 -36 -37s-37 17 -37 37s17 36 37 36s36 -16 36 -36zM175 601c0 -20 -16 -37 -36 -37s-36 17 -36 37s16 36 36 36s36 -16 36 -36zM212 -196c-62 0 -111 20 -148 60l27 41c32 -39 73 -57 120 -57c72 0 117 49 117 139v87c-30 -44 -81 -82 -139 -82
c-79 0 -118 39 -118 129v362h50v-351c0 -70 32 -94 83 -94s101 39 124 82v363h51v-495c0 -124 -73 -184 -167 -184z" />
    <glyph glyph-name="ygrave.alt1" horiz-adv-x="450" 
d="M212 -196c-62 0 -111 20 -148 60l27 41c32 -39 73 -57 120 -57c72 0 117 49 117 139v87c-30 -44 -81 -82 -139 -82c-79 0 -118 39 -118 129v362h50v-351c0 -70 32 -94 83 -94s101 39 124 82v363h51v-495c0 -124 -73 -184 -167 -184zM269 556h-39l-135 144h58z" />
    <glyph glyph-name="zacute" unicode="&#x17a;" horiz-adv-x="379" 
d="M319 700l-135 -144h-39l116 144h58zM332 0h-285v42l220 396h-220v45h281v-41l-221 -397h225v-45z" />
    <glyph glyph-name="zcaron" unicode="&#x17e;" horiz-adv-x="379" 
d="M213 556h-52l-85 144h36l75 -112l72 112h36zM332 0h-285v42l220 396h-220v45h281v-41l-221 -397h225v-45z" />
    <glyph glyph-name="zdotaccent" unicode="&#x17c;" horiz-adv-x="379" 
d="M332 0h-285v42l220 396h-220v45h281v-41l-221 -397h225v-45zM188 561c-19 0 -37 17 -37 37c0 21 18 38 37 38c21 0 38 -17 38 -38c0 -20 -17 -37 -38 -37z" />
    <glyph glyph-name="eth" unicode="&#xf0;" 
d="M120 515l-14 32l113 50c-20 21 -40 40 -61 58l37 34c24 -23 47 -47 69 -72l93 42l14 -32l-84 -37c78 -98 134 -214 134 -343c0 -143 -63 -259 -187 -259c-121 0 -186 115 -186 250c0 136 63 250 178 250c48 0 87 -22 118 -73c-25 54 -60 107 -101 155zM234 33
c93 0 133 102 133 205s-40 204 -133 204c-91 0 -132 -101 -132 -204s41 -205 132 -205z" />
    <glyph glyph-name="thorn" unicode="&#xfe;" horiz-adv-x="467" 
d="M250 -12c-51 0 -99 28 -129 84v-256h-50v851h50v-254c28 50 75 82 129 82c109 0 171 -103 171 -253c0 -149 -62 -254 -171 -254zM241 33c87 0 126 96 126 209s-39 208 -126 208c-51 0 -100 -42 -120 -89v-238c20 -46 69 -90 120 -90z" />
    <glyph glyph-name="Aacute.smcp" unicode="&#xf7e1;" horiz-adv-x="426" 
d="M343 750l-135 -144h-39l116 144h58zM182 550h62l172 -550h-57l-41 134h-210l-40 -134h-58zM306 181l-93 304l-93 -304h186z" />
    <glyph glyph-name="Abreve.smcp" unicode="&#xf66d;" horiz-adv-x="426" 
d="M182 550h62l172 -550h-57l-41 134h-210l-40 -134h-58zM306 181l-93 304l-93 -304h186zM360 672c-34 -45 -86 -74 -146 -74s-113 29 -147 74l29 24c26 -37 70 -61 118 -61c47 0 91 24 117 61z" />
    <glyph glyph-name="Acircumflex.smcp" unicode="&#xf7e2;" horiz-adv-x="426" 
d="M324 606h-36l-75 112l-72 -112h-36l82 144h52zM182 550h62l172 -550h-57l-41 134h-210l-40 -134h-58zM306 181l-93 304l-93 -304h186z" />
    <glyph glyph-name="Adieresis.smcp" unicode="&#xf7e4;" horiz-adv-x="426" 
d="M333 654c0 -20 -16 -37 -36 -37s-37 17 -37 37s17 36 37 36s36 -16 36 -36zM165 654c0 -20 -16 -37 -36 -37s-36 17 -36 37s16 36 36 36s36 -16 36 -36zM182 550h62l172 -550h-57l-41 134h-210l-40 -134h-58zM306 181l-93 304l-93 -304h186z" />
    <glyph glyph-name="Agrave.smcp" unicode="&#xf7e0;" horiz-adv-x="426" 
d="M182 550h62l172 -550h-57l-41 134h-210l-40 -134h-58zM306 181l-93 304l-93 -304h186zM257 606h-39l-135 144h58z" />
    <glyph glyph-name="Amacron.smcp" unicode="&#xf66e;" horiz-adv-x="426" 
d="M366 627h-304v37h304v-37zM182 550h62l172 -550h-57l-41 134h-210l-40 -134h-58zM306 181l-93 304l-93 -304h186z" />
    <glyph glyph-name="Aogonek.smcp" unicode="&#xf66f;" horiz-adv-x="426" 
d="M182 550h62l172 -550c-43 -25 -74 -58 -74 -106c0 -33 16 -47 40 -47s37 14 45 39l30 -15c-10 -29 -33 -57 -76 -57c-42 0 -75 25 -75 79c0 41 22 79 55 107h-2l-41 134h-210l-40 -134h-58zM306 181l-93 304l-93 -304h186z" />
    <glyph glyph-name="Aring.smcp" unicode="&#xf7e5;" horiz-adv-x="426" 
d="M214 575c-48 0 -88 39 -88 88c0 48 40 88 88 88c49 0 87 -40 87 -88c0 -49 -38 -88 -87 -88zM214 605c32 0 57 26 57 58c0 31 -25 57 -57 57c-31 0 -57 -26 -57 -57c0 -32 26 -58 57 -58zM182 550h62l172 -550h-57l-41 134h-210l-40 -134h-58zM306 181l-93 304l-93 -304
h186z" />
    <glyph glyph-name="Atilde.smcp" unicode="&#xf7e3;" horiz-adv-x="426" 
d="M182 550h62l172 -550h-57l-41 134h-210l-40 -134h-58zM306 181l-93 304l-93 -304h186zM263 604c-65 0 -60 103 -103 103c-25 0 -44 -29 -44 -97h-33c0 74 26 134 80 134c66 0 60 -103 103 -103c25 0 44 29 44 97h33c0 -74 -25 -134 -80 -134z" />
    <glyph glyph-name="uni1EA0.smcp" horiz-adv-x="426" 
d="M182 550h62l172 -550h-57l-41 134h-210l-40 -134h-58zM306 181l-93 304l-93 -304h186zM212 -178c-19 0 -37 17 -37 37c0 21 18 38 37 38c21 0 38 -17 38 -38c0 -20 -17 -37 -38 -37z" />
    <glyph glyph-name="uni1EA2.smcp" horiz-adv-x="426" 
d="M182 550h62l172 -550h-57l-41 134h-210l-40 -134h-58zM306 181l-93 304l-93 -304h186zM179 647l-27 7c8 26 28 49 62 49c33 0 60 -19 60 -64c0 -22 -7 -40 -21 -59h-31c17 20 24 39 24 59c0 26 -14 38 -32 38c-19 0 -30 -11 -35 -30z" />
    <glyph glyph-name="uni1EA4.smcp" horiz-adv-x="426" 
d="M324 606h-36l-75 112l-72 -112h-36l82 144h52zM465 821l-135 -144h-39l116 144h58zM182 550h62l172 -550h-57l-41 134h-210l-40 -134h-58zM306 181l-93 304l-93 -304h186z" />
    <glyph glyph-name="uni1EAC.smcp" horiz-adv-x="426" 
d="M323 606h-36l-75 112l-72 -112h-36l82 144h52zM182 550h62l172 -550h-57l-41 134h-210l-40 -134h-58zM306 181l-93 304l-93 -304h186zM212 -178c-19 0 -37 17 -37 37c0 21 18 38 37 38c21 0 38 -17 38 -38c0 -20 -17 -37 -38 -37z" />
    <glyph glyph-name="uni1EA6.smcp" horiz-adv-x="426" 
d="M324 606h-36l-75 112l-72 -112h-36l82 144h52zM182 550h62l172 -550h-57l-41 134h-210l-40 -134h-58zM306 181l-93 304l-93 -304h186zM135 677h-39l-135 144h58z" />
    <glyph glyph-name="uni1EA8.smcp" horiz-adv-x="426" 
d="M324 606h-36l-75 112l-72 -112h-36l82 144h52zM182 550h62l172 -550h-57l-41 134h-210l-40 -134h-58zM306 181l-93 304l-93 -304h186zM252 784l-27 7c8 26 28 49 62 49c33 0 60 -19 60 -64c0 -22 -7 -40 -21 -59h-31c17 20 24 39 24 59c0 26 -14 38 -32 38
c-19 0 -30 -11 -35 -30z" />
    <glyph glyph-name="uni1EAE.smcp" horiz-adv-x="426" 
d="M344 813l-135 -144h-39l116 144h58zM182 550h62l172 -550h-57l-41 134h-210l-40 -134h-58zM306 181l-93 304l-93 -304h186zM360 652c-34 -45 -86 -74 -146 -74s-113 29 -147 74l29 24c26 -37 70 -61 118 -61c47 0 91 24 117 61z" />
    <glyph glyph-name="uni1EAA.smcp" horiz-adv-x="426" 
d="M323 573h-36l-75 112l-72 -112h-36l82 144h52zM182 550h62l172 -550h-57l-41 134h-210l-40 -134h-58zM306 181l-93 304l-93 -304h186zM263 732c-65 0 -60 103 -103 103c-25 0 -44 -29 -44 -97h-33c0 74 26 134 80 134c66 0 60 -103 103 -103c25 0 44 29 44 97h33
c0 -74 -25 -134 -80 -134z" />
    <glyph glyph-name="uni1EB0.smcp" horiz-adv-x="426" 
d="M182 550h62l172 -550h-57l-41 134h-210l-40 -134h-58zM306 181l-93 304l-93 -304h186zM257 669h-39l-135 144h58zM360 652c-34 -45 -86 -74 -146 -74s-113 29 -147 74l29 24c26 -37 70 -61 118 -61c47 0 91 24 117 61z" />
    <glyph glyph-name="uni1EB2.smcp" horiz-adv-x="426" 
d="M182 550h62l172 -550h-57l-41 134h-210l-40 -134h-58zM306 181l-93 304l-93 -304h186zM179 729l-27 7c8 26 28 49 62 49c33 0 60 -19 60 -64c0 -22 -7 -40 -21 -59h-31c17 20 24 39 24 59c0 26 -14 38 -32 38c-19 0 -30 -11 -35 -30zM361 652c-34 -45 -86 -74 -146 -74
s-113 29 -147 74l29 24c26 -37 70 -61 118 -61c47 0 91 24 117 61z" />
    <glyph glyph-name="uni1EB4.smcp" horiz-adv-x="426" 
d="M361 652c-34 -45 -86 -74 -146 -74s-113 29 -147 74l29 24c26 -37 70 -61 118 -61c47 0 91 24 117 61zM182 550h62l172 -550h-57l-41 134h-210l-40 -134h-58zM306 181l-93 304l-93 -304h186zM263 701c-65 0 -60 103 -103 103c-25 0 -44 -29 -44 -97h-33
c0 74 26 134 80 134c66 0 60 -103 103 -103c25 0 44 29 44 97h33c0 -74 -25 -134 -80 -134z" />
    <glyph glyph-name="uni1EB6.smcp" horiz-adv-x="426" 
d="M182 550h62l172 -550h-57l-41 134h-210l-40 -134h-58zM306 181l-93 304l-93 -304h186zM213 -178c-19 0 -37 17 -37 37c0 21 18 38 37 38c21 0 38 -17 38 -38c0 -20 -17 -37 -38 -37zM360 672c-34 -45 -86 -74 -146 -74s-113 29 -147 74l29 24c26 -37 70 -61 118 -61
c47 0 91 24 117 61z" />
    <glyph glyph-name="AE.smcp" unicode="&#xf7e6;" horiz-adv-x="629" 
d="M581 0h-285v134h-168l-64 -134h-58l269 550h306v-47h-231v-197h225v-47h-225v-212h231v-47zM296 181v305l-147 -305h147z" />
    <glyph glyph-name="AEacute.smcp" unicode="&#xf670;" horiz-adv-x="629" 
d="M454 750l-135 -144h-39l116 144h58zM581 0h-285v134h-168l-64 -134h-58l269 550h306v-47h-231v-197h225v-47h-225v-212h231v-47zM296 181v305l-147 -305h147z" />
    <glyph glyph-name="uni1E02.smcp" horiz-adv-x="430" 
d="M242 0h-171v550h167c87 0 141 -54 141 -141c0 -66 -35 -109 -80 -124c51 -15 89 -74 89 -136c0 -91 -51 -149 -146 -149zM236 47c64 0 96 41 96 105c0 55 -29 107 -96 107h-112v-212h112zM233 306c63 0 90 43 90 98c0 54 -27 99 -90 99h-109v-197h109zM223 611
c-19 0 -37 17 -37 37c0 21 18 38 37 38c21 0 38 -17 38 -38c0 -20 -17 -37 -38 -37z" />
    <glyph glyph-name="Cacute.smcp" unicode="&#xf671;" horiz-adv-x="459" 
d="M396 750l-135 -144h-39l116 144h58zM266 -12c-135 0 -218 124 -218 287c0 164 83 287 218 287c76 0 128 -41 163 -101l-43 -21c-27 47 -69 74 -120 74c-100 0 -162 -102 -162 -239c0 -135 62 -239 162 -239c52 0 96 29 120 77l44 -21c-36 -63 -87 -104 -164 -104z" />
    <glyph glyph-name="Ccaron.smcp" unicode="&#xf672;" horiz-adv-x="459" 
d="M295 606h-52l-85 144h36l75 -112l72 112h36zM266 -12c-135 0 -218 124 -218 287c0 164 83 287 218 287c76 0 128 -41 163 -101l-43 -21c-27 47 -69 74 -120 74c-100 0 -162 -102 -162 -239c0 -135 62 -239 162 -239c52 0 96 29 120 77l44 -21c-36 -63 -87 -104 -164 -104
z" />
    <glyph glyph-name="Ccedilla.smcp" unicode="&#xf7e7;" horiz-adv-x="459" 
d="M261 -189c-35 0 -66 13 -85 29l16 32c22 -20 44 -28 69 -28c30 0 57 17 57 45c0 24 -13 38 -36 38c-14 0 -26 -6 -35 -16l-27 16l23 63c-122 13 -195 131 -195 285c0 164 83 287 218 287c76 0 128 -41 163 -101l-43 -21c-27 47 -69 74 -120 74
c-100 0 -162 -102 -162 -239c0 -135 62 -239 162 -239c52 0 96 29 120 77l44 -21c-34 -59 -81 -99 -151 -103l-17 -46c9 7 20 11 33 11c33 0 59 -26 59 -65c0 -46 -41 -78 -93 -78z" />
    <glyph glyph-name="Ccircumflex.smcp" unicode="&#xf673;" horiz-adv-x="459" 
d="M377 606h-36l-75 112l-72 -112h-36l82 144h52zM266 -12c-135 0 -218 124 -218 287c0 164 83 287 218 287c76 0 128 -41 163 -101l-43 -21c-27 47 -69 74 -120 74c-100 0 -162 -102 -162 -239c0 -135 62 -239 162 -239c52 0 96 29 120 77l44 -21
c-36 -63 -87 -104 -164 -104z" />
    <glyph glyph-name="Cdotaccent.smcp" unicode="&#xf674;" horiz-adv-x="459" 
d="M266 -12c-135 0 -218 124 -218 287c0 164 83 287 218 287c76 0 128 -41 163 -101l-43 -21c-27 47 -69 74 -120 74c-100 0 -162 -102 -162 -239c0 -135 62 -239 162 -239c52 0 96 29 120 77l44 -21c-36 -63 -87 -104 -164 -104zM267 611c-19 0 -37 17 -37 37
c0 21 18 38 37 38c21 0 38 -17 38 -38c0 -20 -17 -37 -38 -37z" />
    <glyph glyph-name="Dcaron.smcp" unicode="&#xf675;" horiz-adv-x="490" 
d="M262 606h-52l-85 144h36l75 -112l72 112h36zM205 0h-144v550h144c146 0 227 -120 227 -276s-81 -274 -227 -274zM205 47c113 0 171 99 171 227s-58 229 -171 229h-91v-456h91z" />
    <glyph glyph-name="Dcroat.smcp" unicode="&#xf676;" horiz-adv-x="512" 
d="M227 0h-144v261h-66v38h66v251h144c146 0 227 -120 227 -276s-81 -274 -227 -274zM245 261h-109v-214h91c113 0 171 99 171 227s-58 229 -171 229h-91v-204h109v-38z" />
    <glyph glyph-name="uni1E0A.smcp" horiz-adv-x="490" 
d="M215 0h-144v550h144c146 0 227 -120 227 -276s-81 -274 -227 -274zM215 47c113 0 171 99 171 227s-58 229 -171 229h-91v-456h91zM245 611c-19 0 -37 17 -37 37c0 21 18 38 37 38c21 0 38 -17 38 -38c0 -20 -17 -37 -38 -37z" />
    <glyph glyph-name="Eacute.smcp" unicode="&#xf7e9;" horiz-adv-x="404" 
d="M343 750l-135 -144h-39l116 144h58zM356 0h-285v550h285v-47h-232v-197h226v-47h-226v-212h232v-47z" />
    <glyph glyph-name="Ebreve.smcp" unicode="&#xf677;" horiz-adv-x="404" 
d="M356 0h-285v550h285v-47h-232v-197h226v-47h-226v-212h232v-47zM360 672c-34 -45 -86 -74 -146 -74s-113 29 -147 74l29 24c26 -37 70 -61 118 -61c47 0 91 24 117 61z" />
    <glyph glyph-name="Ecaron.smcp" unicode="&#xf678;" horiz-adv-x="404" 
d="M241 606h-52l-85 144h36l75 -112l72 112h36zM356 0h-285v550h285v-47h-232v-197h226v-47h-226v-212h232v-47z" />
    <glyph glyph-name="Ecircumflex.smcp" unicode="&#xf7ea;" horiz-adv-x="404" 
d="M324 606h-36l-75 112l-72 -112h-36l82 144h52zM356 0h-285v550h285v-47h-232v-197h226v-47h-226v-212h232v-47z" />
    <glyph glyph-name="Edieresis.smcp" unicode="&#xf7eb;" horiz-adv-x="404" 
d="M334 651c0 -20 -16 -37 -36 -37s-37 17 -37 37s17 36 37 36s36 -16 36 -36zM166 651c0 -20 -16 -37 -36 -37s-36 17 -36 37s16 36 36 36s36 -16 36 -36zM356 0h-285v550h285v-47h-232v-197h226v-47h-226v-212h232v-47z" />
    <glyph glyph-name="Edotaccent.smcp" unicode="&#xf679;" horiz-adv-x="404" 
d="M356 0h-285v550h285v-47h-232v-197h226v-47h-226v-212h232v-47zM215 611c-19 0 -37 17 -37 37c0 21 18 38 37 38c21 0 38 -17 38 -38c0 -20 -17 -37 -38 -37z" />
    <glyph glyph-name="Egrave.smcp" unicode="&#xf7e8;" horiz-adv-x="404" 
d="M356 0h-285v550h285v-47h-232v-197h226v-47h-226v-212h232v-47zM257 606h-39l-135 144h58z" />
    <glyph glyph-name="Emacron.smcp" unicode="&#xf67a;" horiz-adv-x="404" 
d="M356 0h-285v550h285v-47h-232v-197h226v-47h-226v-212h232v-47zM365 627h-304v37h304v-37z" />
    <glyph glyph-name="Eogonek.smcp" unicode="&#xf67c;" horiz-adv-x="404" 
d="M367 -114l30 -15c-10 -29 -33 -57 -76 -57c-42 0 -75 25 -75 79c0 41 22 79 55 107h-230v550h285v-47h-232v-197h226v-47h-226v-212h232v-47c-43 -25 -74 -58 -74 -106c0 -33 16 -47 40 -47s37 14 45 39z" />
    <glyph glyph-name="uni1EB8.smcp" horiz-adv-x="404" 
d="M356 0h-285v550h285v-47h-232v-197h226v-47h-226v-212h232v-47zM214 -178c-19 0 -37 17 -37 37c0 21 18 38 37 38c21 0 38 -17 38 -38c0 -20 -17 -37 -38 -37z" />
    <glyph glyph-name="uni1EBA.smcp" horiz-adv-x="404" 
d="M356 0h-285v550h285v-47h-232v-197h226v-47h-226v-212h232v-47zM181 647l-27 7c8 26 28 49 62 49c33 0 60 -19 60 -64c0 -22 -7 -40 -21 -59h-31c17 20 24 39 24 59c0 26 -14 38 -32 38c-19 0 -30 -11 -35 -30z" />
    <glyph glyph-name="uni1EBC.smcp" horiz-adv-x="404" 
d="M356 0h-285v550h285v-47h-232v-197h226v-47h-226v-212h232v-47zM265 604c-65 0 -60 103 -103 103c-25 0 -44 -29 -44 -97h-33c0 74 26 134 80 134c66 0 60 -103 103 -103c25 0 44 29 44 97h33c0 -74 -25 -134 -80 -134z" />
    <glyph glyph-name="uni1EBE.smcp" horiz-adv-x="404" 
d="M323 606h-36l-75 112l-72 -112h-36l82 144h52zM464 821l-135 -144h-39l116 144h58zM356 0h-285v550h285v-47h-232v-197h226v-47h-226v-212h232v-47z" />
    <glyph glyph-name="uni1EC0.smcp" horiz-adv-x="404" 
d="M321 606h-36l-75 112l-72 -112h-36l82 144h52zM356 0h-285v550h285v-47h-232v-197h226v-47h-226v-212h232v-47zM132 677h-39l-135 144h58z" />
    <glyph glyph-name="uni1EC2.smcp" horiz-adv-x="404" 
d="M324 606h-36l-75 112l-72 -112h-36l82 144h52zM356 0h-285v550h285v-47h-232v-197h226v-47h-226v-212h232v-47zM252 784l-27 7c8 26 28 49 62 49c33 0 60 -19 60 -64c0 -22 -7 -40 -21 -59h-31c17 20 24 39 24 59c0 26 -14 38 -32 38c-19 0 -30 -11 -35 -30z" />
    <glyph glyph-name="uni1EC4.smcp" horiz-adv-x="404" 
d="M322 573h-36l-75 112l-72 -112h-36l82 144h52zM356 0h-285v550h285v-47h-232v-197h226v-47h-226v-212h232v-47zM262 732c-65 0 -60 103 -103 103c-25 0 -44 -29 -44 -97h-33c0 74 26 134 80 134c66 0 60 -103 103 -103c25 0 44 29 44 97h33c0 -74 -25 -134 -80 -134z" />
    <glyph glyph-name="uni1EC6.smcp" horiz-adv-x="404" 
d="M325 606h-36l-75 112l-72 -112h-36l82 144h52zM356 0h-285v550h285v-47h-232v-197h226v-47h-226v-212h232v-47zM214 -178c-19 0 -37 17 -37 37c0 21 18 38 37 38c21 0 38 -17 38 -38c0 -20 -17 -37 -38 -37z" />
    <glyph glyph-name="uni1E1E.smcp" horiz-adv-x="393" 
d="M217 611c-19 0 -37 17 -37 37c0 21 18 38 37 38c21 0 38 -17 38 -38c0 -20 -17 -37 -38 -37zM124 0h-53v550h285v-47h-232v-197h226v-47h-226v-259z" />
    <glyph glyph-name="Gbreve.smcp" unicode="&#xf67d;" horiz-adv-x="493" 
d="M266 -12c-133 0 -218 118 -218 287c0 170 85 287 218 287c78 0 129 -41 165 -97l-41 -24c-28 44 -69 73 -124 73c-101 0 -162 -101 -162 -239c0 -137 61 -240 163 -240c52 0 93 25 115 51v144h-131v46h183v-210c-43 -51 -100 -78 -168 -78zM413 672
c-34 -45 -86 -74 -146 -74s-113 29 -147 74l29 24c26 -37 70 -61 118 -61c47 0 91 24 117 61z" />
    <glyph glyph-name="Gcircumflex.smcp" unicode="&#xf67e;" horiz-adv-x="493" 
d="M266 -12c-133 0 -218 118 -218 287c0 170 85 287 218 287c78 0 129 -41 165 -97l-41 -24c-28 44 -69 73 -124 73c-101 0 -162 -101 -162 -239c0 -137 61 -240 163 -240c52 0 93 25 115 51v144h-131v46h183v-210c-43 -51 -100 -78 -168 -78zM377 606h-36l-75 112l-72 -112
h-36l82 144h52z" />
    <glyph glyph-name="Gcommaaccent.smcp" unicode="&#xf67f;" horiz-adv-x="493" 
d="M266 -12c-133 0 -218 118 -218 287c0 170 85 287 218 287c78 0 129 -41 165 -97l-41 -24c-28 44 -69 73 -124 73c-101 0 -162 -101 -162 -239c0 -137 61 -240 163 -240c52 0 93 25 115 51v144h-131v46h183v-210c-43 -51 -100 -78 -168 -78zM314 -137
c0 -53 -31 -102 -66 -127l-27 21c31 22 54 60 55 89c0 0 -6 -1 -9 -1c-21 0 -36 17 -36 38s16 39 38 39c24 0 45 -21 45 -59z" />
    <glyph glyph-name="Gdotaccent.smcp" unicode="&#xf680;" horiz-adv-x="493" 
d="M266 -12c-133 0 -218 118 -218 287c0 170 85 287 218 287c78 0 129 -41 165 -97l-41 -24c-28 44 -69 73 -124 73c-101 0 -162 -101 -162 -239c0 -137 61 -240 163 -240c52 0 93 25 115 51v144h-131v46h183v-210c-43 -51 -100 -78 -168 -78zM268 611c-19 0 -37 17 -37 37
c0 21 18 38 37 38c21 0 38 -17 38 -38c0 -20 -17 -37 -38 -37z" />
    <glyph glyph-name="Gbreve.smcp.alt1" horiz-adv-x="501" 
d="M265 -12c-132 0 -217 118 -217 287c0 170 85 287 218 287c78 0 129 -41 165 -97l-41 -24c-28 44 -69 73 -124 73c-101 0 -162 -101 -162 -239c0 -137 61 -240 162 -240c88 0 141 92 148 195h-163v46h217c0 -169 -71 -288 -203 -288zM413 672c-34 -45 -86 -74 -146 -74
s-113 29 -147 74l29 24c26 -37 70 -61 118 -61c47 0 91 24 117 61z" />
    <glyph glyph-name="Gcommaaccent.smcp.alt1" horiz-adv-x="501" 
d="M314 -137c0 -53 -31 -102 -66 -127l-27 21c31 22 54 60 55 89c0 0 -6 -1 -9 -1c-21 0 -36 17 -36 38s16 39 38 39c24 0 45 -21 45 -59zM265 -12c-132 0 -217 118 -217 287c0 170 85 287 218 287c78 0 129 -41 165 -97l-41 -24c-28 44 -69 73 -124 73
c-101 0 -162 -101 -162 -239c0 -137 61 -240 162 -240c88 0 141 92 148 195h-163v46h217c0 -169 -71 -288 -203 -288z" />
    <glyph glyph-name="Gcircumflex.smcp.alt1" horiz-adv-x="501" 
d="M378 606h-36l-75 112l-72 -112h-36l82 144h52zM265 -12c-132 0 -217 118 -217 287c0 170 85 287 218 287c78 0 129 -41 165 -97l-41 -24c-28 44 -69 73 -124 73c-101 0 -162 -101 -162 -239c0 -137 61 -240 162 -240c88 0 141 92 148 195h-163v46h217
c0 -169 -71 -288 -203 -288z" />
    <glyph glyph-name="Gdotaccent.smcp.alt1" horiz-adv-x="501" 
d="M265 -12c-132 0 -217 118 -217 287c0 170 85 287 218 287c78 0 129 -41 165 -97l-41 -24c-28 44 -69 73 -124 73c-101 0 -162 -101 -162 -239c0 -137 61 -240 162 -240c88 0 141 92 148 195h-163v46h217c0 -169 -71 -288 -203 -288zM267 611c-19 0 -37 17 -37 37
c0 21 18 38 37 38c21 0 38 -17 38 -38c0 -20 -17 -37 -38 -37z" />
    <glyph glyph-name="Hbar.smcp" unicode="&#xf682;" horiz-adv-x="533" 
d="M445 0h-53v259h-251v-259h-53v410h-71v37h71v103h53v-103h251v103h53v-103h64v-37h-64v-410zM141 307h251v103h-251v-103z" />
    <glyph glyph-name="Hcircumflex.smcp" unicode="&#xf681;" horiz-adv-x="499" 
d="M358 606h-36l-75 112l-72 -112h-36l82 144h52zM428 0h-53v259h-251v-259h-53v550h53v-243h251v243h53v-550z" />
    <glyph glyph-name="uni1E22.smcp" horiz-adv-x="499" 
d="M428 0h-53v259h-251v-259h-53v550h53v-243h251v243h53v-550zM250 611c-19 0 -37 17 -37 37c0 21 18 38 37 38c21 0 38 -17 38 -38c0 -20 -17 -37 -38 -37z" />
    <glyph glyph-name="Iacute.smcp" unicode="&#xf7ed;" horiz-adv-x="195" 
d="M228 750l-135 -144h-39l116 144h58zM124 0h-53v550h53v-550z" />
    <glyph glyph-name="Ibreve.smcp" unicode="&#xf683;" horiz-adv-x="195" 
d="M124 0h-53v550h53v-550zM243 672c-34 -45 -86 -74 -146 -74s-113 29 -147 74l29 24c26 -37 70 -61 118 -61c47 0 91 24 117 61z" />
    <glyph glyph-name="Igrave.smcp" unicode="&#xf7ec;" horiz-adv-x="195" 
d="M124 0h-53v550h53v-550zM141 606h-39l-135 144h58z" />
    <glyph glyph-name="Icircumflex.smcp" unicode="&#xf7ee;" horiz-adv-x="195" 
d="M208 606h-36l-75 112l-72 -112h-36l82 144h52zM124 0h-53v550h53v-550z" />
    <glyph glyph-name="Idieresis.smcp" unicode="&#xf7ef;" horiz-adv-x="195" 
d="M218 651c0 -20 -16 -37 -36 -37s-37 17 -37 37s17 36 37 36s36 -16 36 -36zM50 651c0 -20 -16 -37 -36 -37s-36 17 -36 37s16 36 36 36s36 -16 36 -36zM124 0h-53v550h53v-550z" />
    <glyph glyph-name="Idotaccent.smcp" unicode="&#xf6ad;" horiz-adv-x="195" 
d="M124 0h-53v550h53v-550zM97 611c-19 0 -37 17 -37 37c0 21 18 38 37 38c21 0 38 -17 38 -38c0 -20 -17 -37 -38 -37z" />
    <glyph glyph-name="Imacron.smcp" unicode="&#xf685;" horiz-adv-x="195" 
d="M250 627h-304v37h304v-37zM124 0h-53v550h53v-550z" />
    <glyph glyph-name="Iogonek.smcp" unicode="&#xf686;" horiz-adv-x="195" 
d="M124 0c-43 -25 -74 -58 -74 -106c0 -33 16 -47 40 -47s37 14 45 39l30 -15c-10 -29 -33 -57 -76 -57c-42 0 -75 25 -75 79c0 42 23 80 57 108v549h53v-550z" />
    <glyph glyph-name="Itilde.smcp" unicode="&#xf687;" horiz-adv-x="195" 
d="M124 0h-53v550h53v-550zM148 604c-65 0 -60 103 -103 103c-25 0 -44 -29 -44 -97h-33c0 74 26 134 80 134c66 0 60 -103 103 -103c25 0 44 29 44 97h33c0 -74 -25 -134 -80 -134z" />
    <glyph glyph-name="uni1EC8.smcp" horiz-adv-x="195" 
d="M124 0h-53v550h53v-550zM64 647l-27 7c8 26 28 49 62 49c33 0 60 -19 60 -64c0 -22 -7 -40 -21 -59h-31c17 20 24 39 24 59c0 26 -14 38 -32 38c-19 0 -30 -11 -35 -30z" />
    <glyph glyph-name="uni1ECA.smcp" horiz-adv-x="195" 
d="M124 0h-53v550h53v-550zM98 -178c-19 0 -37 17 -37 37c0 21 18 38 37 38c21 0 38 -17 38 -38c0 -20 -17 -37 -38 -37z" />
    <glyph glyph-name="IJ.smcp" unicode="&#xf684;" horiz-adv-x="539" 
d="M322 -12c-49 0 -89 19 -120 58l27 38c22 -29 52 -48 90 -48c60 0 96 36 96 100v414h54v-417c0 -100 -63 -145 -147 -145zM124 0h-53v550h53v-550z" />
    <glyph glyph-name="Jcircumflex.smcp" unicode="&#xf688;" horiz-adv-x="344" 
d="M357 606h-36l-75 112l-72 -112h-36l82 144h52zM127 -12c-49 0 -89 19 -120 58l27 38c22 -29 52 -48 90 -48c60 0 96 36 96 100v414h54v-417c0 -100 -63 -145 -147 -145z" />
    <glyph glyph-name="Kcommaaccent.smcp" unicode="&#xf689;" horiz-adv-x="435" 
d="M271 -137c0 -53 -31 -102 -66 -127l-27 21c31 22 54 60 55 89c0 0 -6 -1 -9 -1c-21 0 -36 17 -36 38s16 39 38 39c24 0 45 -21 45 -59zM419 0h-65l-182 251l-48 -66v-185h-53v550h53v-291l213 291h65l-198 -262z" />
    <glyph glyph-name="Lacute.smcp" unicode="&#xf68a;" horiz-adv-x="369" 
d="M338 0h-267v550h53v-503h214v-47zM334 750l-135 -144h-39l116 144h58z" />
    <glyph glyph-name="Lcaron.smcp" unicode="&#xf68b;" horiz-adv-x="369" 
d="M275 501c0 -53 -31 -102 -66 -127l-27 21c31 22 54 60 55 89c0 0 -6 -1 -9 -1c-21 0 -36 17 -36 38s16 39 38 39c24 0 45 -21 45 -59zM338 0h-267v550h53v-503h214v-47z" />
    <glyph glyph-name="Lcommaaccent.smcp" unicode="&#xf68c;" horiz-adv-x="369" 
d="M249 -137c0 -53 -31 -102 -66 -127l-27 21c31 22 54 60 55 89c0 0 -6 -1 -9 -1c-21 0 -36 17 -36 38s16 39 38 39c24 0 45 -21 45 -59zM338 0h-267v550h53v-503h214v-47z" />
    <glyph glyph-name="Ldot.smcp" unicode="&#xf68d;" horiz-adv-x="392" 
d="M338 0h-267v550h53v-503h214v-47zM339 289c0 -24 -19 -43 -43 -43s-43 19 -43 43c0 23 19 42 43 42s43 -19 43 -42z" />
    <glyph glyph-name="Lslash.smcp" unicode="&#xf6f9;" horiz-adv-x="393" 
d="M17 195v51l79 45v259h53v-228l81 47v-51l-81 -47v-224h214v-47h-267v240z" />
    <glyph glyph-name="Nacute.smcp" unicode="&#xf68e;" horiz-adv-x="496" 
d="M378 750l-135 -144h-39l116 144h58zM426 0h-55l-247 444v-444h-53v550h56l245 -437v437h54v-550z" />
    <glyph glyph-name="Ncaron.smcp" unicode="&#xf68f;" horiz-adv-x="496" 
d="M275 606h-52l-85 144h36l75 -112l72 112h36zM426 0h-55l-247 444v-444h-53v550h56l245 -437v437h54v-550z" />
    <glyph glyph-name="Ncommaaccent.smcp" unicode="&#xf690;" horiz-adv-x="496" 
d="M295 -137c0 -53 -31 -102 -66 -127l-27 21c31 22 54 60 55 89c0 0 -6 -1 -9 -1c-21 0 -36 17 -36 38s16 39 38 39c24 0 45 -21 45 -59zM426 0h-55l-247 444v-444h-53v550h56l245 -437v437h54v-550z" />
    <glyph glyph-name="Ntilde.smcp" unicode="&#xf7f1;" horiz-adv-x="496" 
d="M426 0h-55l-247 444v-444h-53v550h56l245 -437v437h54v-550zM296 604c-65 0 -60 103 -103 103c-25 0 -44 -29 -44 -97h-33c0 74 26 134 80 134c66 0 60 -103 103 -103c25 0 44 29 44 97h33c0 -74 -25 -134 -80 -134z" />
    <glyph glyph-name="Eng.smcp" unicode="&#xf67b;" horiz-adv-x="496" 
d="M279 -196c-49 0 -89 19 -120 58l27 38c22 -29 53 -48 91 -48c59 0 95 36 95 100v44l-248 454v-450h-53v550h56l245 -443v443h54v-601c0 -100 -63 -145 -147 -145z" />
    <glyph glyph-name="Oacute.smcp" unicode="&#xf7f3;" horiz-adv-x="521" 
d="M260 -12c-139 0 -212 129 -212 287s73 287 212 287s213 -129 213 -287s-74 -287 -213 -287zM260 36c103 0 157 108 157 239c0 132 -54 239 -157 239c-104 0 -156 -107 -156 -239c0 -131 52 -239 156 -239zM391 750l-135 -144h-39l116 144h58z" />
    <glyph glyph-name="Obreve.smcp" unicode="&#xf691;" horiz-adv-x="521" 
d="M260 -12c-139 0 -212 129 -212 287s73 287 212 287s213 -129 213 -287s-74 -287 -213 -287zM260 36c103 0 157 108 157 239c0 132 -54 239 -157 239c-104 0 -156 -107 -156 -239c0 -131 52 -239 156 -239zM407 672c-34 -45 -86 -74 -146 -74s-113 29 -147 74l29 24
c26 -37 70 -61 118 -61c47 0 91 24 117 61z" />
    <glyph glyph-name="Ocircumflex.smcp" unicode="&#xf7f4;" horiz-adv-x="521" 
d="M260 -12c-139 0 -212 129 -212 287s73 287 212 287s213 -129 213 -287s-74 -287 -213 -287zM260 36c103 0 157 108 157 239c0 132 -54 239 -157 239c-104 0 -156 -107 -156 -239c0 -131 52 -239 156 -239zM371 606h-36l-75 112l-72 -112h-36l82 144h52z" />
    <glyph glyph-name="Odieresis.smcp" unicode="&#xf7f6;" horiz-adv-x="521" 
d="M260 -12c-139 0 -212 129 -212 287s73 287 212 287s213 -129 213 -287s-74 -287 -213 -287zM260 36c103 0 157 108 157 239c0 132 -54 239 -157 239c-104 0 -156 -107 -156 -239c0 -131 52 -239 156 -239zM380 651c0 -20 -16 -37 -36 -37s-37 17 -37 37s17 36 37 36
s36 -16 36 -36zM212 651c0 -20 -16 -37 -36 -37s-36 17 -36 37s16 36 36 36s36 -16 36 -36z" />
    <glyph glyph-name="Ograve.smcp" unicode="&#xf7f2;" horiz-adv-x="521" 
d="M260 -12c-139 0 -212 129 -212 287s73 287 212 287s213 -129 213 -287s-74 -287 -213 -287zM260 36c103 0 157 108 157 239c0 132 -54 239 -157 239c-104 0 -156 -107 -156 -239c0 -131 52 -239 156 -239zM304 606h-39l-135 144h58z" />
    <glyph glyph-name="Ohungarumlaut.smcp" unicode="&#xf692;" horiz-adv-x="521" 
d="M260 -12c-139 0 -212 129 -212 287s73 287 212 287s213 -129 213 -287s-74 -287 -213 -287zM260 36c103 0 157 108 157 239c0 132 -54 239 -157 239c-104 0 -156 -107 -156 -239c0 -131 52 -239 156 -239zM300 750l-96 -144h-33l77 144h52zM425 750l-96 -144h-33l77 144
h52z" />
    <glyph glyph-name="Omacron.smcp" unicode="&#xf693;" horiz-adv-x="521" 
d="M260 -12c-139 0 -212 129 -212 287s73 287 212 287s213 -129 213 -287s-74 -287 -213 -287zM260 36c103 0 157 108 157 239c0 132 -54 239 -157 239c-104 0 -156 -107 -156 -239c0 -131 52 -239 156 -239zM412 627h-304v37h304v-37z" />
    <glyph glyph-name="Otilde.smcp" unicode="&#xf7f5;" horiz-adv-x="521" 
d="M260 -12c-139 0 -212 129 -212 287s73 287 212 287s213 -129 213 -287s-74 -287 -213 -287zM260 36c103 0 157 108 157 239c0 132 -54 239 -157 239c-104 0 -156 -107 -156 -239c0 -131 52 -239 156 -239zM311 604c-65 0 -60 103 -103 103c-25 0 -44 -29 -44 -97h-33
c0 74 26 134 80 134c66 0 60 -103 103 -103c25 0 44 29 44 97h33c0 -74 -25 -134 -80 -134z" />
    <glyph glyph-name="Oslash.smcp" unicode="&#xf7f8;" horiz-adv-x="521" 
d="M260 -12c-47 0 -87 14 -119 40l-16 -28h-46l33 58c-42 52 -64 130 -64 217c0 158 73 287 212 287c47 0 86 -15 118 -41l17 29h45l-33 -57c43 -53 66 -131 66 -218c0 -158 -74 -287 -213 -287zM260 36c103 0 157 108 157 239c0 65 -14 124 -39 167l-211 -368
c24 -24 55 -38 93 -38zM104 275c0 -65 12 -124 37 -167l211 367c-24 24 -55 39 -92 39c-104 0 -156 -107 -156 -239z" />
    <glyph glyph-name="Oslashacute.smcp" unicode="&#xf694;" horiz-adv-x="521" 
d="M260 -12c-47 0 -87 14 -119 40l-16 -28h-46l33 58c-42 52 -64 130 -64 217c0 158 73 287 212 287c47 0 86 -15 118 -41l17 29h45l-33 -57c43 -53 66 -131 66 -218c0 -158 -74 -287 -213 -287zM260 36c103 0 157 108 157 239c0 65 -14 124 -39 167l-211 -368
c24 -24 55 -38 93 -38zM104 275c0 -65 12 -124 37 -167l211 367c-24 24 -55 39 -92 39c-104 0 -156 -107 -156 -239zM391 750l-135 -144h-39l116 144h58z" />
    <glyph glyph-name="uni1ECC.smcp" horiz-adv-x="521" 
d="M260 -12c-139 0 -212 129 -212 287s73 287 212 287s213 -129 213 -287s-74 -287 -213 -287zM260 36c103 0 157 108 157 239c0 132 -54 239 -157 239c-104 0 -156 -107 -156 -239c0 -131 52 -239 156 -239zM261 -178c-19 0 -37 17 -37 37c0 21 18 38 37 38
c21 0 38 -17 38 -38c0 -20 -17 -37 -38 -37z" />
    <glyph glyph-name="uni1ECE.smcp" horiz-adv-x="521" 
d="M260 -12c-139 0 -212 129 -212 287s73 287 212 287s213 -129 213 -287s-74 -287 -213 -287zM260 36c103 0 157 108 157 239c0 132 -54 239 -157 239c-104 0 -156 -107 -156 -239c0 -131 52 -239 156 -239zM227 652l-27 7c8 26 28 49 62 49c33 0 60 -19 60 -64
c0 -22 -7 -40 -21 -59h-31c17 20 24 39 24 59c0 26 -14 38 -32 38c-19 0 -30 -11 -35 -30z" />
    <glyph glyph-name="uni1ED0.smcp" horiz-adv-x="521" 
d="M260 -12c-139 0 -212 129 -212 287s73 287 212 287s213 -129 213 -287s-74 -287 -213 -287zM260 36c103 0 157 108 157 239c0 132 -54 239 -157 239c-104 0 -156 -107 -156 -239c0 -131 52 -239 156 -239zM371 606h-36l-75 112l-72 -112h-36l82 144h52zM512 821
l-135 -144h-39l116 144h58z" />
    <glyph glyph-name="uni1ED2.smcp" horiz-adv-x="521" 
d="M260 -12c-139 0 -212 129 -212 287s73 287 212 287s213 -129 213 -287s-74 -287 -213 -287zM260 36c103 0 157 108 157 239c0 132 -54 239 -157 239c-104 0 -156 -107 -156 -239c0 -131 52 -239 156 -239zM371 606h-36l-75 112l-72 -112h-36l82 144h52zM182 677h-39
l-135 144h58z" />
    <glyph glyph-name="uni1ED4.smcp" horiz-adv-x="521" 
d="M260 -12c-139 0 -212 129 -212 287s73 287 212 287s213 -129 213 -287s-74 -287 -213 -287zM260 36c103 0 157 108 157 239c0 132 -54 239 -157 239c-104 0 -156 -107 -156 -239c0 -131 52 -239 156 -239zM372 606h-36l-75 112l-72 -112h-36l82 144h52zM300 784l-27 7
c8 26 28 49 62 49c33 0 60 -19 60 -64c0 -22 -7 -40 -21 -59h-31c17 20 24 39 24 59c0 26 -14 38 -32 38c-19 0 -30 -11 -35 -30z" />
    <glyph glyph-name="uni1ED6.smcp" horiz-adv-x="521" 
d="M260 -12c-139 0 -212 129 -212 287s73 287 212 287s213 -129 213 -287s-74 -287 -213 -287zM260 36c103 0 157 108 157 239c0 132 -54 239 -157 239c-104 0 -156 -107 -156 -239c0 -131 52 -239 156 -239zM372 573h-36l-75 112l-72 -112h-36l82 144h52zM312 732
c-65 0 -60 103 -103 103c-25 0 -44 -29 -44 -97h-33c0 74 26 134 80 134c66 0 60 -103 103 -103c25 0 44 29 44 97h33c0 -74 -25 -134 -80 -134z" />
    <glyph glyph-name="uni1ED8.smcp" horiz-adv-x="521" 
d="M260 -12c-139 0 -212 129 -212 287s73 287 212 287s213 -129 213 -287s-74 -287 -213 -287zM260 36c103 0 157 108 157 239c0 132 -54 239 -157 239c-104 0 -156 -107 -156 -239c0 -131 52 -239 156 -239zM371 606h-36l-75 112l-72 -112h-36l82 144h52zM262 -178
c-19 0 -37 17 -37 37c0 21 18 38 37 38c21 0 38 -17 38 -38c0 -20 -17 -37 -38 -37z" />
    <glyph glyph-name="Ohorn.smcp" horiz-adv-x="521" 
d="M260 -12c-139 0 -212 129 -212 287s73 287 212 287c77 0 134 -40 170 -103c21 22 36 50 38 74c-1 0 -6 -1 -9 -1c-21 0 -36 16 -36 37c0 20 16 37 38 37c23 0 43 -21 43 -58c0 -48 -27 -94 -59 -120c18 -44 28 -97 28 -153c0 -158 -74 -287 -213 -287zM260 36
c103 0 157 108 157 239c0 132 -54 239 -157 239c-104 0 -156 -107 -156 -239c0 -131 52 -239 156 -239z" />
    <glyph glyph-name="uni1EDA.smcp" horiz-adv-x="521" 
d="M260 -12c-139 0 -212 129 -212 287s73 287 212 287c77 0 134 -40 170 -103c21 22 36 50 38 74c-1 0 -6 -1 -9 -1c-21 0 -36 16 -36 37c0 20 16 37 38 37c23 0 43 -21 43 -58c0 -48 -27 -94 -59 -120c18 -44 28 -97 28 -153c0 -158 -74 -287 -213 -287zM260 36
c103 0 157 108 157 239c0 132 -54 239 -157 239c-104 0 -156 -107 -156 -239c0 -131 52 -239 156 -239zM391 750l-135 -144h-39l116 144h58z" />
    <glyph glyph-name="uni1EDC.smcp" horiz-adv-x="521" 
d="M260 -12c-139 0 -212 129 -212 287s73 287 212 287c77 0 134 -40 170 -103c21 22 36 50 38 74c-1 0 -6 -1 -9 -1c-21 0 -36 16 -36 37c0 20 16 37 38 37c23 0 43 -21 43 -58c0 -48 -27 -94 -59 -120c18 -44 28 -97 28 -153c0 -158 -74 -287 -213 -287zM260 36
c103 0 157 108 157 239c0 132 -54 239 -157 239c-104 0 -156 -107 -156 -239c0 -131 52 -239 156 -239zM304 606h-39l-135 144h58z" />
    <glyph glyph-name="uni1EDE.smcp" horiz-adv-x="521" 
d="M260 -12c-139 0 -212 129 -212 287s73 287 212 287c77 0 134 -40 170 -103c21 22 36 50 38 74c-1 0 -6 -1 -9 -1c-21 0 -36 16 -36 37c0 20 16 37 38 37c23 0 43 -21 43 -58c0 -48 -27 -94 -59 -120c18 -44 28 -97 28 -153c0 -158 -74 -287 -213 -287zM260 36
c103 0 157 108 157 239c0 132 -54 239 -157 239c-104 0 -156 -107 -156 -239c0 -131 52 -239 156 -239zM227 652l-27 7c8 26 28 49 62 49c33 0 60 -19 60 -64c0 -22 -7 -40 -21 -59h-31c17 20 24 39 24 59c0 26 -14 38 -32 38c-19 0 -30 -11 -35 -30z" />
    <glyph glyph-name="uni1EE0.smcp" horiz-adv-x="521" 
d="M260 -12c-139 0 -212 129 -212 287s73 287 212 287c77 0 134 -40 170 -103c21 22 36 50 38 74c-1 0 -6 -1 -9 -1c-21 0 -36 16 -36 37c0 20 16 37 38 37c23 0 43 -21 43 -58c0 -48 -27 -94 -59 -120c18 -44 28 -97 28 -153c0 -158 -74 -287 -213 -287zM260 36
c103 0 157 108 157 239c0 132 -54 239 -157 239c-104 0 -156 -107 -156 -239c0 -131 52 -239 156 -239zM311 604c-65 0 -60 103 -103 103c-25 0 -44 -29 -44 -97h-33c0 74 26 134 80 134c66 0 60 -103 103 -103c25 0 44 29 44 97h33c0 -74 -25 -134 -80 -134z" />
    <glyph glyph-name="uni1EE2.smcp" horiz-adv-x="521" 
d="M260 -12c-139 0 -212 129 -212 287s73 287 212 287c77 0 134 -40 170 -103c21 22 36 50 38 74c-1 0 -6 -1 -9 -1c-21 0 -36 16 -36 37c0 20 16 37 38 37c23 0 43 -21 43 -58c0 -48 -27 -94 -59 -120c18 -44 28 -97 28 -153c0 -158 -74 -287 -213 -287zM260 36
c103 0 157 108 157 239c0 132 -54 239 -157 239c-104 0 -156 -107 -156 -239c0 -131 52 -239 156 -239zM261 -178c-19 0 -37 17 -37 37c0 21 18 38 37 38c21 0 38 -17 38 -38c0 -20 -17 -37 -38 -37z" />
    <glyph glyph-name="OE.smcp" unicode="&#xf6fa;" horiz-adv-x="737" 
d="M689 0h-285v86c-34 -72 -90 -98 -150 -98c-135 0 -206 129 -206 287s71 287 206 287c60 0 116 -27 150 -97v85h285v-47h-232v-197h226v-47h-226v-212h232v-47zM404 170v211c-23 89 -78 133 -143 133c-105 0 -157 -107 -157 -239c0 -131 52 -239 157 -239
c67 0 120 46 143 134z" />
    <glyph glyph-name="uni1E56.smcp" horiz-adv-x="410" 
d="M124 0h-53v550h157c103 0 152 -75 152 -162c0 -88 -49 -163 -152 -163h-104v-225zM224 272c68 0 100 50 100 116s-33 115 -100 115h-100v-231h100zM222 611c-19 0 -37 17 -37 37c0 21 18 38 37 38c21 0 38 -17 38 -38c0 -20 -17 -37 -38 -37z" />
    <glyph glyph-name="Racute.smcp" unicode="&#xf695;" horiz-adv-x="431" 
d="M353 750l-135 -144h-39l116 144h58zM388 0h-63l-117 225h-84v-225h-53v550h157c98 0 152 -70 152 -162c0 -91 -51 -148 -119 -156zM224 272c68 0 101 49 101 116c0 66 -35 115 -101 115h-100v-231h100z" />
    <glyph glyph-name="Rcaron.smcp" unicode="&#xf696;" horiz-adv-x="431" 
d="M239 606h-52l-85 144h36l75 -112l72 112h36zM388 0h-63l-117 225h-84v-225h-53v550h157c98 0 152 -70 152 -162c0 -91 -51 -148 -119 -156zM224 272c68 0 101 49 101 116c0 66 -35 115 -101 115h-100v-231h100z" />
    <glyph glyph-name="Rcommaaccent.smcp" unicode="&#xf697;" horiz-adv-x="431" 
d="M261 -137c0 -53 -31 -102 -66 -127l-27 21c31 22 54 60 55 89c0 0 -6 -1 -9 -1c-21 0 -36 17 -36 38s16 39 38 39c24 0 45 -21 45 -59zM388 0h-63l-117 225h-84v-225h-53v550h157c98 0 152 -70 152 -162c0 -91 -51 -148 -119 -156zM224 272c68 0 101 49 101 116
c0 66 -35 115 -101 115h-100v-231h100z" />
    <glyph glyph-name="Sacute.smcp" unicode="&#xf698;" horiz-adv-x="394" 
d="M328 750l-135 -144h-39l116 144h58zM194 -12c-71 0 -125 26 -165 71l32 39c30 -36 76 -63 132 -63c73 0 111 44 111 101c0 148 -257 110 -257 286c0 85 69 140 154 140c64 0 110 -21 147 -59l-29 -39c-31 36 -72 51 -117 51c-56 0 -99 -37 -99 -92
c0 -127 257 -101 257 -286c0 -83 -57 -149 -166 -149z" />
    <glyph glyph-name="Scaron.smcp" unicode="&#xf6fd;" horiz-adv-x="394" 
d="M227 606h-52l-85 144h36l75 -112l72 112h36zM194 -12c-71 0 -125 26 -165 71l32 39c30 -36 76 -63 132 -63c73 0 111 44 111 101c0 148 -257 110 -257 286c0 85 69 140 154 140c64 0 110 -21 147 -59l-29 -39c-31 36 -72 51 -117 51c-56 0 -99 -37 -99 -92
c0 -127 257 -101 257 -286c0 -83 -57 -149 -166 -149z" />
    <glyph glyph-name="Scircumflex.smcp" unicode="&#xf69a;" horiz-adv-x="394" 
d="M309 606h-36l-75 112l-72 -112h-36l82 144h52zM194 -12c-71 0 -125 26 -165 71l32 39c30 -36 76 -63 132 -63c73 0 111 44 111 101c0 148 -257 110 -257 286c0 85 69 140 154 140c64 0 110 -21 147 -59l-29 -39c-31 36 -72 51 -117 51c-56 0 -99 -37 -99 -92
c0 -127 257 -101 257 -286c0 -83 -57 -149 -166 -149z" />
    <glyph glyph-name="Scedilla.smcp" unicode="&#xf699;" horiz-adv-x="394" 
d="M192 -189c-35 0 -66 13 -85 29l16 32c22 -20 44 -28 69 -28c30 0 57 17 57 45c0 24 -13 38 -36 38c-14 0 -26 -6 -35 -16l-27 16l22 62c-61 4 -108 29 -144 70l32 39c30 -36 76 -63 132 -63c73 0 111 44 111 101c0 148 -257 110 -257 286c0 85 69 140 154 140
c64 0 110 -21 147 -59l-29 -39c-31 36 -72 51 -117 51c-56 0 -99 -37 -99 -92c0 -127 257 -101 257 -286c0 -79 -51 -142 -150 -148l-17 -46c9 7 20 11 33 11c33 0 59 -26 59 -65c0 -46 -41 -78 -93 -78z" />
    <glyph glyph-name="Scommaaccent.smcp" unicode="&#xf69b;" horiz-adv-x="394" 
d="M244 -137c0 -53 -31 -102 -66 -127l-27 21c31 22 54 60 55 89c0 0 -6 -1 -9 -1c-21 0 -36 17 -36 38s16 39 38 39c24 0 45 -21 45 -59zM194 -12c-71 0 -125 26 -165 71l32 39c30 -36 76 -63 132 -63c73 0 111 44 111 101c0 148 -257 110 -257 286c0 85 69 140 154 140
c64 0 110 -21 147 -59l-29 -39c-31 36 -72 51 -117 51c-56 0 -99 -37 -99 -92c0 -127 257 -101 257 -286c0 -83 -57 -149 -166 -149z" />
    <glyph glyph-name="uni1E60.smcp" horiz-adv-x="394" 
d="M194 -12c-71 0 -125 26 -165 71l32 39c30 -36 76 -63 132 -63c73 0 111 44 111 101c0 148 -257 110 -257 286c0 85 69 140 154 140c64 0 110 -21 147 -59l-29 -39c-31 36 -72 51 -117 51c-56 0 -99 -37 -99 -92c0 -127 257 -101 257 -286c0 -83 -57 -149 -166 -149z
M202 611c-19 0 -37 17 -37 37c0 21 18 38 37 38c21 0 38 -17 38 -38c0 -20 -17 -37 -38 -37z" />
    <glyph glyph-name="Tbar.smcp" unicode="&#xf69c;" horiz-adv-x="360" 
d="M207 0h-54v257h-88v37h88v209h-131v47h317v-47h-132v-209h83v-37h-83v-257z" />
    <glyph glyph-name="Tcaron.smcp" unicode="&#xf69d;" horiz-adv-x="360" 
d="M208 606h-52l-85 144h36l75 -112l72 112h36zM207 0h-54v503h-131v47h317v-47h-132v-503z" />
    <glyph glyph-name="Tcommaaccent.smcp" unicode="&#xf69e;" horiz-adv-x="360" 
d="M225 -137c0 -53 -31 -102 -66 -127l-27 21c31 22 54 60 55 89c0 0 -6 -1 -9 -1c-21 0 -36 17 -36 38s16 39 38 39c24 0 45 -21 45 -59zM207 0h-54v503h-131v47h317v-47h-132v-503z" />
    <glyph glyph-name="uni021A.smcp" horiz-adv-x="360" 
d="M225 -137c0 -53 -31 -102 -66 -127l-27 21c31 22 54 60 55 89c0 0 -6 -1 -9 -1c-21 0 -36 17 -36 38s16 39 38 39c24 0 45 -21 45 -59zM207 0h-54v503h-131v47h317v-47h-132v-503z" />
    <glyph glyph-name="uni1E6A.smcp" horiz-adv-x="360" 
d="M207 0h-54v503h-131v47h317v-47h-132v-503zM180 611c-19 0 -37 17 -37 37c0 21 18 38 37 38c21 0 38 -17 38 -38c0 -20 -17 -37 -38 -37z" />
    <glyph glyph-name="Uacute.smcp" unicode="&#xf7fa;" horiz-adv-x="491" 
d="M376 750l-135 -144h-39l116 144h58zM246 -12c-118 0 -175 72 -175 194v368h53v-372c0 -91 41 -142 122 -142c79 0 121 51 121 142v372h54v-368c0 -122 -58 -194 -175 -194z" />
    <glyph glyph-name="Ubreve.smcp" unicode="&#xf69f;" horiz-adv-x="491" 
d="M246 -12c-118 0 -175 72 -175 194v368h53v-372c0 -91 41 -142 122 -142c79 0 121 51 121 142v372h54v-368c0 -122 -58 -194 -175 -194zM392 672c-34 -45 -86 -74 -146 -74s-113 29 -147 74l29 24c26 -37 70 -61 118 -61c47 0 91 24 117 61z" />
    <glyph glyph-name="Ucircumflex.smcp" unicode="&#xf7fb;" horiz-adv-x="491" 
d="M355 606h-36l-75 112l-72 -112h-36l82 144h52zM246 -12c-118 0 -175 72 -175 194v368h53v-372c0 -91 41 -142 122 -142c79 0 121 51 121 142v372h54v-368c0 -122 -58 -194 -175 -194z" />
    <glyph glyph-name="Udieresis.smcp" unicode="&#xf7fc;" horiz-adv-x="491" 
d="M365 651c0 -20 -16 -37 -36 -37s-37 17 -37 37s17 36 37 36s36 -16 36 -36zM197 651c0 -20 -16 -37 -36 -37s-36 17 -36 37s16 36 36 36s36 -16 36 -36zM246 -12c-118 0 -175 72 -175 194v368h53v-372c0 -91 41 -142 122 -142c79 0 121 51 121 142v372h54v-368
c0 -122 -58 -194 -175 -194z" />
    <glyph glyph-name="Ugrave.smcp" unicode="&#xf7f9;" horiz-adv-x="491" 
d="M246 -12c-118 0 -175 72 -175 194v368h53v-372c0 -91 41 -142 122 -142c79 0 121 51 121 142v372h54v-368c0 -122 -58 -194 -175 -194zM289 606h-39l-135 144h58z" />
    <glyph glyph-name="Uhungarumlaut.smcp" unicode="&#xf6a0;" horiz-adv-x="491" 
d="M246 -12c-118 0 -175 72 -175 194v368h53v-372c0 -91 41 -142 122 -142c79 0 121 51 121 142v372h54v-368c0 -122 -58 -194 -175 -194zM283 750l-96 -144h-33l77 144h52zM408 750l-96 -144h-33l77 144h52z" />
    <glyph glyph-name="Umacron.smcp" unicode="&#xf6a1;" horiz-adv-x="491" 
d="M246 -12c-118 0 -175 72 -175 194v368h53v-372c0 -91 41 -142 122 -142c79 0 121 51 121 142v372h54v-368c0 -122 -58 -194 -175 -194zM399 627h-304v37h304v-37z" />
    <glyph glyph-name="Uogonek.smcp" unicode="&#xf6a2;" horiz-adv-x="491" 
d="M246 -12c-118 0 -175 72 -175 194v368h53v-372c0 -91 41 -142 122 -142c79 0 121 51 121 142v372h54v-368c0 -93 -34 -157 -101 -182c-43 -25 -74 -58 -74 -106c0 -33 16 -47 40 -47s37 14 45 39l30 -15c-10 -29 -33 -57 -76 -57c-42 0 -75 25 -75 79c0 36 17 69 42 95
h-6z" />
    <glyph glyph-name="Uring.smcp" unicode="&#xf6a3;" horiz-adv-x="491" 
d="M246 -12c-118 0 -175 72 -175 194v368h53v-372c0 -91 41 -142 122 -142c79 0 121 51 121 142v372h54v-368c0 -122 -58 -194 -175 -194zM248 575c-48 0 -88 39 -88 88c0 48 40 88 88 88c49 0 87 -40 87 -88c0 -49 -38 -88 -87 -88zM248 605c32 0 57 26 57 58
c0 31 -25 57 -57 57c-31 0 -57 -26 -57 -57c0 -32 26 -58 57 -58z" />
    <glyph glyph-name="Utilde.smcp" unicode="&#xf6a4;" horiz-adv-x="491" 
d="M246 -12c-118 0 -175 72 -175 194v368h53v-372c0 -91 41 -142 122 -142c79 0 121 51 121 142v372h54v-368c0 -122 -58 -194 -175 -194zM295 604c-65 0 -60 103 -103 103c-25 0 -44 -29 -44 -97h-33c0 74 26 134 80 134c66 0 60 -103 103 -103c25 0 44 29 44 97h33
c0 -74 -25 -134 -80 -134z" />
    <glyph glyph-name="uni1EE4.smcp" horiz-adv-x="491" 
d="M246 -12c-118 0 -175 72 -175 194v368h53v-372c0 -91 41 -142 122 -142c79 0 121 51 121 142v372h54v-368c0 -122 -58 -194 -175 -194zM245 -178c-19 0 -37 17 -37 37c0 21 18 38 37 38c21 0 38 -17 38 -38c0 -20 -17 -37 -38 -37z" />
    <glyph glyph-name="Uhorn.smcp" horiz-adv-x="491" 
d="M246 -12c-124 0 -175 77 -175 221v341h53v-369c0 -94 41 -145 122 -145c79 0 121 51 121 145v369h54v-48c37 22 64 62 65 95c0 0 -6 -1 -8 -1c-21 0 -36 16 -36 37c0 20 16 37 37 37c24 0 44 -21 44 -57c0 -59 -38 -117 -102 -148v-256c0 -145 -52 -221 -175 -221z" />
    <glyph glyph-name="uni1EE6.smcp" horiz-adv-x="491" 
d="M246 -12c-118 0 -175 72 -175 194v368h53v-372c0 -91 41 -142 122 -142c79 0 121 51 121 142v372h54v-368c0 -122 -58 -194 -175 -194zM213 647l-27 7c8 26 28 49 62 49c33 0 60 -19 60 -64c0 -22 -7 -40 -21 -59h-31c17 20 24 39 24 59c0 26 -14 38 -32 38
c-19 0 -30 -11 -35 -30z" />
    <glyph glyph-name="uni1EE8.smcp" horiz-adv-x="491" 
d="M376 750l-135 -144h-39l116 144h58zM246 -12c-124 0 -175 77 -175 221v341h53v-369c0 -94 41 -145 122 -145c79 0 121 51 121 145v369h54v-48c37 22 64 62 65 95c0 0 -6 -1 -8 -1c-21 0 -36 16 -36 37c0 20 16 37 37 37c24 0 44 -21 44 -57c0 -59 -38 -117 -102 -148
v-256c0 -145 -52 -221 -175 -221z" />
    <glyph glyph-name="uni1EEA.smcp" horiz-adv-x="491" 
d="M289 606h-39l-135 144h58zM246 -12c-124 0 -175 77 -175 221v341h53v-369c0 -94 41 -145 122 -145c79 0 121 51 121 145v369h54v-48c37 22 64 62 65 95c0 0 -6 -1 -8 -1c-21 0 -36 16 -36 37c0 20 16 37 37 37c24 0 44 -21 44 -57c0 -59 -38 -117 -102 -148v-256
c0 -145 -52 -221 -175 -221z" />
    <glyph glyph-name="uni1EEC.smcp" horiz-adv-x="491" 
d="M212 649l-27 7c8 26 28 49 62 49c33 0 60 -19 60 -64c0 -22 -7 -40 -21 -59h-31c17 20 24 39 24 59c0 26 -14 38 -32 38c-19 0 -30 -11 -35 -30zM246 -12c-124 0 -175 77 -175 221v341h53v-369c0 -94 41 -145 122 -145c79 0 121 51 121 145v369h54v-48c37 22 64 62 65 95
c0 0 -6 -1 -8 -1c-21 0 -36 16 -36 37c0 20 16 37 37 37c24 0 44 -21 44 -57c0 -59 -38 -117 -102 -148v-256c0 -145 -52 -221 -175 -221z" />
    <glyph glyph-name="uni1EEE.smcp" horiz-adv-x="491" 
d="M246 -12c-124 0 -175 77 -175 221v341h53v-369c0 -94 41 -145 122 -145c79 0 121 51 121 145v369h54v-48c37 22 64 62 65 95c0 0 -6 -1 -8 -1c-21 0 -36 16 -36 37c0 20 16 37 37 37c24 0 44 -21 44 -57c0 -59 -38 -117 -102 -148v-256c0 -145 -52 -221 -175 -221z
M296 604c-65 0 -60 103 -103 103c-25 0 -44 -29 -44 -97h-33c0 74 26 134 80 134c66 0 60 -103 103 -103c25 0 44 29 44 97h33c0 -74 -25 -134 -80 -134z" />
    <glyph glyph-name="uni1EF0.smcp" horiz-adv-x="491" 
d="M245 -178c-19 0 -37 17 -37 37c0 21 18 38 37 38c21 0 38 -17 38 -38c0 -20 -17 -37 -38 -37zM246 -12c-124 0 -175 77 -175 221v341h53v-369c0 -94 41 -145 122 -145c79 0 121 51 121 145v369h54v-48c37 22 64 62 65 95c0 0 -6 -1 -8 -1c-21 0 -36 16 -36 37
c0 20 16 37 37 37c24 0 44 -21 44 -57c0 -59 -38 -117 -102 -148v-256c0 -145 -52 -221 -175 -221z" />
    <glyph glyph-name="Wacute.smcp" horiz-adv-x="602" 
d="M460 0h-57l-102 451l-103 -451h-57l-129 550h57l102 -460l106 460h48l105 -461l103 461h57zM431 750l-135 -144h-39l116 144h58z" />
    <glyph glyph-name="Wcircumflex.smcp" unicode="&#xf6a6;" horiz-adv-x="602" 
d="M410 606h-36l-75 112l-72 -112h-36l82 144h52zM460 0h-57l-102 451l-103 -451h-57l-129 550h57l102 -460l106 460h48l105 -461l103 461h57z" />
    <glyph glyph-name="Wdieresis.smcp" horiz-adv-x="602" 
d="M460 0h-57l-102 451l-103 -451h-57l-129 550h57l102 -460l106 460h48l105 -461l103 461h57zM421 651c0 -20 -16 -37 -36 -37s-37 17 -37 37s17 36 37 36s36 -16 36 -36zM253 651c0 -20 -16 -37 -36 -37s-36 17 -36 37s16 36 36 36s36 -16 36 -36z" />
    <glyph glyph-name="Wgrave.smcp" horiz-adv-x="602" 
d="M460 0h-57l-102 451l-103 -451h-57l-129 550h57l102 -460l106 460h48l105 -461l103 461h57zM344 606h-39l-135 144h58z" />
    <glyph glyph-name="Yacute.smcp" unicode="&#xf7fd;" horiz-adv-x="423" 
d="M343 750l-135 -144h-39l116 144h58zM239 0h-53v235l-180 315h61l145 -262l144 262h60l-177 -315v-235z" />
    <glyph glyph-name="Ycircumflex.smcp" unicode="&#xf6a9;" horiz-adv-x="423" 
d="M322 606h-36l-75 112l-72 -112h-36l82 144h52zM239 0h-53v235l-180 315h61l145 -262l144 262h60l-177 -315v-235z" />
    <glyph glyph-name="Ydieresis.smcp" unicode="&#xf7ff;" horiz-adv-x="423" 
d="M332 651c0 -20 -16 -37 -36 -37s-37 17 -37 37s17 36 37 36s36 -16 36 -36zM164 651c0 -20 -16 -37 -36 -37s-36 17 -36 37s16 36 36 36s36 -16 36 -36zM239 0h-53v235l-180 315h61l145 -262l144 262h60l-177 -315v-235z" />
    <glyph glyph-name="Ygrave.smcp" horiz-adv-x="423" 
d="M239 0h-53v235l-180 315h61l145 -262l144 262h60l-177 -315v-235zM256 606h-39l-135 144h58z" />
    <glyph glyph-name="Zacute.smcp" unicode="&#xf6ab;" horiz-adv-x="396" 
d="M328 750l-135 -144h-39l116 144h58zM361 0h-326v43l256 460h-256v47h320v-43l-257 -460h263v-47z" />
    <glyph glyph-name="Zcaron.smcp" unicode="&#xf6ff;" horiz-adv-x="396" 
d="M223 606h-52l-85 144h36l75 -112l72 112h36zM361 0h-326v43l256 460h-256v47h320v-43l-257 -460h263v-47z" />
    <glyph glyph-name="Zdotaccent.smcp" unicode="&#xf6ac;" horiz-adv-x="396" 
d="M361 0h-326v43l256 460h-256v47h320v-43l-257 -460h263v-47zM198 611c-19 0 -37 17 -37 37c0 21 18 38 37 38c21 0 38 -17 38 -38c0 -20 -17 -37 -38 -37z" />
    <glyph glyph-name="Eth.smcp" unicode="&#xf7f0;" horiz-adv-x="512" 
d="M227 0h-144v261h-66v38h66v251h144c146 0 227 -120 227 -276s-81 -274 -227 -274zM245 261h-109v-214h91c113 0 171 99 171 227s-58 229 -171 229h-91v-204h109v-38z" />
    <glyph glyph-name="Thorn.smcp" unicode="&#xf7fe;" horiz-adv-x="410" 
d="M124 0h-53v550h53v-97h104c103 0 152 -76 152 -163s-49 -163 -152 -163h-104v-127zM224 175c68 0 100 49 100 115s-32 115 -100 115h-100v-230h100z" />
    <glyph glyph-name="acute" unicode="&#xb4;" horiz-adv-x="174" 
d="M174 700l-135 -144h-39l116 144h58z" />
    <glyph glyph-name="dieresis" unicode="&#xa8;" horiz-adv-x="260" 
d="M250 601c0 -20 -16 -37 -36 -37s-37 17 -37 37s17 36 37 36s36 -16 36 -36zM82 601c0 -20 -16 -37 -36 -37s-36 17 -36 37s16 36 36 36s36 -16 36 -36z" />
    <glyph glyph-name="grave" unicode="`" horiz-adv-x="174" 
d="M174 556h-39l-135 144h58z" />
    <glyph glyph-name="uni02CB" unicode="&#x2cb;" horiz-adv-x="174" 
d="M174 556h-39l-135 144h58z" />
    <glyph glyph-name="circumflex" unicode="&#x2c6;" horiz-adv-x="219" 
d="M219 556h-36l-75 112l-72 -112h-36l82 144h52z" />
    <glyph glyph-name="tilde" unicode="&#x2dc;" horiz-adv-x="260" 
d="M180 554c-65 0 -60 103 -103 103c-25 0 -44 -29 -44 -97h-33c0 74 26 134 80 134c66 0 60 -103 103 -103c25 0 44 29 44 97h33c0 -74 -25 -134 -80 -134z" />
    <glyph glyph-name="macron" unicode="&#xaf;" horiz-adv-x="304" 
d="M304 577h-304v37h304v-37z" />
    <glyph glyph-name="uni203E" unicode="&#x203e;" horiz-adv-x="304" 
d="M304 577h-304v37h304v-37z" />
    <glyph glyph-name="breve" unicode="&#x2d8;" horiz-adv-x="293" 
d="M293 622c-34 -45 -86 -74 -146 -74s-113 29 -147 74l29 24c26 -37 70 -61 118 -61c47 0 91 24 117 61z" />
    <glyph glyph-name="dotaccent" unicode="&#x2d9;" horiz-adv-x="83" 
d="M41 561c-19 0 -37 17 -37 37c0 21 18 38 37 38c21 0 38 -17 38 -38c0 -20 -17 -37 -38 -37z" />
    <glyph glyph-name="ring" unicode="&#x2da;" horiz-adv-x="175" 
d="M88 549c-48 0 -88 39 -88 88c0 48 40 88 88 88c49 0 87 -40 87 -88c0 -49 -38 -88 -87 -88zM88 579c32 0 57 26 57 58c0 31 -25 57 -57 57c-31 0 -57 -26 -57 -57c0 -32 26 -58 57 -58z" />
    <glyph glyph-name="cedilla" unicode="&#xb8;" horiz-adv-x="178" 
d="M85 -189c-35 0 -66 13 -85 29l16 32c22 -20 44 -28 69 -28c30 0 57 17 57 45c0 24 -13 38 -36 38c-14 0 -26 -6 -35 -16l-27 16l31 84h37l-26 -68c9 7 20 11 33 11c33 0 59 -26 59 -65c0 -46 -41 -78 -93 -78z" />
    <glyph glyph-name="hungarumlaut" unicode="&#x2dd;" horiz-adv-x="254" 
d="M129 700l-96 -144h-33l77 144h52zM254 700l-96 -144h-33l77 144h52z" />
    <glyph glyph-name="ogonek" unicode="&#x2db;" horiz-adv-x="151" 
d="M121 -114l30 -15c-10 -29 -33 -57 -76 -57c-42 0 -75 25 -75 79c0 52 36 98 82 127l28 -20c-43 -25 -74 -58 -74 -106c0 -33 16 -47 40 -47s37 14 45 39z" />
    <glyph glyph-name="caron" unicode="&#x2c7;" horiz-adv-x="219" 
d="M137 556h-52l-85 144h36l75 -112l72 112h36z" />
    <glyph glyph-name="commaaccent" unicode="&#xf6c3;" horiz-adv-x="218" 
d="M153 -137c0 -53 -31 -102 -66 -127l-27 21c31 22 54 60 55 89c0 0 -6 -1 -9 -1c-21 0 -36 17 -36 38s16 39 38 39c24 0 45 -21 45 -59z" />
    <glyph glyph-name="uni02C9" unicode="&#x2c9;" horiz-adv-x="304" 
d="M304 591h-304v37h304v-37z" />
    <glyph glyph-name="hookabovecomb" unicode="&#x309;" horiz-adv-x="151" 
d="M41 734l-27 7c8 26 28 49 62 49c33 0 60 -19 60 -64c0 -22 -7 -40 -21 -59h-31c17 20 24 39 24 59c0 26 -14 38 -32 38c-19 0 -30 -11 -35 -30z" />
    <glyph glyph-name="Alpha" unicode="&#x391;" horiz-adv-x="492" 
d="M480 0h-60l-48 165h-251l-48 -165h-61l201 667h66zM359 215l-113 387l-113 -387h226z" />
    <glyph glyph-name="Beta" unicode="&#x392;" horiz-adv-x="498" 
d="M277 0h-202v667h197c99 0 161 -64 161 -170c0 -84 -44 -137 -100 -153c63 -10 111 -86 111 -164c0 -111 -59 -180 -167 -180zM265 367c77 0 109 55 109 124s-32 126 -109 126h-134v-250h134zM269 50c78 0 116 52 116 134c0 69 -36 133 -116 133h-138v-267h138z" />
    <glyph glyph-name="Gamma" unicode="&#x393;" horiz-adv-x="441" 
d="M131 0h-56v667h326v-50h-270v-617z" />
    <glyph glyph-name="uni0394" unicode="&#x394;" horiz-adv-x="510" 
d="M498 0h-486l210 667h66zM424 50l-169 552l-169 -552h338z" />
    <glyph glyph-name="Delta" unicode="&#x2206;" horiz-adv-x="510" 
d="M498 0h-486l210 667h66zM424 50l-169 552l-169 -552h338z" />
    <glyph glyph-name="Epsilon" unicode="&#x395;" horiz-adv-x="452" 
d="M401 0h-326v667h326v-50h-270v-250h263v-50h-263v-267h270v-50z" />
    <glyph glyph-name="Zeta" unicode="&#x396;" horiz-adv-x="453" 
d="M410 0h-368v49l296 568h-296v50h361v-48l-297 -569h304v-50z" />
    <glyph glyph-name="Eta" unicode="&#x397;" horiz-adv-x="559" 
d="M484 0h-55v318h-298v-318h-56v667h56v-299h298v299h55v-667z" />
    <glyph glyph-name="Theta" unicode="&#x398;" horiz-adv-x="590" 
d="M433 317h-276v50h276v-50zM295 -12c-157 0 -242 154 -242 345s85 345 242 345c156 0 242 -154 242 -345s-86 -345 -242 -345zM295 39c118 0 183 132 183 294c0 164 -65 294 -183 294c-119 0 -184 -130 -184 -294c0 -162 65 -294 184 -294z" />
    <glyph glyph-name="Iota" unicode="&#x399;" horiz-adv-x="206" 
d="M131 0h-56v667h56v-667z" />
    <glyph glyph-name="Kappa" unicode="&#x39a;" horiz-adv-x="490" 
d="M471 0h-68l-213 309l-59 -84v-225h-56v667h56v-364l253 364h67l-227 -318z" />
    <glyph glyph-name="Lambda" unicode="&#x39b;" horiz-adv-x="492" 
d="M480 0h-60l-174 602l-173 -602h-61l201 667h66z" />
    <glyph glyph-name="Mu" unicode="&#x39c;" horiz-adv-x="661" 
d="M586 0h-55v571l-189 -571h-23l-188 571v-571h-56v667h81l175 -526l175 526h80v-667z" />
    <glyph glyph-name="Nu" unicode="&#x39d;" horiz-adv-x="557" 
d="M482 0h-54l-297 546v-546h-56v667h56l295 -538v538h56v-667z" />
    <glyph glyph-name="Xi" unicode="&#x39e;" horiz-adv-x="486" 
d="M434 617h-382v50h382v-50zM433 0h-381v50h381v-50zM427 317h-368v50h368v-50z" />
    <glyph glyph-name="Omicron" unicode="&#x39f;" horiz-adv-x="590" 
d="M295 -12c-157 0 -242 154 -242 345s85 345 242 345c156 0 242 -154 242 -345s-86 -345 -242 -345zM295 39c118 0 183 132 183 294c0 164 -65 294 -183 294c-119 0 -184 -130 -184 -294c0 -162 65 -294 184 -294z" />
    <glyph glyph-name="Pi" unicode="&#x3a0;" horiz-adv-x="559" 
d="M484 0h-55v617h-298v-617h-56v667h409v-667z" />
    <glyph glyph-name="Rho" unicode="&#x3a1;" horiz-adv-x="468" 
d="M131 0h-56v667h184c116 0 175 -90 175 -195c0 -104 -60 -194 -175 -194h-128v-278zM255 328c76 0 120 60 120 144c0 85 -44 145 -120 145h-124v-289h124z" />
    <glyph glyph-name="Sigma" unicode="&#x3a3;" horiz-adv-x="441" 
d="M115 617l179 -273l-181 -294h281v-50h-342v51l179 293l-179 273v50h342v-50h-279z" />
    <glyph glyph-name="Tau" unicode="&#x3a4;" horiz-adv-x="435" 
d="M245 0h-56v617h-162v50h381v-50h-163v-617z" />
    <glyph glyph-name="Upsilon" unicode="&#x3a5;" horiz-adv-x="483" 
d="M269 0h-55v286l-206 381h64l169 -325l171 325h63l-206 -381v-286z" />
    <glyph glyph-name="Phi" unicode="&#x3a6;" horiz-adv-x="670" 
d="M363 0h-56v65c-170 11 -254 127 -254 268c0 140 84 256 254 268v66h56v-66c168 -12 254 -128 254 -268c0 -141 -86 -257 -254 -268v-65zM111 333c0 -114 65 -206 196 -217v434c-131 -11 -196 -102 -196 -217zM558 333c0 115 -66 205 -195 217v-434
c129 11 195 103 195 217z" />
    <glyph glyph-name="Chi" unicode="&#x3a7;" horiz-adv-x="491" 
d="M479 0h-65l-168 293l-168 -293h-66l201 340l-190 327h67l156 -278l156 278h66l-189 -326z" />
    <glyph glyph-name="Psi" unicode="&#x3a8;" horiz-adv-x="661" 
d="M358 0h-55v125c-145 9 -228 92 -228 240v302h56v-301c0 -121 63 -183 172 -191v492h55v-492c108 9 171 71 171 191v301h56v-302c0 -148 -82 -231 -227 -240v-125z" />
    <glyph glyph-name="uni03A9" unicode="&#x3a9;" horiz-adv-x="581" 
d="M62 50h107c-64 48 -121 140 -121 290c0 199 90 338 242 338c153 0 242 -138 242 -338c0 -150 -55 -242 -120 -290h107v-50h-172v50c58 24 127 112 127 283c0 176 -66 293 -184 293c-117 0 -183 -117 -183 -293c0 -171 70 -259 127 -283v-50h-172v50z" />
    <glyph glyph-name="Omega" unicode="&#x2126;" horiz-adv-x="581" 
d="M62 50h107c-64 48 -121 140 -121 290c0 199 90 338 242 338c153 0 242 -138 242 -338c0 -150 -55 -242 -120 -290h107v-50h-172v50c58 24 127 112 127 283c0 176 -66 293 -184 293c-117 0 -183 -117 -183 -293c0 -171 70 -259 127 -283v-50h-172v50z" />
    <glyph glyph-name="alpha" unicode="&#x3b1;" horiz-adv-x="480" 
d="M456 35l4 -44c-7 -2 -17 -3 -28 -3c-54 0 -79 32 -83 86c-26 -49 -76 -86 -130 -86c-109 0 -171 103 -171 253c0 148 62 254 171 254c50 0 99 -30 128 -86v74h51v-390c0 -37 12 -60 41 -60c5 0 12 1 17 2zM228 33c51 0 100 42 120 89v237c-20 47 -69 90 -120 90
c-87 0 -126 -95 -126 -208s39 -208 126 -208z" />
    <glyph glyph-name="beta" unicode="&#x3b2;" 
d="M121 459v-337c21 -47 69 -89 124 -89c80 0 122 64 122 143c0 101 -62 145 -132 145h-26v45h25c67 0 120 43 120 132c0 86 -47 133 -107 133c-67 0 -126 -46 -126 -172zM121 72v-256h-50v643c0 160 85 218 177 218c90 0 160 -58 160 -176c0 -85 -52 -141 -110 -156
c54 -9 123 -68 123 -174c0 -109 -67 -183 -166 -183c-57 0 -106 35 -134 84z" />
    </font>
</defs>
</svg>
